<svg width="26" height="26" viewBox="0 0 26 26" fill="none" xmlns="http://www.w3.org/2000/svg">
<path d="M16.7376 4.09541C16.6942 4.36624 16.6726 4.63707 16.6726 4.90791C16.6726 7.34541 18.6442 9.31599 21.0709 9.31599C21.3417 9.31599 21.6017 9.28457 21.8726 9.24124V17.9827C21.8726 21.6562 19.7059 23.8337 16.0226 23.8337H8.01783C4.33341 23.8337 2.16675 21.6562 2.16675 17.9827V9.96707C2.16675 6.28374 4.33341 4.09541 8.01783 4.09541H16.7376ZM16.9553 10.6821C16.6617 10.6496 16.3703 10.7796 16.1959 11.0179L13.5753 14.4087L10.5734 12.0471C10.3892 11.9062 10.1726 11.851 9.95591 11.8737C9.74033 11.9062 9.54533 12.0243 9.41425 12.1977L6.20866 16.3696L6.14258 16.4671C5.95842 16.8127 6.04508 17.2568 6.37008 17.4962C6.52175 17.5937 6.68425 17.6587 6.86841 17.6587C7.11867 17.6696 7.35591 17.5385 7.50758 17.3337L10.2267 13.8335L13.3142 16.1529L13.4117 16.2168C13.7584 16.401 14.1917 16.3154 14.4409 15.9893L17.5717 11.9496L17.5284 11.9712C17.7017 11.7329 17.7342 11.4296 17.6151 11.1587C17.497 10.8879 17.2359 10.7037 16.9553 10.6821ZM21.2227 2.16675C22.6635 2.16675 23.8335 3.33675 23.8335 4.77758C23.8335 6.21841 22.6635 7.38841 21.2227 7.38841C19.7819 7.38841 18.6119 6.21841 18.6119 4.77758C18.6119 3.33675 19.7819 2.16675 21.2227 2.16675Z" fill="#A0A9AB"/>
</svg>
