<svg width="24" height="24" viewBox="0 0 24 24" fill="none" xmlns="http://www.w3.org/2000/svg">
<path d="M12.3753 16.6353C11.3917 15.7914 9.79666 15.7914 8.81299 16.6353C7.83031 17.4796 7.83031 18.8478 8.81299 19.6921C9.79632 20.5364 11.3913 20.5364 12.3753 19.6921C13.3583 18.8478 13.3583 17.4796 12.3753 16.6353ZM8.59532 15.4178C9.35765 14.4032 9.09965 13.1214 8.01965 12.5557C6.93931 11.9903 5.4463 12.3543 4.68397 13.3689C3.92263 14.3835 4.17996 15.6653 5.25964 16.231C6.34031 16.7971 7.83365 16.4328 8.59532 15.4178ZM7.56098 10.5778C8.29065 9.70426 8.11432 8.53748 7.16664 7.97176C6.21931 7.40569 4.8603 7.65498 4.1303 8.52855C3.40029 9.40212 3.57696 10.5685 4.5243 11.1343C5.47164 11.7003 6.83131 11.451 7.56098 10.5778ZM8.23332 7.46712C9.13932 8.03212 10.4563 7.81712 11.1743 6.98819C11.8927 6.1589 11.741 5.02926 10.8353 4.46462C9.92966 3.89962 8.61265 4.11426 7.89465 4.94319C7.17598 5.77248 7.32765 6.90212 8.23332 7.46712ZM15.882 6.02533C16.6887 5.58355 16.7784 4.71569 16.082 4.08605C15.3863 3.4564 14.1667 3.3039 13.3597 3.74533C12.5523 4.18676 12.463 5.05498 13.1593 5.68462C13.8557 6.31426 15.0753 6.46676 15.882 6.02533Z" fill="#474747"/>
<path d="M18.825 12.4282C18.1036 12.2011 17.4813 12.0046 17.3103 11.55C17.2113 11.2864 17.25 10.8993 17.418 10.3996C19.2067 8.60679 21.8827 5.71786 21.8073 4.54393C21.7773 4.07464 21.0793 3.4025 20.6217 3.4025L20.5857 3.40393C20.0903 3.44036 19.3333 4.1425 18.5247 5.09321C18.4568 4.87514 18.3696 4.66454 18.2643 4.46429C17.416 2.89821 15.551 2 13.148 2C11.2796 2 9.19927 2.55179 7.13293 3.59571C4.48059 4.93571 2.49958 7.73 2.08624 10.715C1.77891 12.9314 2.14624 16.2836 5.63892 19.6704C7.1876 21.1729 9.62628 22 12.5046 22H12.5056C14.8163 22 17.1573 21.4489 18.9293 20.4893C20.9097 19.4161 22 17.9318 22 16.3093C22 13.4286 20.1647 12.8504 18.825 12.4282ZM20.6217 3.93821C20.832 3.93821 21.2973 4.40607 21.3083 4.58036C21.372 5.57429 18.0673 9.09714 15.8583 11.1979L15.4816 10.8468L15.2353 10.6164C16.8793 7.98857 19.6907 4.00607 20.6217 3.93821ZM14.422 11.6643L14.9293 11.0411L15.5063 11.5804L15 12.2032L14.422 11.6643ZM18.6287 19.8514C16.9466 20.7629 14.7153 21.2857 12.5056 21.2857H12.505C9.79161 21.2857 7.51227 20.5239 6.08626 19.1407C2.81158 15.9661 2.46191 12.8636 2.74491 10.8196C3.12691 8.06464 4.96092 5.48286 7.41793 4.24179C9.39561 3.2425 11.3773 2.71429 13.148 2.71429C15.2756 2.71429 16.9723 3.5025 17.6873 4.82286C17.8413 5.10679 17.9446 5.41036 18.0046 5.72821C16.512 7.615 14.996 10.0329 14.7063 10.4993L13.7806 11.6364C13.2946 11.6311 12.808 11.8586 12.658 12.4082C12.1053 14.4279 10.8743 15.6804 10.8743 15.6804C10.8743 15.6804 13.9946 15.0196 14.5916 14.2689C14.915 13.8625 15.0716 13.3768 15.068 12.9339L16.0373 11.7432C16.1666 11.6214 16.359 11.4382 16.596 11.2089C16.5946 11.4318 16.6233 11.6354 16.6913 11.8168C16.983 12.5925 17.786 12.8454 18.6363 13.1132C19.962 13.5311 21.333 13.9629 21.333 16.3093C21.3333 17.6486 20.3723 18.9064 18.6287 19.8514Z" fill="#474747"/>
<path d="M19.3731 14.7883C18.3898 13.9444 16.7944 13.9444 15.8111 14.7883C14.8278 15.6323 14.8281 17.0008 15.8111 17.8451C16.7941 18.6894 18.3895 18.6891 19.3731 17.8451C20.3568 17.0012 20.3565 15.6323 19.3731 14.7883ZM18.8888 17.4291C18.1731 18.0437 17.0111 18.0437 16.2958 17.4291C15.5801 16.8144 15.5801 15.8183 16.2958 15.2041C17.0111 14.5894 18.1731 14.5894 18.8888 15.2041C19.6045 15.8187 19.6045 16.8144 18.8888 17.4291Z" fill="#474747"/>
</svg>
