<svg width="26" height="26" viewBox="0 0 26 26" fill="none" xmlns="http://www.w3.org/2000/svg">
<g clip-path="url(#clip0_189_379)">
<path d="M11.2855 21.5589C11.1897 21.5589 11.093 21.5248 11.0158 21.4565L9.87828 20.4457C9.26241 19.8916 8.78141 19.1945 8.48566 18.4275L6.84928 13.91C6.63884 13.3274 6.90372 12.6912 7.46597 12.4288C8.34266 12.0266 9.41109 12.4004 9.85147 13.2527L11.0954 15.7544C11.2742 15.4944 11.3749 15.1832 11.3749 14.8606V5.28125C11.3749 4.38506 12.1037 3.65625 12.9999 3.65625C13.8961 3.65625 14.6249 4.38506 14.6249 5.28125V10.3748C14.8638 10.2359 15.1417 10.1562 15.4374 10.1562C16.0273 10.1562 16.5448 10.4723 16.83 10.9444C17.1128 10.7063 17.4776 10.5625 17.8749 10.5625C18.5826 10.5625 19.1863 11.0175 19.4089 11.6504C19.6673 11.4766 19.9785 11.375 20.3124 11.375C21.2086 11.375 21.9374 12.1038 21.9374 13V19.5731C21.9374 20.1996 21.7522 20.8089 21.4028 21.3346C21.2785 21.5207 21.025 21.5711 20.8397 21.4476C20.6528 21.3241 20.6025 21.0714 20.7268 20.8845C20.9868 20.4937 21.1249 20.0403 21.1249 19.5739V13C21.1249 12.5515 20.7601 12.1875 20.3124 12.1875C19.8647 12.1875 19.4999 12.5515 19.4999 13C19.4999 13.2242 19.3179 13.4062 19.0937 13.4062C18.8694 13.4062 18.6874 13.2242 18.6874 13V12.1875C18.6874 11.739 18.3226 11.375 17.8749 11.375C17.4272 11.375 17.0624 11.739 17.0624 12.1875C17.0624 12.4117 16.8804 12.5938 16.6562 12.5938C16.4319 12.5938 16.2499 12.4117 16.2499 12.1875V11.7812C16.2499 11.3327 15.8851 10.9688 15.4374 10.9688C14.9897 10.9688 14.6249 11.3327 14.6249 11.7812C14.6249 12.0055 14.4429 12.1875 14.2187 12.1875C13.9944 12.1875 13.8124 12.0055 13.8124 11.7812V5.28125C13.8124 4.83275 13.4476 4.46875 12.9999 4.46875C12.5522 4.46875 12.1874 4.83275 12.1874 5.28125V14.8606C12.1874 15.6114 11.8283 16.3256 11.227 16.7716C11.1303 16.8439 11.0068 16.8675 10.8898 16.8407C10.7728 16.8122 10.6745 16.7342 10.6209 16.6262L9.12591 13.6199C8.88297 13.1519 8.29228 12.9439 7.80641 13.1658C7.63334 13.247 7.54722 13.4534 7.61303 13.6338L9.24616 18.1431C9.49722 18.7923 9.89291 19.3659 10.4194 19.8396L11.5545 20.8487C11.7227 20.9982 11.7373 21.255 11.5886 21.4224C11.509 21.5134 11.3977 21.5589 11.2855 21.5589ZM21.5312 25.1875C21.3069 25.1875 21.1249 25.0055 21.1249 24.7812V22.75H11.3749V24.7812C11.3749 25.0055 11.1929 25.1875 10.9687 25.1875C10.7444 25.1875 10.5624 25.0055 10.5624 24.7812V22.3438C10.5624 22.1195 10.7444 21.9375 10.9687 21.9375H21.5312C21.7554 21.9375 21.9374 22.1195 21.9374 22.3438V24.7812C21.9374 25.0055 21.7554 25.1875 21.5312 25.1875Z" fill="#787D7E"/>
<path d="M4.88478 8.92777C2.65041 8.92777 0.832031 7.1102 0.832031 4.87502C0.832031 2.63983 2.65041 0.822266 4.88478 0.822266C5.57541 0.822266 6.25791 1.0002 6.85916 1.33577C7.05497 1.44464 7.12566 1.69245 7.01597 1.88827C6.90628 2.08408 6.65847 2.15314 6.46347 2.04427C5.98247 1.77614 5.43728 1.63395 4.88559 1.63395C3.09809 1.63477 1.64453 3.08833 1.64453 4.87502C1.64453 6.6617 3.09809 8.11527 4.88478 8.11527C6.67147 8.11527 8.12503 6.6617 8.12503 4.87502C8.12503 4.76289 8.11934 4.6532 8.10797 4.54433C8.08522 4.3217 8.24691 4.12102 8.47034 4.09827C8.69297 4.07145 8.89366 4.2372 8.91641 4.45983C8.93022 4.59552 8.93753 4.73445 8.93753 4.87502C8.93753 7.1102 7.11997 8.92777 4.88478 8.92777Z" fill="#787D7E"/>
<path d="M4.8848 6.20994C4.7808 6.20994 4.6768 6.17013 4.59717 6.09131L2.91448 4.40781C2.75604 4.24938 2.75604 3.99181 2.91448 3.83337C3.07292 3.67494 3.33048 3.67494 3.48892 3.83337L4.8848 5.22925L8.09173 2.02231C8.25017 1.86388 8.50773 1.86388 8.66617 2.02231C8.82461 2.18075 8.82461 2.43831 8.66617 2.59675L5.17242 6.0905C5.0928 6.17013 4.9888 6.20994 4.8848 6.20994ZM21.125 8.9375C18.885 8.9375 17.0625 7.11506 17.0625 4.875C17.0625 2.63494 18.885 0.8125 21.125 0.8125C23.3651 0.8125 25.1875 2.63494 25.1875 4.875C25.1875 7.11506 23.3651 8.9375 21.125 8.9375ZM21.125 1.625C19.3327 1.625 17.875 3.08262 17.875 4.875C17.875 6.66738 19.3327 8.125 21.125 8.125C22.9174 8.125 24.375 6.66738 24.375 4.875C24.375 3.08262 22.9174 1.625 21.125 1.625Z" fill="#787D7E"/>
<path d="M22.3437 6.49988C22.2397 6.49988 22.1357 6.46007 22.0561 6.38125L19.6186 3.94375C19.4601 3.78532 19.4601 3.52775 19.6186 3.36932C19.777 3.21088 20.0346 3.21088 20.193 3.36932L22.6305 5.80682C22.789 5.96525 22.789 6.22282 22.6305 6.38125C22.5517 6.46007 22.4477 6.49988 22.3437 6.49988Z" fill="#787D7E"/>
<path d="M19.9062 6.49988C19.8022 6.49988 19.6982 6.46007 19.6186 6.38125C19.4601 6.22282 19.4601 5.96525 19.6186 5.80682L22.0561 3.36932C22.2145 3.21088 22.4721 3.21088 22.6305 3.36932C22.789 3.52775 22.789 3.78532 22.6305 3.94375L20.193 6.38125C20.1142 6.46007 20.0102 6.49988 19.9062 6.49988Z" fill="#787D7E"/>
<path d="M11.2858 21.5589C11.1899 21.5589 11.0932 21.5248 11.016 21.4565L9.87852 20.4457C9.26265 19.8916 8.78165 19.1945 8.4859 18.4275L6.84953 13.91C6.63909 13.3274 6.90396 12.6912 7.46621 12.4288C8.3429 12.0266 9.41134 12.4004 9.85171 13.2527L11.0957 15.7544C11.2744 15.4944 11.3751 15.1832 11.3751 14.8606V5.28125C11.3751 4.38506 12.104 3.65625 13.0001 3.65625C13.8963 3.65625 14.6251 4.38506 14.6251 5.28125V10.3748C14.864 10.2359 15.1419 10.1562 15.4376 10.1562C16.0275 10.1562 16.5451 10.4723 16.8303 10.9444C17.113 10.7063 17.4778 10.5625 17.8751 10.5625C18.5828 10.5625 19.1865 11.0175 19.4092 11.6504C19.6675 11.4766 19.9787 11.375 20.3127 11.375C21.2088 11.375 21.9377 12.1038 21.9377 13V19.5731C21.9377 20.1996 21.7524 20.8089 21.403 21.3346C21.2787 21.5207 21.0252 21.5711 20.84 21.4476C20.6531 21.3241 20.6027 21.0714 20.727 20.8845C20.987 20.4937 21.1252 20.0403 21.1252 19.5739V13C21.1252 12.5515 20.7603 12.1875 20.3127 12.1875C19.865 12.1875 19.5001 12.5515 19.5001 13C19.5001 13.2242 19.3181 13.4062 19.0939 13.4062C18.8696 13.4062 18.6876 13.2242 18.6876 13V12.1875C18.6876 11.739 18.3228 11.375 17.8751 11.375C17.4275 11.375 17.0626 11.739 17.0626 12.1875C17.0626 12.4117 16.8806 12.5938 16.6564 12.5938C16.4321 12.5938 16.2501 12.4117 16.2501 12.1875V11.7812C16.2501 11.3327 15.8853 10.9688 15.4376 10.9688C14.99 10.9688 14.6251 11.3327 14.6251 11.7812C14.6251 12.0055 14.4432 12.1875 14.2189 12.1875C13.9946 12.1875 13.8126 12.0055 13.8126 11.7812V5.28125C13.8126 4.83275 13.4478 4.46875 13.0001 4.46875C12.5525 4.46875 12.1876 4.83275 12.1876 5.28125V14.8606C12.1876 15.6114 11.8285 16.3256 11.2273 16.7716C11.1306 16.8439 11.0071 16.8675 10.8901 16.8407C10.7731 16.8122 10.6748 16.7342 10.6211 16.6262L9.12615 13.6199C8.88321 13.1519 8.29252 12.9439 7.80665 13.1658C7.63359 13.247 7.54746 13.4534 7.61327 13.6338L9.2464 18.1431C9.49746 18.7923 9.89315 19.3659 10.4197 19.8396L11.5547 20.8487C11.7229 20.9982 11.7375 21.255 11.5888 21.4224C11.5092 21.5134 11.3979 21.5589 11.2858 21.5589ZM21.5314 25.1875C21.3072 25.1875 21.1252 25.0055 21.1252 24.7812V22.75H11.3751V24.7812C11.3751 25.0055 11.1932 25.1875 10.9689 25.1875C10.7446 25.1875 10.5626 25.0055 10.5626 24.7812V22.3438C10.5626 22.1195 10.7446 21.9375 10.9689 21.9375H21.5314C21.7557 21.9375 21.9377 22.1195 21.9377 22.3438V24.7812C21.9377 25.0055 21.7557 25.1875 21.5314 25.1875Z" fill="#787D7E"/>
<path d="M4.88478 8.92777C2.65041 8.92777 0.832031 7.1102 0.832031 4.87502C0.832031 2.63983 2.65041 0.822266 4.88478 0.822266C5.57541 0.822266 6.25791 1.0002 6.85916 1.33577C7.05497 1.44464 7.12566 1.69245 7.01597 1.88827C6.90628 2.08408 6.65847 2.15314 6.46347 2.04427C5.98247 1.77614 5.43728 1.63395 4.88559 1.63395C3.09809 1.63477 1.64453 3.08833 1.64453 4.87502C1.64453 6.6617 3.09809 8.11527 4.88478 8.11527C6.67147 8.11527 8.12503 6.6617 8.12503 4.87502C8.12503 4.76289 8.11934 4.6532 8.10797 4.54433C8.08522 4.3217 8.24691 4.12102 8.47034 4.09827C8.69297 4.07145 8.89366 4.2372 8.91641 4.45983C8.93022 4.59552 8.93753 4.73445 8.93753 4.87502C8.93753 7.1102 7.11997 8.92777 4.88478 8.92777Z" fill="#787D7E"/>
<path d="M4.8848 6.20994C4.7808 6.20994 4.6768 6.17013 4.59717 6.09131L2.91448 4.40781C2.75604 4.24938 2.75604 3.99181 2.91448 3.83337C3.07292 3.67494 3.33048 3.67494 3.48892 3.83337L4.8848 5.22925L8.09173 2.02231C8.25017 1.86388 8.50773 1.86388 8.66617 2.02231C8.82461 2.18075 8.82461 2.43831 8.66617 2.59675L5.17242 6.0905C5.0928 6.17013 4.9888 6.20994 4.8848 6.20994ZM21.125 8.9375C18.885 8.9375 17.0625 7.11506 17.0625 4.875C17.0625 2.63494 18.885 0.8125 21.125 0.8125C23.3651 0.8125 25.1875 2.63494 25.1875 4.875C25.1875 7.11506 23.3651 8.9375 21.125 8.9375ZM21.125 1.625C19.3327 1.625 17.875 3.08262 17.875 4.875C17.875 6.66738 19.3327 8.125 21.125 8.125C22.9174 8.125 24.375 6.66738 24.375 4.875C24.375 3.08262 22.9174 1.625 21.125 1.625Z" fill="#787D7E"/>
<path d="M22.3437 6.49988C22.2397 6.49988 22.1357 6.46007 22.0561 6.38125L19.6186 3.94375C19.4601 3.78532 19.4601 3.52775 19.6186 3.36932C19.777 3.21088 20.0346 3.21088 20.193 3.36932L22.6305 5.80682C22.789 5.96525 22.789 6.22282 22.6305 6.38125C22.5517 6.46007 22.4477 6.49988 22.3437 6.49988Z" fill="#787D7E"/>
<path d="M19.9062 6.49988C19.8022 6.49988 19.6982 6.46007 19.6186 6.38125C19.4601 6.22282 19.4601 5.96525 19.6186 5.80682L22.0561 3.36932C22.2145 3.21088 22.4721 3.21088 22.6305 3.36932C22.789 3.52775 22.789 3.78532 22.6305 3.94375L20.193 6.38125C20.1142 6.46007 20.0102 6.49988 19.9062 6.49988Z" fill="#787D7E"/>
</g>
<defs>
<clipPath id="clip0_189_379">
<rect width="26" height="26" fill="white"/>
</clipPath>
</defs>
</svg>
