<svg width="18" height="18" viewBox="0 0 18 18" fill="none" xmlns="http://www.w3.org/2000/svg">
<path fill-rule="evenodd" clip-rule="evenodd" d="M16.8741 8.99998C16.8741 8.85079 16.8148 8.70772 16.7093 8.60223C16.6038 8.49674 16.4607 8.43748 16.3116 8.43748H3.04443L6.5848 4.89823C6.6371 4.84593 6.67859 4.78384 6.70689 4.71551C6.7352 4.64718 6.74976 4.57394 6.74976 4.49998C6.74976 4.42602 6.7352 4.35278 6.70689 4.28445C6.67859 4.21611 6.6371 4.15403 6.5848 4.10173C6.5325 4.04943 6.47042 4.00794 6.40208 3.97964C6.33375 3.95134 6.26051 3.93677 6.18655 3.93677C6.11259 3.93677 6.03935 3.95134 5.97102 3.97964C5.90269 4.00794 5.8406 4.04943 5.7883 4.10173L1.2883 8.60173C1.23592 8.65398 1.19436 8.71605 1.166 8.78439C1.13764 8.85273 1.12305 8.92599 1.12305 8.99998C1.12305 9.07397 1.13764 9.14723 1.166 9.21557C1.19436 9.2839 1.23592 9.34598 1.2883 9.39823L5.7883 13.8982C5.8406 13.9505 5.90269 13.992 5.97102 14.0203C6.03935 14.0486 6.11259 14.0632 6.18655 14.0632C6.26051 14.0632 6.33375 14.0486 6.40208 14.0203C6.47042 13.992 6.5325 13.9505 6.5848 13.8982C6.6371 13.8459 6.67859 13.7838 6.70689 13.7155C6.7352 13.6472 6.74976 13.5739 6.74976 13.5C6.74976 13.426 6.7352 13.3528 6.70689 13.2844C6.67859 13.2161 6.6371 13.154 6.5848 13.1017L3.04443 9.56248H16.3116C16.4607 9.56248 16.6038 9.50321 16.7093 9.39773C16.8148 9.29224 16.8741 9.14916 16.8741 8.99998Z" fill="#696969"/>
</svg>
