<svg width="54" height="54" viewBox="0 0 54 54" fill="none" xmlns="http://www.w3.org/2000/svg">
<path d="M6.75 11.8124C6.30245 11.8124 5.87322 11.9902 5.55676 12.3067C5.24029 12.6232 5.0625 13.0524 5.0625 13.4999C5.0625 13.9475 5.24029 14.3767 5.55676 14.6932C5.87322 15.0097 6.30245 15.1875 6.75 15.1875H10.4962L14.9242 32.9062C15.3006 34.4081 16.6455 35.4375 18.1929 35.4375H39.2361C40.7599 35.4375 42.0542 34.425 42.4541 32.9568L46.8281 16.875H43.2945L39.2344 32.0625H18.1912L13.7649 14.3437C13.5821 13.6168 13.1606 12.9722 12.568 12.5133C11.9753 12.0544 11.2458 11.8076 10.4962 11.8124H6.75ZM37.125 35.4375C34.3491 35.4375 32.0625 37.724 32.0625 40.5C32.0625 43.2759 34.3491 45.5625 37.125 45.5625C39.9009 45.5625 42.1875 43.2759 42.1875 40.5C42.1875 37.724 39.9009 35.4375 37.125 35.4375ZM21.9375 35.4375C19.1616 35.4375 16.875 37.724 16.875 40.5C16.875 43.2759 19.1616 45.5625 21.9375 45.5625C24.7134 45.5625 27 43.2759 27 40.5C27 37.724 24.7134 35.4375 21.9375 35.4375ZM27 11.8124V20.25H21.9375L28.6875 27L35.4375 20.25H30.375V11.8124H27ZM21.9375 38.8125C22.8892 38.8125 23.625 39.5482 23.625 40.5C23.625 41.4517 22.8892 42.1875 21.9375 42.1875C20.9858 42.1875 20.25 41.4517 20.25 40.5C20.25 39.5482 20.9858 38.8125 21.9375 38.8125ZM37.125 38.8125C38.0768 38.8125 38.8125 39.5482 38.8125 40.5C38.8125 41.4517 38.0768 42.1875 37.125 42.1875C36.1733 42.1875 35.4375 41.4517 35.4375 40.5C35.4375 39.5482 36.1733 38.8125 37.125 38.8125Z" fill="#F7F7F7"/>
</svg>
