<svg width="30" height="30" viewBox="0 0 30 30" fill="none" xmlns="http://www.w3.org/2000/svg">
<g clip-path="url(#clip0_600_370)">
<path d="M29.3299 29.7422H7.0502C6.67988 29.7422 6.37988 29.4422 6.37988 29.0719V6.7875C6.37988 6.41719 6.67988 6.11719 7.0502 6.11719H29.3299C29.7002 6.11719 30.0002 6.41719 30.0002 6.7875V29.0672C30.0002 29.4422 29.7002 29.7422 29.3299 29.7422ZM7.72051 28.3969H28.6596V7.4625H7.72051V28.3969Z" fill="#265277"/>
<path d="M12.1545 17.0906C11.9764 17.0906 11.803 17.0203 11.6764 16.889L9.22953 14.3859C8.97172 14.1187 8.9764 13.6969 9.2389 13.4344C9.50609 13.1765 9.92797 13.1812 10.1905 13.4437L12.1217 15.4172L16.3686 10.35C16.6077 10.064 17.0295 10.0265 17.3155 10.2656C17.6014 10.5047 17.6389 10.9265 17.3998 11.2125L12.6702 16.8515C12.5483 16.9969 12.3702 17.0859 12.1827 17.0906C12.1686 17.0906 12.1639 17.0906 12.1545 17.0906ZM26.6717 15.3609H18.2436C17.8733 15.3609 17.5733 15.0609 17.5733 14.6906C17.5733 14.3203 17.8733 14.0203 18.2436 14.0203H26.6717C27.042 14.0203 27.342 14.3203 27.342 14.6906C27.342 15.0609 27.042 15.3609 26.6717 15.3609ZM12.1545 25.7437C11.9764 25.7437 11.803 25.6734 11.6764 25.5422L9.22953 23.039C8.97172 22.7719 8.9764 22.35 9.2389 22.0875C9.50609 21.8297 9.92797 21.8344 10.1905 22.0969L12.1217 24.0703L16.3686 19.0031C16.6077 18.7219 17.0295 18.6797 17.3155 18.9187C17.6014 19.1578 17.6389 19.5797 17.3998 19.8656L12.6702 25.5047C12.5483 25.65 12.3702 25.739 12.1827 25.7437C12.1686 25.7437 12.1639 25.7437 12.1545 25.7437ZM26.6717 24.014H18.2436C17.8733 24.014 17.5733 23.714 17.5733 23.3437C17.5733 22.9734 17.8733 22.6734 18.2436 22.6734H26.6717C27.042 22.6734 27.342 22.9734 27.342 23.3437C27.342 23.714 27.042 24.014 26.6717 24.014Z" fill="#265277"/>
<path d="M4.77188 14.2735H0.670312C0.3 14.2735 0 13.9735 0 13.6031V0.932825C0 0.562512 0.3 0.262512 0.670312 0.262512H13.8797C14.25 0.262512 14.55 0.562512 14.55 0.932825V4.57501C14.55 4.94532 14.25 5.24532 13.8797 5.24532C13.5094 5.24532 13.2094 4.94532 13.2094 4.57501V1.60314H1.34531V12.9328H4.77188C5.14219 12.9328 5.44219 13.2328 5.44219 13.6031C5.44219 13.9735 5.14219 14.2735 4.77188 14.2735Z" fill="#265277"/>
</g>
<defs>
<clipPath id="clip0_600_370">
<rect width="30" height="30" fill="white"/>
</clipPath>
</defs>
</svg>
