<svg width="94" height="94" viewBox="0 0 94 94" fill="none" xmlns="http://www.w3.org/2000/svg">
<path d="M65.4403 39.9814C65.8045 39.6172 66.0933 39.1849 66.2904 38.7091C66.4875 38.2333 66.5889 37.7234 66.5889 37.2084C66.5889 36.6934 66.4875 36.1834 66.2904 35.7076C66.0933 35.2318 65.8045 34.7995 65.4403 34.4354C65.0762 34.0712 64.6438 33.7824 64.1681 33.5853C63.6923 33.3882 63.1823 33.2868 62.6673 33.2868C62.1523 33.2868 61.6424 33.3882 61.1666 33.5853C60.6908 33.7824 60.2585 34.0712 59.8943 34.4354L43.084 51.2535L34.107 42.2687C33.7428 41.9046 33.3105 41.6157 32.8347 41.4186C32.3589 41.2215 31.849 41.1201 31.334 41.1201C30.819 41.1201 30.309 41.2215 29.8332 41.4186C29.3575 41.6157 28.9251 41.9046 28.561 42.2687C28.1968 42.6329 27.908 43.0652 27.7109 43.541C27.5138 44.0168 27.4124 44.5267 27.4124 45.0417C27.4124 45.5567 27.5138 46.0667 27.7109 46.5424C27.908 47.0182 28.1968 47.4506 28.561 47.8147L40.311 59.5647C40.6748 59.9295 41.107 60.2188 41.5829 60.4163C42.0587 60.6137 42.5688 60.7154 43.084 60.7154C43.5992 60.7154 44.1093 60.6137 44.5851 60.4163C45.061 60.2188 45.4932 59.9295 45.857 59.5647L65.4403 39.9814ZM47.0007 7.83337C36.613 7.83337 26.6508 11.9599 19.3056 19.305C11.9605 26.6502 7.83398 36.6124 7.83398 47C7.83398 57.3877 11.9605 67.3499 19.3056 74.6951C26.6508 82.0402 36.613 86.1667 47.0007 86.1667C57.3883 86.1667 67.3505 82.0402 74.6957 74.6951C82.0408 67.3499 86.1673 57.3877 86.1673 47C86.1673 36.6124 82.0408 26.6502 74.6957 19.305C67.3505 11.9599 57.3883 7.83337 47.0007 7.83337ZM15.6673 47C15.6673 38.6899 18.9685 30.7202 24.8446 24.844C30.7208 18.9679 38.6905 15.6667 47.0007 15.6667C55.3108 15.6667 63.2805 18.9679 69.1567 24.844C75.0328 30.7202 78.334 38.6899 78.334 47C78.334 55.3102 75.0328 63.2799 69.1567 69.1561C63.2805 75.0322 55.3108 78.3334 47.0007 78.3334C38.6905 78.3334 30.7208 75.0322 24.8446 69.1561C18.9685 63.2799 15.6673 55.3102 15.6673 47Z" fill="#2E5EA3"/>
</svg>
