<svg width="24" height="24" viewBox="0 0 24 24" fill="none" xmlns="http://www.w3.org/2000/svg">
<path d="M16.7426 6.56678H3.84488C3.73393 6.56678 3.62407 6.59161 3.52156 6.63986C3.41906 6.6881 3.32592 6.75881 3.24746 6.84796C3.16901 6.9371 3.10677 7.04293 3.06431 7.1594C3.02185 7.27588 3 7.40071 3 7.52678V19.7593C3 20.0139 3.08901 20.2581 3.24746 20.4381C3.40591 20.6181 3.62081 20.7193 3.84488 20.7193H20.1551C20.3792 20.7193 20.5941 20.6181 20.7525 20.4381C20.911 20.2581 21 20.0139 21 19.7593V7.52303C21 7.39714 20.9781 7.27248 20.9356 7.15622C20.8931 7.03996 20.8308 6.93437 20.7523 6.84553C20.6738 6.75668 20.5807 6.68633 20.4782 6.63849C20.3757 6.59066 20.2659 6.56629 20.1551 6.56678" stroke="#474747" stroke-linecap="round" stroke-linejoin="round"/>
<path d="M3.20703 20.3894L8.16743 12.4731L12.8242 20.7194L17.075 15.8481L20.7582 20.4269M16.8143 11.8506L15.3522 12.4319C15.26 12.469 15.1611 12.48 15.0642 12.4641C14.9674 12.4482 14.8753 12.4057 14.7961 12.3404C14.7169 12.2751 14.6528 12.1889 14.6094 12.0892C14.566 11.9895 14.5446 11.8793 14.547 11.7681L14.5635 10.0094L17.9397 4.6656C18.0449 4.49655 18.1784 4.35273 18.3326 4.24237C18.4868 4.13201 18.6586 4.05727 18.8383 4.02244C19.0179 3.98761 19.2018 3.99337 19.3795 4.03938C19.5572 4.0854 19.7251 4.17077 19.8737 4.2906C20.0224 4.40981 20.1489 4.56119 20.246 4.73606C20.343 4.91092 20.4088 5.10584 20.4395 5.30964C20.4701 5.51344 20.4651 5.72211 20.4246 5.92369C20.3842 6.12527 20.3091 6.3158 20.2037 6.48435L16.8143 11.8506Z" stroke="#474747" stroke-linecap="round" stroke-linejoin="round"/>
<path d="M11.216 13.0018C12.2804 13.0018 13.1434 12.0213 13.1434 10.8118C13.1434 9.60232 12.2804 8.62183 11.216 8.62183C10.1515 8.62183 9.28857 9.60232 9.28857 10.8118C9.28857 12.0213 10.1515 13.0018 11.216 13.0018Z" fill="#474747"/>
<path d="M15.1646 9.06433L17.3692 10.9693" stroke="#474747" stroke-linecap="round" stroke-linejoin="round"/>
</svg>
