<svg width="30" height="30" viewBox="0 0 30 30" fill="none" xmlns="http://www.w3.org/2000/svg">
<g clip-path="url(#clip0_600_355)">
<path d="M15 5H6.25C4.175 5 2.5 6.675 2.5 8.75V18.75C2.5 20.825 4.175 22.5 6.25 22.5L5.2875 23.4625C4.9375 23.8125 4.9375 24.3625 5.2875 24.7125C5.6375 25.0625 6.1875 25.0625 6.5375 24.7125L8.75 22.5H11.25V16.25H5.625C5.275 16.25 5 15.975 5 15.625V8.125C5 7.775 5.275 7.5 5.625 7.5H15.625C15.975 7.5 16.25 7.775 16.25 8.125V10H18.75V8.75C18.75 6.675 17.075 5 15 5ZM6.25 17.5C6.9375 17.5 7.5 18.0625 7.5 18.75C7.5 19.4375 6.9375 20 6.25 20C5.5625 20 5 19.4375 5 18.75C5 18.0625 5.5625 17.5 6.25 17.5ZM25.7125 12.075C25.5375 11.575 25.0625 11.25 24.5 11.25H15.5125C14.9375 11.25 14.475 11.575 14.2875 12.075L12.5125 17.2125V23.7625C12.5125 24.45 13.075 25 13.7625 25C14.45 25 15.0125 24.4375 15.0125 23.75V22.5H25.0125V23.75C25.0125 24.4375 25.575 25 26.2625 25C26.95 25 27.5 24.45 27.5125 23.7625L27.5 17.2125L25.7125 12.075ZM15.9625 12.5H24.0625C24.325 12.5 24.5625 12.675 24.65 12.925L25.5125 15.425C25.65 15.825 25.35 16.25 24.925 16.25H15.1125C14.6875 16.25 14.3875 15.825 14.525 15.425L15.3875 12.925C15.45 12.675 15.6875 12.5 15.9625 12.5ZM15 20C14.3125 20 13.75 19.4375 13.75 18.75C13.75 18.0625 14.3125 17.5 15 17.5C15.6875 17.5 16.25 18.0625 16.25 18.75C16.25 19.4375 15.6875 20 15 20ZM25 20C24.3125 20 23.75 19.4375 23.75 18.75C23.75 18.0625 24.3125 17.5 25 17.5C25.6875 17.5 26.25 18.0625 26.25 18.75C26.25 19.4375 25.6875 20 25 20Z" fill="#265277"/>
</g>
<defs>
<clipPath id="clip0_600_355">
<rect width="30" height="30" fill="white"/>
</clipPath>
</defs>
</svg>
