<svg width="80" height="80" viewBox="0 0 80 80" fill="none" xmlns="http://www.w3.org/2000/svg">
<path d="M70.4758 22.8571H28.5711M20.952 22.8571H9.52344M70.4758 60.9523H28.5711M20.952 60.9523H9.52344M51.4282 41.9047H9.52344M70.4758 41.9047H59.0472M24.7615 15.238C25.7719 15.238 26.7408 15.6394 27.4553 16.3538C28.1697 17.0682 28.5711 18.0372 28.5711 19.0476V26.6666C28.5711 27.677 28.1697 28.6459 27.4553 29.3603C26.7408 30.0748 25.7719 30.4761 24.7615 30.4761C23.7512 30.4761 22.7822 30.0748 22.0678 29.3603C21.3534 28.6459 20.952 27.677 20.952 26.6666V19.0476C20.952 18.0372 21.3534 17.0682 22.0678 16.3538C22.7822 15.6394 23.7512 15.238 24.7615 15.238ZM24.7615 53.3333C25.7719 53.3333 26.7408 53.7346 27.4553 54.4491C28.1697 55.1635 28.5711 56.1325 28.5711 57.1428V64.7618C28.5711 65.7722 28.1697 66.7412 27.4553 67.4556C26.7408 68.17 25.7719 68.5714 24.7615 68.5714C23.7512 68.5714 22.7822 68.17 22.0678 67.4556C21.3534 66.7412 20.952 65.7722 20.952 64.7618V57.1428C20.952 56.1325 21.3534 55.1635 22.0678 54.4491C22.7822 53.7346 23.7512 53.3333 24.7615 53.3333ZM55.2377 34.2857C56.2481 34.2857 57.217 34.687 57.9315 35.4014C58.6459 36.1159 59.0472 37.0848 59.0472 38.0952V45.7142C59.0472 46.7246 58.6459 47.6935 57.9315 48.408C57.217 49.1224 56.2481 49.5238 55.2377 49.5238C54.2274 49.5238 53.2584 49.1224 52.544 48.408C51.8296 47.6935 51.4282 46.7246 51.4282 45.7142V38.0952C51.4282 37.0848 51.8296 36.1159 52.544 35.4014C53.2584 34.687 54.2274 34.2857 55.2377 34.2857Z" stroke="#8C8C8C" stroke-width="3" stroke-linecap="round" stroke-linejoin="round"/>
</svg>
