<svg width="26" height="26" viewBox="0 0 26 26" fill="none" xmlns="http://www.w3.org/2000/svg">
<path d="M17.3333 5.41659C17.3333 5.12927 17.4474 4.85372 17.6506 4.65055C17.8537 4.44739 18.1293 4.33325 18.4166 4.33325H20.5833C20.8706 4.33325 21.1461 4.44739 21.3493 4.65055C21.5525 4.85372 21.6666 5.12927 21.6666 5.41659V9.74992C21.6666 10.0372 21.5525 10.3128 21.3493 10.516C21.1461 10.7191 20.8706 10.8333 20.5833 10.8333H18.4166C18.1293 10.8333 17.8537 10.7191 17.6506 10.516C17.4474 10.3128 17.3333 10.0372 17.3333 9.74992V5.41659ZM4.33325 16.2499C4.33325 15.9626 4.44739 15.6871 4.65055 15.4839C4.85372 15.2807 5.12927 15.1666 5.41659 15.1666H7.58325C7.87057 15.1666 8.14612 15.2807 8.34928 15.4839C8.55245 15.6871 8.66659 15.9626 8.66659 16.2499V20.5833C8.66659 20.8706 8.55245 21.1461 8.34928 21.3493C8.14612 21.5525 7.87057 21.6666 7.58325 21.6666H5.41659C5.12927 21.6666 4.85372 21.5525 4.65055 21.3493C4.44739 21.1461 4.33325 20.8706 4.33325 20.5833V16.2499ZM4.33325 5.41659C4.33325 5.12927 4.44739 4.85372 4.65055 4.65055C4.85372 4.44739 5.12927 4.33325 5.41659 4.33325H11.9166C12.2039 4.33325 12.4795 4.44739 12.6826 4.65055C12.8858 4.85372 12.9999 5.12927 12.9999 5.41659V9.74992C12.9999 10.0372 12.8858 10.3128 12.6826 10.516C12.4795 10.7191 12.2039 10.8333 11.9166 10.8333H5.41659C5.12927 10.8333 4.85372 10.7191 4.65055 10.516C4.44739 10.3128 4.33325 10.0372 4.33325 9.74992V5.41659ZM12.9999 16.2499C12.9999 15.9626 13.1141 15.6871 13.3172 15.4839C13.5204 15.2807 13.7959 15.1666 14.0833 15.1666H20.5833C20.8706 15.1666 21.1461 15.2807 21.3493 15.4839C21.5525 15.6871 21.6666 15.9626 21.6666 16.2499V20.5833C21.6666 20.8706 21.5525 21.1461 21.3493 21.3493C21.1461 21.5525 20.8706 21.6666 20.5833 21.6666H14.0833C13.7959 21.6666 13.5204 21.5525 13.3172 21.3493C13.1141 21.1461 12.9999 20.8706 12.9999 20.5833V16.2499Z" fill="white" stroke="white" stroke-width="2" stroke-linecap="round" stroke-linejoin="round"/>
</svg>
