<svg width="24" height="24" viewBox="0 0 24 24" fill="none" xmlns="http://www.w3.org/2000/svg">
<path d="M21 7C21 9.21 16.97 11 12 11C7.03 11 3 9.21 3 7M21 7C21 4.79 16.97 3 12 3C7.03 3 3 4.79 3 7M21 7V12M3 7V12M3 12C3 14.21 7.03 16 12 16M3 12V17C3 19.21 7.03 21 12 21" stroke="#A0A9AB" stroke-width="2" stroke-linecap="round" stroke-linejoin="round"/>
<path d="M20.1259 15.8833L17.9999 18M17.9999 18L15.8739 20.1166M17.9999 18L20.1165 20.126M17.9999 18L15.8833 15.874" stroke="#A0A9AB" stroke-width="2" stroke-linecap="round" stroke-linejoin="round"/>
</svg>
