<svg width="16" height="16" viewBox="0 0 16 16" fill="none" xmlns="http://www.w3.org/2000/svg">
<path d="M12.4408 5.20402L10.7968 3.56002C10.5822 3.35848 10.301 3.24284 10.0068 3.2351C9.71249 3.22735 9.42563 3.32805 9.20076 3.51802L3.80076 8.91803C3.60682 9.1136 3.48607 9.36995 3.45876 9.64403L3.20076 12.146C3.19268 12.2339 3.20408 12.3225 3.23416 12.4055C3.26424 12.4884 3.31225 12.5637 3.37476 12.626C3.43083 12.6816 3.49732 12.7256 3.57042 12.7555C3.64352 12.7853 3.7218 12.8005 3.80076 12.8H3.85476L6.35676 12.572C6.63084 12.5447 6.88719 12.424 7.08276 12.23L12.4828 6.83003C12.6924 6.60861 12.8056 6.31313 12.7978 6.00835C12.7899 5.70356 12.6615 5.41433 12.4408 5.20402ZM10.4008 7.20803L8.79276 5.60002L9.96277 4.40002L11.6008 6.03802L10.4008 7.20803Z" fill="#00223C"/>
</svg>
