<svg width="24" height="24" viewBox="0 0 24 24" fill="none" xmlns="http://www.w3.org/2000/svg">
<path d="M11.2638 10.1167C11.349 10.1439 11.4373 10.1638 11.5264 10.1763C11.6684 10.2108 11.8128 10.2351 11.9587 10.2498C12.0281 10.5699 12.2082 10.8582 12.4698 11.0683C12.7314 11.2783 13.0593 11.3978 13.4006 11.4075C13.7418 11.4172 14.0765 11.3165 14.3507 11.1216C14.6248 10.9268 14.8224 10.6492 14.9116 10.3336C15.0789 9.75573 15.1649 9.15873 15.1672 8.5588C15.5336 8.08283 15.835 7.56398 16.064 7.01485L16.074 6.99279L16.1561 6.80164L16.2613 6.54725C16.3737 6.26857 16.4799 5.98766 16.58 5.7047L16.6007 5.64588L16.6084 5.62236C16.6606 5.47531 16.7128 5.3121 16.7619 5.14741C16.7911 5.05257 16.8187 4.95625 16.8456 4.8592C16.9718 4.42887 17.0546 3.98792 17.0928 3.54244V3.52038C17.1061 3.15574 16.9774 2.79939 16.7316 2.52057C16.4859 2.24176 16.1406 2.06039 15.763 2.01172C15.4644 1.97502 15.1611 2.02496 14.8924 2.15509C14.6564 2.26951 14.4553 2.44037 14.3085 2.6511C14.1617 2.86184 14.0743 3.1053 14.0547 3.3579V3.36525C13.9949 3.81482 13.8842 4.25684 13.7246 4.68349C13.6478 4.90405 13.571 5.11359 13.4942 5.30107C13.3407 5.22534 13.1794 5.16138 13.0151 5.10991L13.0005 5.1033C12.3092 4.89282 11.5591 4.95167 10.9127 5.26709C10.2663 5.58252 9.77581 6.12912 9.54737 6.78846C9.31893 7.4478 9.37099 8.16678 9.69227 8.78962C10.0136 9.41246 10.5782 9.889 11.2638 10.116V10.1167ZM14.1706 10.1395C14.1298 10.2847 14.0424 10.4139 13.9209 10.5091C13.7994 10.6042 13.6497 10.6605 13.493 10.67C13.3364 10.6795 13.1805 10.6417 13.0474 10.562C12.9143 10.4823 12.8106 10.3646 12.751 10.2255C12.8969 10.2005 13.0405 10.1652 13.1802 10.1197C13.6026 9.97575 13.9911 9.75338 14.3234 9.46532C14.285 9.69323 14.2344 9.91747 14.1706 10.1395ZM10.2473 7.0075C10.3294 6.77043 10.4595 6.55117 10.6301 6.36226C10.8007 6.17335 11.0086 6.01848 11.2417 5.9065C11.4749 5.79453 11.7288 5.72765 11.9889 5.70967C12.2491 5.6917 12.5104 5.72299 12.7579 5.80175L12.781 5.8091C12.9307 5.85468 13.075 5.91497 13.2117 5.98849L13.1956 6.02452V6.03334C13.0239 6.41592 12.7907 6.77042 12.5046 7.08396L12.4923 7.09572L12.4731 7.11705C12.4486 7.14471 12.423 7.17145 12.3963 7.19718C12.3709 7.18727 12.3453 7.17796 12.3195 7.16925L12.2965 7.16189C12.1743 7.12321 12.0411 7.13243 11.926 7.18754C11.8109 7.24265 11.7233 7.33917 11.6823 7.45598C11.6593 7.51291 11.6494 7.57393 11.6534 7.63485C11.6574 7.69577 11.6751 7.75514 11.7053 7.80888C11.7514 7.90299 11.8297 7.97872 11.9272 8.02356C11.9533 8.02945 11.9786 8.03606 12.004 8.04415C12.0731 8.06768 12.1452 8.08312 12.2182 8.089C12.335 8.09561 12.4515 8.0701 12.5537 8.01548C12.6074 7.98901 12.6589 7.95886 12.7072 7.92431C12.8362 7.82726 12.9545 7.71845 13.0589 7.59714L13.0666 7.58979C13.4096 7.21966 13.6888 6.79947 13.8935 6.34507C13.9174 6.29293 13.9399 6.24022 13.961 6.187C13.962 6.18338 13.962 6.17959 13.961 6.17597L13.9687 6.15833C14.0114 6.06252 14.0529 5.9662 14.0931 5.86939L14.1192 5.80542L14.1453 5.74073C14.4708 4.99448 14.6981 4.21222 14.8233 3.4123C14.8379 3.22155 14.9296 3.04377 15.0789 2.91677C15.2277 2.79 15.4229 2.72496 15.6218 2.73591C15.7868 2.74473 15.9442 2.80649 16.0671 2.91236C16.153 2.98448 16.221 3.07404 16.2661 3.17452C16.3113 3.275 16.3325 3.38387 16.3281 3.49318C16.3204 3.61008 16.3059 3.73359 16.2859 3.86078C16.2245 4.22251 16.1385 4.58129 16.0279 4.93199L15.9957 5.03492C15.8562 5.47303 15.6987 5.90567 15.5235 6.33184L15.4981 6.3936C15.4547 6.49914 15.4101 6.60428 15.3645 6.709L15.353 6.73547L15.287 6.88839C15.017 7.48821 14.6507 8.04389 14.2014 8.53527C13.8417 8.97348 13.3514 9.29657 12.7955 9.46164C12.5348 9.52946 12.2627 9.54744 11.9947 9.51458C11.8853 9.50159 11.777 9.48095 11.6707 9.45282C11.6148 9.44819 11.5596 9.43708 11.5064 9.41973C11.2583 9.34057 11.0289 9.21537 10.8313 9.05129C10.6337 8.8872 10.4719 8.68744 10.3549 8.46343C10.238 8.23942 10.1683 7.99554 10.1498 7.74572C10.1314 7.49591 10.1645 7.24506 10.2473 7.0075ZM8.72168 3.45495C8.64131 3.50949 8.55033 3.54806 8.45413 3.56836C8.35793 3.58867 8.25845 3.5903 8.16158 3.57316C8.06471 3.55603 7.9724 3.52047 7.89013 3.46859C7.80785 3.41671 7.73727 3.34957 7.68255 3.27112C7.62784 3.19268 7.5901 3.10453 7.57156 3.01188C7.55303 2.91923 7.55408 2.82396 7.57466 2.73171C7.59523 2.63946 7.6349 2.55209 7.69134 2.47477C7.74777 2.39745 7.81982 2.33175 7.90323 2.28154C8.06574 2.18373 8.26168 2.15048 8.4494 2.18886C8.63712 2.22724 8.80179 2.33424 8.9084 2.48708C9.01502 2.63993 9.05516 2.82657 9.02029 3.00732C8.98542 3.18807 8.87829 3.34866 8.72168 3.45495ZM17.8645 17.3108C17.9456 17.2556 18.0375 17.2165 18.1347 17.1959C18.232 17.1753 18.3325 17.1736 18.4304 17.1908C18.5283 17.2081 18.6217 17.244 18.7048 17.2963C18.788 17.3487 18.8594 17.4165 18.9148 17.4958C18.9701 17.575 19.0083 17.6641 19.0271 17.7577C19.0458 17.8514 19.0448 17.9477 19.0241 18.0409C19.0033 18.1341 18.9632 18.2225 18.9062 18.3006C18.8492 18.3788 18.7764 18.4452 18.6921 18.4959C18.528 18.5948 18.3301 18.6284 18.1404 18.5897C17.9508 18.551 17.7844 18.443 17.6766 18.2887C17.5688 18.1343 17.5281 17.9458 17.5632 17.7632C17.5983 17.5806 17.7064 17.4183 17.8645 17.3108ZM18.6315 7.08102C18.8677 7.08102 19.0942 6.99117 19.2612 6.83123C19.4283 6.67129 19.5221 6.45436 19.5221 6.22817C19.5221 6.00198 19.4283 5.78506 19.2612 5.62512C19.0942 5.46518 18.8677 5.37532 18.6315 5.37532C18.3953 5.37532 18.1687 5.46518 18.0017 5.62512C17.8347 5.78506 17.7408 6.00198 17.7408 6.22817C17.7408 6.45436 17.8347 6.67129 18.0017 6.83123C18.1687 6.99117 18.3953 7.08102 18.6315 7.08102ZM4.56874 6.93692C4.47157 7.00194 4.36182 7.04773 4.24592 7.07161C4.13003 7.09548 4.01032 7.09696 3.89382 7.07596C3.77732 7.05496 3.66637 7.0119 3.56748 6.9493C3.46858 6.8867 3.38373 6.80583 3.3179 6.71142C3.25208 6.61701 3.20659 6.51097 3.18412 6.39951C3.16165 6.28805 3.16264 6.17342 3.18703 6.06233C3.21143 5.95124 3.25874 5.84593 3.32619 5.75258C3.39364 5.65923 3.47987 5.57971 3.57983 5.51869C3.77634 5.39312 4.01688 5.34743 4.24856 5.39169C4.48024 5.43595 4.68406 5.56653 4.8152 5.75469C4.94634 5.94286 4.99404 6.1732 4.94782 6.39505C4.9016 6.6169 4.76524 6.81208 4.56874 6.93765V6.93692Z" fill="#474747"/>
<path d="M22.0318 11.4764C21.9362 11.5187 21.8328 11.5426 21.7276 11.5466C21.6223 11.5507 21.5172 11.5348 21.4184 11.4999C20.6041 11.2082 19.7256 11.1205 18.866 11.2452C18.0064 11.3699 17.1944 11.7028 16.5069 12.2124C18.2935 12.2565 20.0402 12.7226 21.5919 13.5718C21.9713 13.7769 22.2507 14.1173 22.3691 14.5188C22.4875 14.9203 22.4353 15.3503 22.2239 15.7152C22.0126 16.08 21.6592 16.35 21.2407 16.4663C20.8223 16.5827 20.3728 16.5359 19.9903 16.3362C19.0718 15.8257 18.0503 15.5083 16.9937 15.4053C15.9371 15.3022 14.8698 15.4158 13.8626 15.7384C14.1198 16.2112 14.3126 16.7141 14.4346 17.2346C14.4784 17.3897 14.4999 17.5507 14.4991 17.711C14.5252 17.9142 14.5058 18.1204 14.4422 18.3158C14.3787 18.5113 14.2725 18.6916 14.1306 18.8447C14.0692 18.9035 14.0008 18.955 13.9271 18.9984C13.7003 19.207 13.4214 19.3566 13.1171 19.4329L3.33708 21.94C3.02176 22.0205 2.68983 22.0202 2.3747 21.9389C2.05958 21.8576 1.77237 21.6982 1.54199 21.4769C1.31161 21.2555 1.14618 20.98 1.06235 20.6779C0.978513 20.3759 0.979236 20.0581 1.06444 19.7564L3.68259 10.3898C3.76299 10.0951 3.9217 9.82531 4.14326 9.60676C4.18696 9.53897 4.23847 9.47608 4.29681 9.41928C4.45171 9.28677 4.63387 9.18678 4.83156 9.12574C5.02925 9.06471 5.23809 9.04399 5.44465 9.06491C5.63122 9.06049 5.81779 9.08329 5.99745 9.13255C6.47428 9.2357 6.93665 9.39266 7.37486 9.60014C7.58984 8.4091 7.38253 7.18276 6.78443 6.11817C6.67142 5.91635 6.64675 5.67981 6.71587 5.46059C6.78498 5.24136 6.94221 5.0574 7.15297 4.94918C7.36372 4.84096 7.61074 4.81734 7.83968 4.88353C8.06862 4.94971 8.26073 5.10027 8.37374 5.30208C9.27169 6.90394 9.49795 8.7734 9.0064 10.5295C9.60241 10.9346 10.1691 11.378 10.7024 11.8565C10.8642 11.6995 11.0836 11.6092 11.3139 11.6049C11.5442 11.6006 11.7671 11.6827 11.9351 11.8336C12.1031 11.9845 12.2029 12.1923 12.2131 12.4126C12.2234 12.6329 12.1433 12.8484 11.99 13.013C13.1023 12.5962 14.2717 12.3359 15.4619 12.2403C15.3675 12.1678 15.2914 12.0758 15.2392 11.9713C15.187 11.8667 15.16 11.7522 15.1603 11.6363C15.1606 11.5205 15.1882 11.4061 15.2409 11.3018C15.2936 11.1975 15.3702 11.1059 15.465 11.0338C16.3712 10.3475 17.4471 9.89687 18.5886 9.72556C19.7301 9.55425 20.8984 9.66806 21.9804 10.056C22.1287 10.1098 22.2571 10.2043 22.3495 10.3278C22.4418 10.4512 22.494 10.598 22.4995 10.7498C22.505 10.9016 22.4636 11.0515 22.3803 11.1808C22.2971 11.3101 22.1759 11.4129 22.0318 11.4764ZM8.29773 16.8854L8.15876 16.7714L8.28622 16.8758L8.29773 16.8854ZM8.29773 16.8854L8.39908 16.9677C8.36549 16.9398 8.33171 16.9129 8.29773 16.8854ZM2.57467 21.229C2.75894 21.2768 2.95396 21.2768 3.13899 21.2298L3.58277 21.1187C2.95521 20.683 2.39149 20.1687 1.9067 19.5895L1.80612 19.9497C1.76882 20.0821 1.75911 20.2201 1.77755 20.356C1.79599 20.492 1.84222 20.6231 1.91359 20.7419C1.98497 20.8607 2.08009 20.9648 2.19352 21.0484C2.30695 21.132 2.43647 21.1934 2.57467 21.229ZM3.80006 19.3858C4.34641 19.8685 4.96136 20.2747 5.62661 20.5923L7.77487 20.0416C6.93889 19.5686 6.15888 19.0103 5.44849 18.3764C4.51971 17.5361 3.70881 16.5839 3.03611 15.5436L2.42649 17.7265C2.79964 18.3393 3.26215 18.898 3.80006 19.3858ZM6.50035 17.3015C7.52498 18.2074 8.70053 18.943 9.97841 19.4777L11.891 18.9866C10.142 18.3244 8.56639 17.3021 7.27581 15.9921C6.82391 15.5618 6.39738 15.1077 5.99822 14.6319C5.82163 14.4224 5.65732 14.2129 5.50377 14.0048C4.92925 13.262 4.47092 12.4429 4.14326 11.5735L3.6035 13.5299C4.33623 14.9368 5.31612 16.2126 6.50035 17.3015ZM21.4982 14.4268C21.4229 14.3394 21.3299 14.2674 21.2249 14.2151H21.2211C19.9199 13.5024 18.4692 13.0761 16.9745 12.9671C15.4799 12.8581 13.9786 13.0692 12.5797 13.585L12.4322 13.6365L12.4392 13.6438C10.9845 14.2016 9.68581 15.0767 8.64631 16.1994C8.84516 16.3663 9.03788 16.5192 9.22905 16.6663C9.49701 16.8721 9.7665 17.0626 10.0736 17.2545C10.9115 16.3311 11.9735 15.6191 13.1663 15.1811C14.3293 14.7443 15.5799 14.5633 16.8258 14.6515C18.0717 14.7397 19.2809 15.0948 20.3642 15.6907C20.5429 15.7933 20.7538 15.8321 20.9595 15.8002C21.1652 15.7683 21.3525 15.6678 21.4883 15.5164C21.624 15.365 21.6995 15.1725 21.7013 14.973C21.7031 14.7735 21.6312 14.5805 21.4982 14.4268Z" fill="#474747"/>
</svg>
