<svg width="16" height="16" viewBox="0 0 16 16" fill="none" xmlns="http://www.w3.org/2000/svg">
<path d="M11.2441 3.71045H13.4056V4.81045H11.2441V3.71045ZM11.2441 5.46095H13.4056V6.56095H11.2441V5.46095ZM11.2441 7.21145H13.4056V8.31145H11.2441V7.21145ZM11.2441 8.96195H13.4056V10.0619H11.2441V8.96195ZM11.2441 10.7124H13.4056V11.8124H11.2441V10.7124Z" fill="#20744A"/>
<path fill-rule="evenodd" clip-rule="evenodd" d="M9.3255 2.1935H14.3905C14.5438 2.18573 14.694 2.23894 14.8082 2.34153C14.9224 2.44412 14.9913 2.58773 15 2.741V12.6655C14.9915 12.8189 14.9226 12.9626 14.8083 13.0653C14.6941 13.168 14.5439 13.2213 14.3905 13.2135H9.3255V14.9825L1 13.5485V2.285L9.3255 1V2.1935ZM9.3085 12.7565H14.4705V2.712H9.265V3.712H10.5435V4.812H9.265V5.462H10.5435V6.562H9.265V7.212H10.5435V8.312H9.269L9.275 8.962H10.5435V10.062H9.2845L9.2905 10.712H10.5435V11.812H9.3L9.3085 12.7565ZM4.24703 5.26593L3.17403 5.32743L4.29303 7.82393L3.08203 10.1554L4.12453 10.2474L4.89103 8.31193L5.65703 10.3239L6.79153 10.4004L5.48853 7.76093L6.79153 5.12793L5.71853 5.18943L4.92153 7.12043L4.24703 5.26593Z" fill="#20744A"/>
</svg>
