<svg width="24" height="24" viewBox="0 0 24 24" fill="none" xmlns="http://www.w3.org/2000/svg">
<path d="M16.8662 5.56567H20.1085V7.21567H16.8662V5.56567ZM16.8662 8.19142H20.1085V9.84142H16.8662V8.19142ZM16.8662 10.8172H20.1085V12.4672H16.8662V10.8172ZM16.8662 13.4429H20.1085V15.0929H16.8662V13.4429ZM16.8662 16.0687H20.1085V17.7187H16.8662V16.0687Z" fill="#20744A"/>
<path fill-rule="evenodd" clip-rule="evenodd" d="M13.9882 3.29025H21.5858C21.8157 3.27859 22.041 3.35842 22.2123 3.5123C22.3836 3.66617 22.487 3.8816 22.5 4.1115V18.9983C22.4872 19.2283 22.3839 19.4439 22.2125 19.5979C22.0412 19.752 21.8158 19.8319 21.5858 19.8203H13.9882V22.4738L1.5 20.3228V3.4275L13.9882 1.5V3.29025ZM13.9628 19.1348H21.7057V4.068H13.8975V5.568H15.8153V7.218H13.8975V8.193H15.8153V9.843H13.8975V10.818H15.8153V12.468H13.9035L13.9125 13.443H15.8153V15.093H13.9268L13.9357 16.068H15.8153V17.718H13.95L13.9628 19.1348ZM6.37055 7.89889L4.76105 7.99114L6.43955 11.7359L4.62305 15.2331L6.1868 15.3711L7.33655 12.4679L8.48555 15.4859L10.1873 15.6006L8.2328 11.6414L10.1873 7.69189L8.5778 7.78414L7.3823 10.6806L6.37055 7.89889Z" fill="#20744A"/>
</svg>
