<svg width="24" height="24" viewBox="0 0 24 24" fill="none" xmlns="http://www.w3.org/2000/svg">
<path d="M5.0005 15C5.0005 15.2652 5.10585 15.5196 5.29339 15.7071C5.48093 15.8946 5.73528 16 6.0005 16C6.26571 16 6.52007 15.8946 6.7076 15.7071C6.89514 15.5196 7.0005 15.2652 7.0005 15C7.0005 14.7348 6.89514 14.4804 6.7076 14.2929C6.52007 14.1054 6.26571 14 6.0005 14C5.73528 14 5.48093 14.1054 5.29339 14.2929C5.10585 14.4804 5.0005 14.7348 5.0005 15ZM5.0005 17.83C4.41496 17.6234 3.90793 17.2403 3.54929 16.7334C3.19064 16.2265 2.99805 15.6209 2.99805 15C2.99805 14.3791 3.19064 13.7735 3.54929 13.2666C3.90793 12.7597 4.41496 12.3766 5.0005 12.17L5.0005 5C5.0005 4.73478 5.10585 4.48043 5.29339 4.29289C5.48093 4.10536 5.73528 4 6.0005 4C6.26571 4 6.52007 4.10536 6.7076 4.29289C6.89514 4.48043 7.0005 4.73478 7.0005 5V12.17C7.58603 12.3766 8.09306 12.7597 8.45171 13.2666C8.81035 13.7735 9.00295 14.3791 9.00295 15C9.00295 15.6209 8.81035 16.2265 8.45171 16.7334C8.09306 17.2403 7.58603 17.6234 7.0005 17.83V19C7.0005 19.2652 6.89514 19.5196 6.7076 19.7071C6.52007 19.8946 6.26571 20 6.0005 20C5.73528 20 5.48093 19.8946 5.29339 19.7071C5.10585 19.5196 5.0005 19.2652 5.0005 19V17.83ZM11.0005 9C11.0005 9.26522 11.1059 9.51957 11.2934 9.70711C11.4809 9.89464 11.7353 10 12.0005 10C12.2657 10 12.5201 9.89464 12.7076 9.70711C12.8951 9.51957 13.0005 9.26522 13.0005 9C13.0005 8.73478 12.8951 8.48043 12.7076 8.29289C12.5201 8.10536 12.2657 8 12.0005 8C11.7353 8 11.4809 8.10536 11.2934 8.29289C11.1059 8.48043 11.0005 8.73478 11.0005 9ZM11.0005 11.83C10.415 11.6234 9.90793 11.2403 9.54929 10.7334C9.19064 10.2265 8.99805 9.62091 8.99805 9C8.99805 8.37909 9.19064 7.77346 9.54929 7.2666C9.90793 6.75974 10.415 6.3766 11.0005 6.17L11.0005 5C11.0005 4.73478 11.1059 4.48043 11.2934 4.29289C11.4809 4.10536 11.7353 4 12.0005 4C12.2657 4 12.5201 4.10536 12.7076 4.29289C12.8951 4.48043 13.0005 4.73478 13.0005 5L13.0005 6.17C13.586 6.3766 14.0931 6.75974 14.4517 7.2666C14.8104 7.77346 15.0029 8.37909 15.0029 9C15.0029 9.62091 14.8104 10.2265 14.4517 10.7334C14.0931 11.2403 13.586 11.6234 13.0005 11.83V19C13.0005 19.2652 12.8951 19.5196 12.7076 19.7071C12.5201 19.8946 12.2657 20 12.0005 20C11.7353 20 11.4809 19.8946 11.2934 19.7071C11.1059 19.5196 11.0005 19.2652 11.0005 19V11.83ZM17.0005 15C17.0005 15.2652 17.1059 15.5196 17.2934 15.7071C17.4809 15.8946 17.7353 16 18.0005 16C18.2657 16 18.5201 15.8946 18.7076 15.7071C18.8951 15.5196 19.0005 15.2652 19.0005 15C19.0005 14.7348 18.8951 14.4804 18.7076 14.2929C18.5201 14.1054 18.2657 14 18.0005 14C17.7353 14 17.4809 14.1054 17.2934 14.2929C17.1059 14.4804 17.0005 14.7348 17.0005 15ZM17.0005 17.83C16.415 17.6234 15.9079 17.2403 15.5493 16.7334C15.1906 16.2265 14.998 15.6209 14.998 15C14.998 14.3791 15.1906 13.7735 15.5493 13.2666C15.9079 12.7597 16.415 12.3766 17.0005 12.17V5C17.0005 4.73478 17.1059 4.48043 17.2934 4.29289C17.4809 4.10536 17.7353 4 18.0005 4C18.2657 4 18.5201 4.10536 18.7076 4.29289C18.8951 4.48043 19.0005 4.73478 19.0005 5V12.17C19.586 12.3766 20.0931 12.7597 20.4517 13.2666C20.8104 13.7735 21.0029 14.3791 21.0029 15C21.0029 15.6209 20.8104 16.2265 20.4517 16.7334C20.0931 17.2403 19.586 17.6234 19.0005 17.83V19C19.0005 19.2652 18.8951 19.5196 18.7076 19.7071C18.5201 19.8946 18.2657 20 18.0005 20C17.7353 20 17.4809 19.8946 17.2934 19.7071C17.1059 19.5196 17.0005 19.2652 17.0005 19V17.83Z" fill="#FBFBFB"/>
</svg>
