<svg width="80" height="80" viewBox="0 0 80 80" fill="none" xmlns="http://www.w3.org/2000/svg">
<path d="M50.3125 65C50.3125 70.5234 47.0859 75 41.5625 75H20.9375C15.4141 75 12.1875 70.5234 12.1875 65M52.5 52.5C55.2609 52.5 57.5 55.2984 57.5 58.75C57.5 62.2016 55.2609 65 52.5 65H10C7.23906 65 5 62.2016 5 58.75C5 55.2984 7.23906 52.5 10 52.5" stroke="#8C8C8C" stroke-width="5" stroke-miterlimit="10" stroke-linecap="round"/>
<path d="M10 43.125V43.0906C10 34.4969 17.0312 30 25.625 30H36.875C45.4688 30 52.5 34.5312 52.5 43.125V43.0906M37.6562 17.5L38.8188 27.4953M53.75 52.5H28.0172C27.6861 52.5002 27.3686 52.6316 27.1344 52.8656L22.9422 57.0578C22.8841 57.1159 22.8152 57.162 22.7393 57.1935C22.6635 57.2249 22.5821 57.2411 22.5 57.2411C22.4179 57.2411 22.3365 57.2249 22.2607 57.1935C22.1848 57.162 22.1159 57.1159 22.0578 57.0578L17.8656 52.8656C17.6314 52.6316 17.3139 52.5002 16.9828 52.5H8.75C7.75544 52.5 6.80161 52.1049 6.09835 51.4016C5.39509 50.6984 5 49.7446 5 48.75C5 47.7554 5.39509 46.8016 6.09835 46.0984C6.80161 45.3951 7.75544 45 8.75 45H53.75C54.7446 45 55.6984 45.3951 56.4016 46.0984C57.1049 46.8016 57.5 47.7554 57.5 48.75C57.5 49.7446 57.1049 50.6984 56.4016 51.4016C55.6984 52.1049 54.7446 52.5 53.75 52.5Z" stroke="#8C8C8C" stroke-width="5" stroke-miterlimit="10" stroke-linecap="round"/>
<path d="M40 75H61.7672C63.0286 75 64.2434 74.5232 65.1681 73.6652C66.0927 72.8071 66.6589 71.6313 66.7531 70.3734L72.3438 17.5" stroke="#8C8C8C" stroke-width="5" stroke-miterlimit="10" stroke-linecap="round"/>
<path d="M57.5 17.5L60 7.5L67.3438 5" stroke="#8C8C8C" stroke-width="5" stroke-linecap="round" stroke-linejoin="round"/>
<path d="M35 17.5H75" stroke="#8C8C8C" stroke-width="5" stroke-miterlimit="10" stroke-linecap="round"/>
</svg>
