<svg width="80" height="80" viewBox="0 0 80 80" fill="none" xmlns="http://www.w3.org/2000/svg">
<g clip-path="url(#clip0_2058_4453)">
<path d="M72.5976 -1.80473e-05C71.8099 -1.80473e-05 70.9853 0.264597 70.3853 0.864597L69.136 2.21229L68.5576 1.73229C68.4148 1.58318 68.2434 1.46452 68.0535 1.38345C67.8637 1.30238 67.6594 1.26059 67.453 1.26059C67.2465 1.26059 67.0423 1.30238 66.8524 1.38345C66.6626 1.46452 66.4911 1.58318 66.3484 1.73229C66.1992 1.87504 66.0806 2.04651 65.9995 2.23635C65.9184 2.42619 65.8767 2.63048 65.8767 2.83691C65.8767 3.04333 65.9184 3.24762 65.9995 3.43746C66.0806 3.6273 66.1992 3.79877 66.3484 3.94152L66.8284 4.51998L66.0591 5.28921L65.4807 4.80614C65.3379 4.65703 65.1665 4.53836 64.9766 4.4573C64.7868 4.37623 64.5825 4.33444 64.3761 4.33444C64.1696 4.33444 63.9653 4.37623 63.7755 4.4573C63.5856 4.53836 63.4142 4.65703 63.2714 4.80614C63.1214 4.94897 63.0019 5.12081 62.9202 5.31122C62.8386 5.50164 62.7965 5.70665 62.7965 5.91383C62.7965 6.12101 62.8386 6.32602 62.9202 6.51643C63.0019 6.70685 63.1214 6.87869 63.2714 7.02152L63.7514 7.59691L63.173 8.17229C62.7998 8.5416 62.5319 9.00369 62.3967 9.51097C62.2615 10.0183 62.2639 10.5524 62.4037 11.0584L48.9422 24.52C46.1637 22.0892 41.9607 19.2308 37.4037 19.2308C35.3822 19.2308 33.3053 19.8461 31.2499 21.2492C26.6899 24.3661 27.5637 29.0892 24.7114 31.8277C21.5114 34.9046 12.7637 32.4246 4.71143 40.48C-3.34088 48.5292 0.228353 59.6646 10.4807 69.52C16.6284 75.9138 23.2437 79.7108 29.3268 79.7108C32.9914 79.7108 36.4899 78.32 39.5207 75.2892C47.573 67.2369 45.093 58.4954 48.173 55.2892C50.9114 52.4431 55.7268 53.4092 58.8468 48.8461C63.4222 42.16 59.0068 35.0892 55.4807 31.0584L68.9422 17.5969C69.9576 17.8554 71.0314 17.6246 71.8284 16.8277L72.4037 16.2492L72.9822 16.7323C73.1148 16.8817 73.2772 17.0016 73.459 17.0842C73.6408 17.1669 73.8379 17.2105 74.0376 17.2123C74.4708 17.2094 74.8854 17.0358 75.1914 16.7292C75.3405 16.5865 75.4592 16.415 75.5403 16.2252C75.6213 16.0353 75.6631 15.831 75.6631 15.6246C75.6631 15.4182 75.6213 15.2139 75.5403 15.024C75.4592 14.8342 75.3405 14.6627 75.1914 14.52L74.7114 13.9415L75.4807 13.1723L76.0591 13.6554C76.1917 13.8047 76.3541 13.9246 76.5359 14.0073C76.7177 14.09 76.9148 14.1336 77.1145 14.1354C77.5477 14.1324 77.9623 13.9589 78.2684 13.6523C78.4175 13.5095 78.5361 13.3381 78.6172 13.1482C78.6983 12.9584 78.7401 12.7541 78.7401 12.5477C78.7401 12.3412 78.6983 12.137 78.6172 11.9471C78.5361 11.7573 78.4175 11.5858 78.2684 11.4431L77.7884 10.8646L79.136 9.61537C79.4217 9.33218 79.6483 8.99523 79.803 8.62397C79.9578 8.25271 80.0374 7.85449 80.0374 7.45229C80.0374 7.05009 79.9578 6.65187 79.803 6.28061C79.6483 5.90935 79.4217 5.5724 79.136 5.28921L74.7084 0.86152C74.4334 0.582258 74.1044 0.361866 73.7415 0.213755C73.3787 0.0656442 72.9895 -0.0070887 72.5976 -1.80473e-05ZM72.4037 3.65537C72.6407 3.65537 72.896 3.66767 73.0776 3.84614C73.251 4.02762 73.3478 4.26897 73.3478 4.51998C73.3478 4.771 73.251 5.01235 73.0776 5.19383L66.9237 11.3477C66.745 11.5272 66.5032 11.6299 66.2499 11.6338C65.9975 11.627 65.7574 11.5234 65.5791 11.3446C65.4066 11.1633 65.3104 10.9226 65.3104 10.6723C65.3104 10.422 65.4066 10.1813 65.5791 9.99998L71.733 3.84614C71.9114 3.66767 72.1699 3.65537 72.4037 3.65537ZM75.4807 6.73229C75.7176 6.73229 75.973 6.74152 76.1545 6.92306C76.3286 7.10418 76.4259 7.34567 76.4259 7.59691C76.4259 7.84815 76.3286 8.08963 76.1545 8.27075L70.0007 14.4246C69.8212 14.603 69.5799 14.7055 69.3268 14.7108C69.0748 14.7047 68.8348 14.6023 68.656 14.4246C68.4826 14.2431 68.3859 14.0018 68.3859 13.7508C68.3859 13.4997 68.4826 13.2584 68.656 13.0769L74.8099 6.92306C74.9884 6.7446 75.2468 6.73229 75.4807 6.73229ZM37.4037 23.5538C40.3576 23.5538 43.4776 25.56 45.8653 27.5938L35.576 37.8831C35.3484 37.8584 35.1391 37.7846 34.9053 37.7846C32.9692 37.7911 31.1142 38.5631 29.7451 39.9321C28.3761 41.3012 27.6041 43.1562 27.5976 45.0923C27.6041 47.0284 28.3761 48.8834 29.7451 50.2524C31.1142 51.6215 32.9692 52.3935 34.9053 52.4C36.8414 52.3935 38.6964 51.6215 40.0654 50.2524C41.4345 48.8834 42.2065 47.0284 42.213 45.0923C42.213 44.8584 42.1391 44.6492 42.1176 44.4184L52.4991 34.0369C55.1699 37.1323 58.1853 42.1108 55.2899 46.3446C54.3484 47.7169 53.1637 48.2215 51.0591 48.9384C49.2068 49.5692 46.8899 50.3384 45.0007 52.3046C42.9268 54.4615 42.4653 57.2984 41.9237 60.2861C41.2407 64.0369 40.4745 68.2769 36.4437 72.3046C34.3268 74.4215 31.9945 75.4769 29.3268 75.4769C24.6591 75.4769 19.0591 72.2584 13.5576 66.5354C13.5273 66.5021 13.4955 66.4702 13.4622 66.44C7.78528 60.9908 4.56681 55.4154 4.52066 50.7692C4.48989 48.0584 5.54835 45.7077 7.69297 43.5569C11.7237 39.5261 15.9637 38.7569 19.7114 38.0769C22.6991 37.5354 25.5391 36.9784 27.693 34.9046C29.6437 33.0338 30.416 30.7723 31.0591 28.9415C31.7976 26.8431 32.2591 25.76 33.656 24.8061C34.8499 23.9908 36.0868 23.5538 37.4037 23.5538ZM17.1145 50.0923C16.8618 50.0979 16.6212 50.2016 16.4437 50.3815L14.5207 52.3077C14.3444 52.4877 14.2457 52.7296 14.2457 52.9815C14.2457 53.2335 14.3444 53.4754 14.5207 53.6554L26.3453 65.48C26.7084 65.84 27.3299 65.84 27.693 65.48L29.616 63.5569C29.79 63.3763 29.8871 63.1353 29.8871 62.8846C29.8871 62.6339 29.79 62.3929 29.616 62.2123L17.7884 50.3846C17.6109 50.2047 17.3703 50.1009 17.1176 50.0954L17.1145 50.0923Z" fill="#8C8C8C"/>
</g>
<defs>
<clipPath id="clip0_2058_4453">
<rect width="80" height="80" fill="white"/>
</clipPath>
</defs>
</svg>
