<svg width="24" height="24" viewBox="0 0 24 24" fill="none" xmlns="http://www.w3.org/2000/svg">
<path d="M13.2674 2.45017C12.9099 2.15907 12.4621 2 12 2C11.5379 2 11.0901 2.15907 10.7326 2.45017L3.75759 8.1038C3.52026 8.29724 3.32916 8.54073 3.19813 8.81663C3.06711 9.09253 2.99943 9.39395 3 9.69905V19.9542C3 21.0842 3.90689 22 5.025 22H7.32794C8.44659 22 9.35294 21.0842 9.35294 19.9542V15.4211C9.35294 15.0721 9.49239 14.7375 9.74059 14.4907C9.9888 14.244 10.3254 14.1053 10.6765 14.1053H13.3235C13.6746 14.1053 14.0112 14.244 14.2594 14.4907C14.5076 14.7375 14.6471 15.0721 14.6471 15.4211V19.9542C14.6471 21.0842 15.5534 22 16.6721 22H18.975C20.0936 22 21 21.0842 21 19.9542V9.69905C21.0006 9.39395 20.9329 9.09253 20.8019 8.81663C20.6708 8.54073 20.4797 8.29724 20.2424 8.1038L13.2674 2.45017Z" fill="#2E5EA3"/>
</svg>
