<svg width="16" height="16" viewBox="0 0 16 16" fill="none" xmlns="http://www.w3.org/2000/svg">
<path fill-rule="evenodd" clip-rule="evenodd" d="M6.90378 1H9.09622C9.23697 1 9.35957 1 9.47503 1.0201C9.69992 1.05998 9.91326 1.15756 10.098 1.30504C10.2827 1.45252 10.4337 1.64581 10.5388 1.86944C10.5933 1.98431 10.6316 2.11282 10.6763 2.26L10.7483 2.50051C10.798 2.69591 10.9061 2.8669 11.0548 2.98556C11.2036 3.10422 11.3844 3.16354 11.5676 3.15385H13.5135C13.6425 3.15385 13.7663 3.21058 13.8575 3.31156C13.9487 3.41254 14 3.5495 14 3.69231C14 3.83512 13.9487 3.97208 13.8575 4.07306C13.7663 4.17404 13.6425 4.23077 13.5135 4.23077H2.48649C2.35746 4.23077 2.23372 4.17404 2.14249 4.07306C2.05125 3.97208 2 3.83512 2 3.69231C2 3.5495 2.05125 3.41254 2.14249 3.31156C2.23372 3.21058 2.35746 3.15385 2.48649 3.15385H4.49081C4.66407 3.14925 4.83143 3.08332 4.96836 2.96574C5.1053 2.84817 5.20459 2.68512 5.25168 2.50051L5.32432 2.26C5.36843 2.11282 5.4067 1.98431 5.46054 1.86944C5.56575 1.64572 5.71682 1.45238 5.90165 1.3049C6.08649 1.15741 6.29996 1.05987 6.52497 1.0201C6.64043 1 6.76303 1 6.90313 1H6.90378ZM6.05924 3.15385C6.10479 3.05512 6.14276 2.95233 6.17276 2.84656L6.23762 2.63118C6.29665 2.43518 6.31027 2.39569 6.32389 2.36697C6.35891 2.29231 6.40924 2.22777 6.47086 2.17852C6.53247 2.12928 6.60366 2.09669 6.6787 2.08338C6.76326 2.07548 6.84818 2.07332 6.93297 2.07692H9.06703C9.25384 2.07692 9.29276 2.07836 9.3213 2.0841C9.39628 2.09733 9.46742 2.12981 9.52903 2.17893C9.59065 2.22805 9.64101 2.29245 9.67611 2.36697C9.68973 2.39569 9.70335 2.43518 9.76238 2.6319L9.82724 2.84728L9.85254 2.92769C9.87784 3.00667 9.90768 3.08133 9.94076 3.15385H6.05924Z" fill="#B30000"/>
<path d="M4.05023 5.45128C4.04163 5.30876 3.98223 5.17585 3.8851 5.0818C3.78796 4.98776 3.66106 4.94027 3.53229 4.94979C3.40352 4.95931 3.28345 5.02506 3.19848 5.13257C3.11351 5.24008 3.07061 5.38055 3.07921 5.52307L3.38018 10.5143C3.43532 11.4347 3.48007 12.1785 3.58515 12.7629C3.69478 13.3695 3.88029 13.8764 4.26429 14.2734C4.64764 14.6712 5.11726 14.8428 5.67186 14.9225C6.20505 15 6.87834 15 7.71251 15H8.28267C9.11618 15 9.79013 15 10.3233 14.9225C10.8773 14.8428 11.3469 14.6712 11.7309 14.2734C12.1142 13.8764 12.2997 13.3688 12.4094 12.7629C12.5145 12.1792 12.5586 11.4347 12.6143 10.5143L12.9153 5.52307C12.9239 5.38055 12.881 5.24008 12.796 5.13257C12.7111 5.02506 12.591 4.95931 12.4622 4.94979C12.3335 4.94027 12.2066 4.98776 12.1094 5.0818C12.0123 5.17585 11.9529 5.30876 11.9443 5.45128L11.6459 10.4051C11.5875 11.3722 11.546 12.0456 11.4552 12.5518C11.3663 13.0436 11.2431 13.3035 11.066 13.4873C10.8883 13.6711 10.6457 13.7903 10.1968 13.8549C9.73434 13.9216 9.12461 13.9231 8.24829 13.9231H7.74623C6.87056 13.9231 6.26083 13.9216 5.79769 13.8549C5.34883 13.7903 5.10624 13.6711 4.92851 13.4873C4.75142 13.3035 4.62818 13.0436 4.53932 12.5525C4.44851 12.0456 4.40699 11.3722 4.34861 10.4044L4.05023 5.45128Z" fill="#B30000"/>
<path d="M6.32829 6.74646C6.45662 6.73223 6.58481 6.77498 6.68467 6.86531C6.78453 6.95565 6.84789 7.08617 6.86084 7.2282L7.18516 10.8179C7.19466 10.958 7.15434 11.0966 7.0728 11.2043C6.99126 11.3119 6.87496 11.38 6.7487 11.394C6.62244 11.4081 6.49622 11.367 6.39696 11.2795C6.2977 11.192 6.23325 11.065 6.21738 10.9256L5.89305 7.3359C5.88019 7.19386 5.91881 7.05198 6.00043 6.94145C6.08205 6.83092 6.19998 6.76078 6.32829 6.74646ZM9.66884 6.74646C9.79703 6.76079 9.91485 6.83082 9.99645 6.94119C10.0781 7.05156 10.1168 7.19326 10.1041 7.33518L9.77975 10.9249C9.76367 11.064 9.6992 11.1907 9.60006 11.278C9.50092 11.3652 9.37492 11.4063 9.24886 11.3924C9.1228 11.3784 9.00663 11.3106 8.92504 11.2033C8.84345 11.0961 8.80289 10.9578 8.81197 10.8179L9.13629 7.2282C9.14924 7.08631 9.21252 6.9559 9.31223 6.86558C9.41195 6.77527 9.54061 6.73243 9.66884 6.74646Z" fill="#B30000"/>
</svg>
