<svg width="12" height="12" viewBox="0 0 12 12" fill="none" xmlns="http://www.w3.org/2000/svg">
<path d="M7.58551 12.0002H4.27547C1.27988 12.0002 0 10.7203 0 7.72476V4.41472C0 1.41913 1.27988 0.139252 4.27547 0.139252H5.37881C5.605 0.139252 5.79257 0.326821 5.79257 0.553007C5.79257 0.779193 5.605 0.966762 5.37881 0.966762H4.27547C1.73225 0.966762 0.82751 1.87151 0.82751 4.41472V7.72476C0.82751 10.268 1.73225 11.1727 4.27547 11.1727H7.58551C10.1287 11.1727 11.0335 10.268 11.0335 7.72476V6.62141C11.0335 6.39523 11.221 6.20766 11.4472 6.20766C11.6734 6.20766 11.861 6.39523 11.861 6.62141V7.72476C11.861 10.7203 10.5811 12.0002 7.58551 12.0002Z" fill="#0064BF"/>
<path d="M4 9.20883C3.66348 9.20883 3.35454 9.08746 3.12836 8.86679C2.85804 8.59647 2.74218 8.20478 2.80287 7.79103L3.04009 6.13049C3.08422 5.81052 3.29386 5.39677 3.52004 5.17058L7.8672 0.823373C8.96503 -0.274458 10.0794 -0.274458 11.1772 0.823373C11.7786 1.4247 12.0489 2.03705 11.9937 2.64941C11.9441 3.14592 11.6793 3.63139 11.1772 4.1279L6.83006 8.4751C6.60387 8.70129 6.19011 8.91093 5.87014 8.95506L4.20964 9.19228C4.13792 9.20883 4.0662 9.20883 4 9.20883ZM8.45197 1.40815L4.10482 5.75535C4 5.86017 3.87863 6.10291 3.85656 6.24634L3.61934 7.90688C3.59728 8.06686 3.63038 8.19927 3.71313 8.28202C3.79588 8.36477 3.92828 8.39787 4.08827 8.3758L5.74878 8.13858C5.89221 8.11652 6.14046 7.99515 6.23977 7.89033L10.587 3.54312C10.9455 3.18453 11.1331 2.86456 11.1607 2.56666C11.1938 2.20807 11.0062 1.82742 10.587 1.40263C9.70427 0.519952 9.09743 0.768205 8.45197 1.40815Z" fill="#0064BF"/>
<path d="M10.2607 4.87253C10.222 4.87253 10.1834 4.86702 10.1503 4.85598C8.69943 4.44774 7.54643 3.29475 7.13819 1.84385C7.07751 1.62318 7.2044 1.39699 7.42507 1.33079C7.64573 1.27011 7.87192 1.39699 7.9326 1.61766C8.26361 2.79273 9.19594 3.72505 10.371 4.05606C10.5917 4.11674 10.7186 4.34844 10.6579 4.56911C10.6082 4.75668 10.4427 4.87253 10.2607 4.87253Z" fill="#0064BF"/>
</svg>
