<svg width="16" height="16" viewBox="0 0 16 16" fill="none" xmlns="http://www.w3.org/2000/svg">
<path d="M8 12C11.8661 12 15 8 15 8C15 8 11.8661 4 8 4C4.1339 4 1 8 1 8C1 8 4.1339 12 8 12Z" stroke="#55659D" stroke-linejoin="round"/>
<path d="M8 9.66668C8.46413 9.66668 8.90925 9.49108 9.23744 9.17852C9.56563 8.86596 9.75 8.44204 9.75 8.00001C9.75 7.55798 9.56563 7.13406 9.23744 6.8215C8.90925 6.50894 8.46413 6.33334 8 6.33334C7.53587 6.33334 7.09075 6.50894 6.76256 6.8215C6.43437 7.13406 6.25 7.55798 6.25 8.00001C6.25 8.44204 6.43437 8.86596 6.76256 9.17852C7.09075 9.49108 7.53587 9.66668 8 9.66668Z" fill="#55659D" stroke="#55659D" stroke-linejoin="round"/>
</svg>
