<svg width="20" height="20" viewBox="0 0 20 20" fill="none" xmlns="http://www.w3.org/2000/svg">
<path d="M15.8332 1.6665H4.1665C3.50346 1.6665 2.86758 1.9299 2.39874 2.39874C1.9299 2.86758 1.6665 3.50346 1.6665 4.1665V15.8332C1.6665 16.4962 1.9299 17.1321 2.39874 17.6009C2.86758 18.0698 3.50346 18.3332 4.1665 18.3332H15.8332C15.9702 18.3313 16.1069 18.3173 16.2415 18.2915L16.4915 18.2332H16.5498H16.5915L16.8998 18.1165L17.0082 18.0582C17.0915 18.0082 17.1832 17.9665 17.2665 17.9082C17.3778 17.8263 17.4836 17.7372 17.5832 17.6415L17.6415 17.5665C17.7233 17.4836 17.7985 17.3944 17.8665 17.2998L17.9415 17.1915C17.9997 17.0987 18.0499 17.0011 18.0915 16.8998C18.1144 16.8599 18.1339 16.818 18.1498 16.7748C18.1915 16.6748 18.2165 16.5665 18.2498 16.4582V16.3332C18.2971 16.1703 18.325 16.0025 18.3332 15.8332V4.1665C18.3332 3.50346 18.0698 2.86758 17.6009 2.39874C17.1321 1.9299 16.4962 1.6665 15.8332 1.6665ZM4.1665 16.6665C3.94549 16.6665 3.73353 16.5787 3.57725 16.4224C3.42097 16.2661 3.33317 16.0542 3.33317 15.8332V12.2415L6.07484 9.4915C6.15231 9.4134 6.24447 9.3514 6.34602 9.30909C6.44757 9.26679 6.55649 9.245 6.6665 9.245C6.77651 9.245 6.88543 9.26679 6.98698 9.30909C7.08853 9.3514 7.1807 9.4134 7.25817 9.4915L14.4248 16.6665H4.1665ZM16.6665 15.8332C16.6657 15.9359 16.6459 16.0376 16.6082 16.1332C16.5891 16.1738 16.5668 16.2128 16.5415 16.2498C16.5192 16.2851 16.4941 16.3186 16.4665 16.3498L12.0082 11.8915L12.7415 11.1582C12.819 11.0801 12.9111 11.0181 13.0127 10.9758C13.1142 10.9335 13.2232 10.9117 13.3332 10.9117C13.4432 10.9117 13.5521 10.9335 13.6536 10.9758C13.7552 11.0181 13.8474 11.0801 13.9248 11.1582L16.6665 13.9082V15.8332ZM16.6665 11.5498L15.0998 9.99984C14.6229 9.54733 13.9906 9.29507 13.3332 9.29507C12.6758 9.29507 12.0434 9.54733 11.5665 9.99984L10.8332 10.7332L8.43317 8.33317C7.95627 7.88066 7.32392 7.6284 6.6665 7.6284C6.00909 7.6284 5.37674 7.88066 4.89984 8.33317L3.33317 9.88317V4.1665C3.33317 3.94549 3.42097 3.73353 3.57725 3.57725C3.73353 3.42097 3.94549 3.33317 4.1665 3.33317H15.8332C16.0542 3.33317 16.2661 3.42097 16.4224 3.57725C16.5787 3.73353 16.6665 3.94549 16.6665 4.1665V11.5498Z" fill="black"/>
</svg>
