<svg width="26" height="26" viewBox="0 0 26 26" fill="none" xmlns="http://www.w3.org/2000/svg">
<g clip-path="url(#clip0_189_395)">
<path d="M4.6 17.3C4.795 17.3 4.925 17.235 5.055 17.105L7.005 15.155C7.265 14.895 7.265 14.505 7.005 14.245C6.745 13.985 6.355 13.985 6.095 14.245L5.25 15.09V7.55C5.25 7.16 5.51 6.9 5.9 6.9H15.65C16.04 6.9 16.3 6.64 16.3 6.25C16.3 5.86 16.04 5.6 15.65 5.6H5.9C4.795 5.6 3.95 6.445 3.95 7.55V15.09L3.105 14.245C2.845 13.985 2.455 13.985 2.195 14.245C1.935 14.505 1.935 14.895 2.195 15.155L4.145 17.105C4.275 17.235 4.405 17.3 4.6 17.3ZM22.8 14.7C22.41 14.7 22.15 14.96 22.15 15.35V19.25C22.15 19.64 21.89 19.9 21.5 19.9H4.6C4.21 19.9 3.95 20.16 3.95 20.55C3.95 20.94 4.21 21.2 4.6 21.2H21.5C22.605 21.2 23.45 20.355 23.45 19.25V15.35C23.45 14.96 23.19 14.7 22.8 14.7ZM22.8 3C19.94 3 17.6 5.34 17.6 8.2C17.6 11.06 19.94 13.4 22.8 13.4C25.66 13.4 28 11.06 28 8.2C28 5.34 25.66 3 22.8 3ZM22.8 12.1C20.655 12.1 18.9 10.345 18.9 8.2C18.9 6.055 20.655 4.3 22.8 4.3C24.945 4.3 26.7 6.055 26.7 8.2C26.7 10.345 24.945 12.1 22.8 12.1Z" fill="#7A7C7C"/>
<path d="M22.9669 8.01685C22.5769 8.01685 22.3169 8.27685 22.3169 8.66685V10.6168C22.3169 11.0068 22.5769 11.2668 22.9669 11.2668C23.3569 11.2668 23.6169 11.0068 23.6169 10.6168V8.66685C23.6169 8.27685 23.3569 8.01685 22.9669 8.01685ZM22.5119 12.1118C22.3819 12.2418 22.3169 12.3718 22.3169 12.5668C22.3169 12.7618 22.3819 12.8918 22.5119 13.0218C22.6419 13.1518 22.7719 13.2168 22.9669 13.2168C23.1619 13.2168 23.2919 13.1518 23.4219 13.0218C23.5519 12.8918 23.6169 12.6968 23.6169 12.5668C23.6169 12.4368 23.5519 12.2418 23.4219 12.1118C23.1619 11.8518 22.7719 11.8518 22.5119 12.1118Z" fill="#7A7C7C"/>
</g>
<defs>
<clipPath id="clip0_189_395">
<rect width="26" height="26" fill="white"/>
</clipPath>
</defs>
</svg>
