<svg width="94" height="94" viewBox="0 0 94 94" fill="none" xmlns="http://www.w3.org/2000/svg">
<g clip-path="url(#clip0_2039_3336)">
<path d="M79.3262 86.2744C79.3262 90.5484 64.8444 94 46.9991 94C29.1537 94 14.6719 90.5484 14.6719 86.2744C14.6719 82.4556 26.275 79.3125 41.4912 78.6663H52.5069C67.7378 79.3125 79.3262 82.4556 79.3262 86.2744Z" fill="#E3E2E1"/>
<path d="M46.9998 0C30.403 0 16.9492 13.4391 16.9492 30.0359C16.9492 46.6328 46.9998 86.2744 46.9998 86.2744C46.9998 86.2744 77.0358 46.6328 77.0358 30.0359C77.0358 13.4391 63.5967 0 46.9998 0ZM46.9998 49.9228C36.0136 49.9228 27.113 41.0222 27.113 30.0359C27.113 19.0497 36.0136 10.1491 46.9998 10.1491C57.9861 10.1491 66.8867 19.0497 66.8867 30.0359C66.8867 41.0222 57.9861 49.9228 46.9998 49.9228Z" fill="#E82327"/>
</g>
<defs>
<clipPath id="clip0_2039_3336">
<rect width="94" height="94" fill="white"/>
</clipPath>
</defs>
</svg>
