<svg width="32" height="32" viewBox="0 0 32 32" fill="none" xmlns="http://www.w3.org/2000/svg">
<path d="M15.9999 2.66699C10.1333 2.66699 5.33325 7.46699 5.33325 13.3337C5.33325 20.5337 14.6666 28.667 15.0666 29.067C15.3332 29.2003 15.7332 29.3337 15.9999 29.3337C16.2666 29.3337 16.6666 29.2003 16.9332 29.067C17.3332 28.667 26.6666 20.5337 26.6666 13.3337C26.6666 7.46699 21.8666 2.66699 15.9999 2.66699ZM15.9999 26.267C13.1999 23.6003 7.99992 17.867 7.99992 13.3337C7.99992 8.93366 11.5999 5.33366 15.9999 5.33366C20.3999 5.33366 23.9999 8.93366 23.9999 13.3337C23.9999 17.7337 18.7999 23.6003 15.9999 26.267ZM15.9999 8.00033C13.0666 8.00033 10.6666 10.4003 10.6666 13.3337C10.6666 16.267 13.0666 18.667 15.9999 18.667C18.9332 18.667 21.3332 16.267 21.3332 13.3337C21.3332 10.4003 18.9332 8.00033 15.9999 8.00033ZM15.9999 16.0003C14.5332 16.0003 13.3333 14.8003 13.3333 13.3337C13.3333 11.867 14.5332 10.667 15.9999 10.667C17.4666 10.667 18.6666 11.867 18.6666 13.3337C18.6666 14.8003 17.4666 16.0003 15.9999 16.0003Z" fill="#F5F5F5"/>
</svg>
