<svg width="20" height="20" viewBox="0 0 20 20" fill="none" xmlns="http://www.w3.org/2000/svg">
<path d="M10.0007 10.8334C9.74694 10.8304 9.49841 10.9053 9.28852 11.0478C9.07863 11.1904 8.91744 11.3938 8.82666 11.6308C8.73588 11.8677 8.71987 12.1267 8.78077 12.373C8.84168 12.6194 8.97658 12.8411 9.16732 13.0084V14.1667C9.16732 14.3878 9.25512 14.5997 9.4114 14.756C9.56768 14.9123 9.77964 15.0001 10.0007 15.0001C10.2217 15.0001 10.4336 14.9123 10.5899 14.756C10.7462 14.5997 10.834 14.3878 10.834 14.1667V13.0084C11.0247 12.8411 11.1596 12.6194 11.2205 12.373C11.2814 12.1267 11.2654 11.8677 11.1746 11.6308C11.0839 11.3938 10.9227 11.1904 10.7128 11.0478C10.5029 10.9053 10.2544 10.8304 10.0007 10.8334ZM14.1673 7.50008V5.83341C14.1673 4.72835 13.7283 3.66854 12.9469 2.88714C12.1655 2.10573 11.1057 1.66675 10.0007 1.66675C8.89558 1.66675 7.83577 2.10573 7.05437 2.88714C6.27297 3.66854 5.83398 4.72835 5.83398 5.83341V7.50008C5.17094 7.50008 4.53506 7.76347 4.06622 8.23231C3.59738 8.70115 3.33398 9.33704 3.33398 10.0001V15.8334C3.33398 16.4965 3.59738 17.1323 4.06622 17.6012C4.53506 18.07 5.17094 18.3334 5.83398 18.3334H14.1673C14.8304 18.3334 15.4662 18.07 15.9351 17.6012C16.4039 17.1323 16.6673 16.4965 16.6673 15.8334V10.0001C16.6673 9.33704 16.4039 8.70115 15.9351 8.23231C15.4662 7.76347 14.8304 7.50008 14.1673 7.50008ZM7.50065 5.83341C7.50065 5.17037 7.76404 4.53449 8.23288 4.06565C8.70172 3.59681 9.33761 3.33341 10.0007 3.33341C10.6637 3.33341 11.2996 3.59681 11.7684 4.06565C12.2373 4.53449 12.5007 5.17037 12.5007 5.83341V7.50008H7.50065V5.83341ZM15.0007 15.8334C15.0007 16.0544 14.9129 16.2664 14.7566 16.4227C14.6003 16.579 14.3883 16.6667 14.1673 16.6667H5.83398C5.61297 16.6667 5.40101 16.579 5.24473 16.4227C5.08845 16.2664 5.00065 16.0544 5.00065 15.8334V10.0001C5.00065 9.77907 5.08845 9.56711 5.24473 9.41083C5.40101 9.25455 5.61297 9.16675 5.83398 9.16675H14.1673C14.3883 9.16675 14.6003 9.25455 14.7566 9.41083C14.9129 9.56711 15.0007 9.77907 15.0007 10.0001V15.8334Z" fill="#817F7F"/>
</svg>
