<svg width="26" height="26" viewBox="0 0 26 26" fill="none" xmlns="http://www.w3.org/2000/svg">
<path d="M13.1607 18.0083C13.7116 18.0083 14.2399 17.7895 14.6295 17.3999C15.0191 17.0103 15.2379 16.482 15.2379 15.931C15.2379 15.3801 15.0191 14.8518 14.6295 14.4622C14.2399 14.0726 13.7116 13.8538 13.1607 13.8538C12.6097 13.8538 12.0814 14.0726 11.6918 14.4622C11.3022 14.8518 11.0834 15.3801 11.0834 15.931C11.0834 16.482 11.3022 17.0103 11.6918 17.3999C12.0814 17.7895 12.6097 18.0083 13.1607 18.0083ZM19.3925 8.66059C19.9434 8.66059 20.4718 8.87945 20.8613 9.26901C21.2509 9.65858 21.4697 10.1869 21.4697 10.7379V21.1242C21.4697 21.6752 21.2509 22.2035 20.8613 22.5931C20.4718 22.9826 19.9434 23.2015 19.3925 23.2015H6.92884C6.37791 23.2015 5.84955 22.9826 5.45998 22.5931C5.07042 22.2035 4.85156 21.6752 4.85156 21.1242V10.7379C4.85156 10.1869 5.07042 9.65858 5.45998 9.26901C5.84955 8.87945 6.37791 8.66059 6.92884 8.66059H7.96747V6.58332C7.96747 5.206 8.51461 3.88509 9.48852 2.91118C10.4624 1.93727 11.7833 1.39014 13.1607 1.39014C13.8426 1.39014 14.5179 1.52446 15.148 1.78544C15.7781 2.04643 16.3506 2.42895 16.8328 2.91118C17.315 3.39342 17.6975 3.96591 17.9585 4.59597C18.2195 5.22604 18.3538 5.90134 18.3538 6.58332V8.66059H19.3925ZM13.1607 3.46741C12.3343 3.46741 11.5417 3.79569 10.9574 4.38004C10.373 4.96438 10.0447 5.75693 10.0447 6.58332V8.66059H16.2766V6.58332C16.2766 5.75693 15.9483 4.96438 15.3639 4.38004C14.7796 3.79569 13.987 3.46741 13.1607 3.46741Z" fill="#6D5959"/>
</svg>
