<svg width="26" height="26" viewBox="0 0 26 26" fill="none" xmlns="http://www.w3.org/2000/svg">
<path d="M10.833 8.66666V6.5C10.833 5.92536 11.0613 5.37426 11.4676 4.96793C11.8739 4.5616 12.425 4.33333 12.9997 4.33333H20.583C21.1576 4.33333 21.7087 4.5616 22.1151 4.96793C22.5214 5.37426 22.7497 5.92536 22.7497 6.5V19.5C22.7497 20.0746 22.5214 20.6257 22.1151 21.0321C21.7087 21.4384 21.1576 21.6667 20.583 21.6667H12.9997C12.425 21.6667 11.8739 21.4384 11.4676 21.0321C11.0613 20.6257 10.833 20.0746 10.833 19.5V17.3333" stroke="#FF5B40" stroke-width="2" stroke-linecap="round" stroke-linejoin="round"/>
<path d="M16.25 13H3.25M3.25 13L6.5 9.75M3.25 13L6.5 16.25" stroke="#FF5B40" stroke-width="2" stroke-linecap="round" stroke-linejoin="round"/>
</svg>
