<svg width="24" height="25" viewBox="0 0 24 25" fill="none" xmlns="http://www.w3.org/2000/svg">
<path fill-rule="evenodd" clip-rule="evenodd" d="M10.3242 20.7103C10.8422 21.2873 11.5072 21.6043 12.1972 21.6043H12.1982C12.8912 21.6043 13.5592 21.2873 14.0782 20.7093C14.3562 20.4023 14.8302 20.3773 15.1372 20.6543C15.4452 20.9313 15.4702 21.4063 15.1932 21.7133C14.3852 22.6103 13.3222 23.1043 12.1982 23.1043H12.1962C11.0752 23.1033 10.0142 22.6093 9.20922 21.7123C8.93222 21.4053 8.95722 20.9303 9.26522 20.6543C9.57322 20.3763 10.0472 20.4013 10.3242 20.7103ZM12.247 1.60425C16.692 1.60425 19.678 5.06625 19.678 8.29925C19.678 9.96225 20.101 10.6673 20.55 11.4153C20.994 12.1533 21.497 12.9913 21.497 14.5753C21.148 18.6223 16.923 18.9523 12.247 18.9523C7.57102 18.9523 3.34503 18.6223 3.00001 14.6393C2.99703 12.9913 3.50003 12.1533 3.94403 11.4153L4.10077 11.1514C4.4867 10.4881 4.81603 9.7666 4.81603 8.29925C4.81603 5.06625 7.80202 1.60425 12.247 1.60425ZM12.247 3.10425C8.75202 3.10425 6.31602 5.84225 6.31602 8.29925C6.31602 10.3783 5.73902 11.3393 5.22903 12.1873C4.82003 12.8683 4.49703 13.4063 4.49703 14.5753C4.66403 16.4613 5.90902 17.4523 12.247 17.4523C18.55 17.4523 19.834 16.4173 20 14.5103C19.997 13.4063 19.674 12.8683 19.265 12.1873C18.755 11.3393 18.178 10.3783 18.178 8.29925C18.178 5.84225 15.742 3.10425 12.247 3.10425Z" fill="#545D62"/>
</svg>
