<svg width="24" height="24" viewBox="0 0 24 24" fill="none" xmlns="http://www.w3.org/2000/svg">
<path d="M13.5166 19.3664C14.0578 19.3822 14.5891 19.5126 15.0743 19.7486H15.1035C15.5088 20.0753 15.5777 20.6583 15.2592 21.0674C14.6795 21.8869 13.7519 22.4037 12.7377 22.4721C11.6958 22.5948 10.6465 22.3099 9.81697 21.6789C9.39037 21.39 9.11314 20.9329 9.05759 20.4271C9.05759 19.892 9.56385 19.6435 10.0312 19.5384C10.5785 19.4245 11.1365 19.3669 11.696 19.3664H13.5166ZM12.2898 1C15.6584 1 19.1341 3.40808 19.4943 6.89598C19.5527 7.61267 19.4943 8.35803 19.5527 9.08428C19.7438 10.0208 20.1838 10.8912 20.8281 11.607C21.2286 12.1954 21.4606 12.8786 21.4999 13.5851V13.8049C21.5058 14.7583 21.16 15.6816 20.5263 16.4041C19.7231 17.2525 18.6332 17.7856 17.4595 17.9044C13.9918 18.3439 10.4808 18.3439 7.01308 17.9044C5.82555 17.7946 4.72039 17.2608 3.90739 16.4041C3.29353 15.6746 2.97163 14.7505 3.00196 13.8049V13.5851C3.03996 12.8812 3.26483 12.1993 3.65426 11.607C4.30137 10.8905 4.74758 10.0211 4.94911 9.08428C5.00752 8.35803 4.94911 7.62223 5.00752 6.89598C5.37748 3.40808 8.78499 1 12.1925 1H12.2898Z" fill="#200E32"/>
</svg>
