<svg width="27" height="31" viewBox="0 0 27 31" fill="none" xmlns="http://www.w3.org/2000/svg">
<path d="M21.4451 20.8917L20.7728 18.4636C20.6391 17.9269 20.6458 16.9839 20.789 16.4705L21.673 13.3023C22.494 10.3595 21.4751 7.33524 19.3151 5.45032C18.9853 4.11656 17.9823 3.06737 16.6048 2.68304C15.2399 2.30222 13.8066 2.69867 12.8305 3.68159C10.0497 4.21498 7.65684 6.26035 6.84627 9.16559L5.96233 12.3338C5.81908 12.8472 5.33658 13.6574 4.94783 14.0349L3.09958 15.7733C2.36458 16.4725 1.99334 17.3678 2.06882 18.3066C2.13528 19.2295 2.66738 20.0798 3.50671 20.6514C5.7055 22.1557 8.1483 23.2692 10.7029 23.9819C13.2575 24.6947 15.9239 25.0067 18.5804 24.8705C19.5373 24.8271 20.3987 24.352 20.9654 23.5788C21.532 22.8056 21.7099 21.8294 21.4451 20.8917Z" fill="#015B98"/>
<path d="M13.8687 26.2284C12.9374 27.5342 11.2574 28.1858 9.62949 27.7316C8.6402 27.4556 7.77525 26.7824 7.28564 25.8764C6.98973 25.3889 6.82894 24.8042 6.79688 24.2418C6.95268 24.3123 7.11198 24.3702 7.28031 24.4442C7.55785 24.5621 7.84792 24.6835 8.14147 24.7924C8.83779 25.0542 9.55362 25.2944 10.2799 25.497C10.9937 25.6962 11.718 25.8578 12.4367 25.9908C12.7067 26.0391 12.9732 26.1 13.2341 26.1323C13.4414 26.1632 13.6488 26.194 13.8687 26.2284Z" fill="#015B98"/>
</svg>
