<svg width="24" height="24" viewBox="0 0 24 24" fill="none" xmlns="http://www.w3.org/2000/svg">
<path fill-rule="evenodd" clip-rule="evenodd" d="M13 3.5V9H18.5L13 3.5ZM4 4C4 2.89 4.89 2 6 2H14L20 8V20C20 20.5304 19.7893 21.0391 19.4142 21.4142C19.0391 21.7893 18.5304 22 18 22H6C5.46957 22 4.96086 21.7893 4.58579 21.4142C4.21071 21.0391 4 20.5304 4 20V4ZM11.25 12C11.95 12 12.55 12.41 12.83 13H9V14H12.98C12.86 14.85 12.13 15.5 11.25 15.5H9.5V16.5L12.865 20H14.25L10.885 16.5H11.25C12.685 16.5 13.865 15.4 13.99 14H15V13H13.895C13.79 12.63 13.61 12.29 13.37 12H15V11H9V12H11.25Z" fill="black"/>
</svg>
