<svg width="80" height="80" viewBox="0 0 80 80" fill="none" xmlns="http://www.w3.org/2000/svg">
<path fill-rule="evenodd" clip-rule="evenodd" d="M58.9645 3.96447C58.0268 4.90215 57.5 6.17392 57.5 7.5V22.5C57.5 23.8261 58.0268 25.0979 58.9645 26.0355C59.9021 26.9732 61.1739 27.5 62.5 27.5H65V75C65 75.663 65.2634 76.2989 65.7322 76.7678C66.2011 77.2366 66.837 77.5 67.5 77.5C68.163 77.5 68.7989 77.2366 69.2678 76.7678C69.7366 76.2989 70 75.663 70 75V27.5H72.5C73.8261 27.5 75.0979 26.9732 76.0355 26.0355C76.9732 25.0979 77.5 23.8261 77.5 22.5V7.5C77.5 6.17392 76.9732 4.90215 76.0355 3.96447C75.0979 3.02678 73.8261 2.5 72.5 2.5H62.5C61.1739 2.5 59.9021 3.02678 58.9645 3.96447ZM26.015 7.5H53.75V12.5H26.015C24.8776 12.5002 23.7742 12.8882 22.887 13.5999C21.9998 14.3117 21.3818 15.3047 21.135 16.415L18.115 30H57.99C58.9878 30.6019 60.0964 30.9972 61.25 31.1625V35H17.5C16.1739 35 14.9021 35.5268 13.9645 36.4645C13.0268 37.4021 12.5 38.6739 12.5 40V57.5H61.25V62.5H60V65C60 65.4388 60.1155 65.8699 60.335 66.25C60.5544 66.63 60.87 66.9456 61.25 67.165V72.3975C59.502 72.102 57.9151 71.1969 56.771 69.8427C55.6269 68.4885 54.9994 66.7728 55 65V62.5H25V65C25 66.9891 24.2098 68.8968 22.8033 70.3033C21.3968 71.7098 19.4891 72.5 17.5 72.5H15C13.0109 72.5 11.1032 71.7098 9.6967 70.3033C8.29018 68.8968 7.5 66.9891 7.5 65V40C7.49979 38.2007 7.98505 36.4346 8.90464 34.8881C9.82423 33.3415 11.1441 32.0717 12.725 31.2125L13.55 27.5H12.5C11.837 27.5 11.2011 27.2366 10.7322 26.7678C10.2634 26.2989 10 25.663 10 25C10 24.337 10.2634 23.7011 10.7322 23.2322C11.2011 22.7634 11.837 22.5 12.5 22.5H14.66L16.255 15.33C16.7486 13.1094 17.9847 11.1234 19.7591 9.6999C21.5334 8.27638 23.7402 7.50039 26.015 7.5ZM12.5 62.5V65C12.5 65.663 12.7634 66.2989 13.2322 66.7678C13.7011 67.2366 14.337 67.5 15 67.5H17.5C18.163 67.5 18.7989 67.2366 19.2678 66.7678C19.7366 66.2989 20 65.663 20 65V62.5H12.5ZM31.9822 48.2322C31.5134 48.7011 31.25 49.337 31.25 50C31.25 50.663 31.5134 51.2989 31.9822 51.7678C32.4511 52.2366 33.087 52.5 33.75 52.5H46.25C46.913 52.5 47.5489 52.2366 48.0178 51.7678C48.4866 51.2989 48.75 50.663 48.75 50C48.75 49.337 48.4866 48.7011 48.0178 48.2322C47.5489 47.7634 46.913 47.5 46.25 47.5H33.75C33.087 47.5 32.4511 47.7634 31.9822 48.2322ZM26.4017 46.4016C25.6984 47.1049 24.7446 47.5 23.75 47.5C22.7554 47.5 21.8016 47.1049 21.0983 46.4016C20.3951 45.6984 20 44.7446 20 43.75C20 42.7554 20.3951 41.8016 21.0983 41.0984C21.8016 40.3951 22.7554 40 23.75 40C24.7446 40 25.6984 40.3951 26.4017 41.0984C27.1049 41.8016 27.5 42.7554 27.5 43.75C27.5 44.7446 27.1049 45.6984 26.4017 46.4016ZM58.9016 46.4016C59.6049 45.6984 60 44.7446 60 43.75C60 42.7554 59.6049 41.8016 58.9016 41.0984C58.1984 40.3951 57.2446 40 56.25 40C55.2554 40 54.3016 40.3951 53.5984 41.0984C52.8951 41.8016 52.5 42.7554 52.5 43.75C52.5 44.7446 52.8951 45.6984 53.5984 46.4016C54.3016 47.1049 55.2554 47.5 56.25 47.5C57.2446 47.5 58.1984 47.1049 58.9016 46.4016ZM70.728 15.432C71.368 14.8133 71.688 14.04 71.688 13.112C71.688 12.152 71.3573 11.368 70.696 10.76C70.0453 10.152 69.0907 9.848 67.832 9.848H64.232V21H65.688V16.344H67.832C69.1333 16.344 70.0987 16.04 70.728 15.432ZM69.624 14.616C69.24 14.968 68.6427 15.144 67.832 15.144H65.688V11.048H67.832C69.4107 11.048 70.2 11.736 70.2 13.112C70.2 13.7627 70.008 14.264 69.624 14.616Z" fill="#8C8C8C"/>
</svg>
