<svg width="18" height="18" viewBox="0 0 18 18" fill="none" xmlns="http://www.w3.org/2000/svg">
<g clip-path="url(#clip0_661_663)">
<path d="M11.7705 0.600098H6.19238C5.19816 0.600098 4.3877 1.41057 4.3877 2.40479V15.5954C4.3877 16.5896 5.19816 17.4001 6.19238 17.4001H11.7705C12.7647 17.4001 13.5752 16.5896 13.5752 15.5954V2.40479C13.5752 1.41057 12.768 0.600098 11.7705 0.600098ZM8.30223 1.34166H9.68691C9.8477 1.34166 9.97566 1.48932 9.97566 1.66979C9.97566 1.85025 9.8477 1.99791 9.68691 1.99791H8.30223C8.14144 1.99791 8.01348 1.85025 8.01348 1.66979C8.01348 1.48932 8.14144 1.34166 8.30223 1.34166ZM6.99301 1.29244C7.19973 1.29244 7.37035 1.45979 7.37035 1.66979C7.37035 1.87979 7.19973 2.04385 6.99301 2.04385C6.78629 2.04385 6.61566 1.8765 6.61566 1.6665C6.61566 1.4565 6.78301 1.29244 6.99301 1.29244ZM8.99457 16.2549C8.65988 16.2549 8.39082 15.9859 8.39082 15.6512C8.39082 15.3165 8.65988 15.0474 8.99457 15.0474C9.32926 15.0474 9.59832 15.3165 9.59832 15.6512C9.59832 15.9859 9.32926 16.2549 8.99457 16.2549ZM12.5252 14.6931H5.44098V2.78541H12.5252V14.6931Z" fill="#FEC9C9"/>
</g>
<defs>
<clipPath id="clip0_661_663">
<rect width="16.8" height="16.8" fill="white" transform="translate(0.601562 0.600098)"/>
</clipPath>
</defs>
</svg>
