<svg width="16" height="16" viewBox="0 0 16 16" fill="none" xmlns="http://www.w3.org/2000/svg">
<path d="M12.3333 5.33333H3C1.89333 5.33333 1 6.22667 1 7.33333V10C1 10.7333 1.6 11.3333 2.33333 11.3333H3.66667V12.6667C3.66667 13.4 4.26667 14 5 14H10.3333C11.0667 14 11.6667 13.4 11.6667 12.6667V11.3333H13C13.7333 11.3333 14.3333 10.7333 14.3333 10V7.33333C14.3333 6.22667 13.44 5.33333 12.3333 5.33333ZM9.66667 12.6667H5.66667C5.3 12.6667 5 12.3667 5 12V9.33333H10.3333V12C10.3333 12.3667 10.0333 12.6667 9.66667 12.6667ZM12.3333 8C11.9667 8 11.6667 7.7 11.6667 7.33333C11.6667 6.96667 11.9667 6.66667 12.3333 6.66667C12.7 6.66667 13 6.96667 13 7.33333C13 7.7 12.7 8 12.3333 8ZM11 2H4.33333C3.96667 2 3.66667 2.3 3.66667 2.66667V4C3.66667 4.36667 3.96667 4.66667 4.33333 4.66667H11C11.3667 4.66667 11.6667 4.36667 11.6667 4V2.66667C11.6667 2.3 11.3667 2 11 2Z" fill="#6D2F02"/>
</svg>
