<svg width="26" height="26" viewBox="0 0 26 26" fill="none" xmlns="http://www.w3.org/2000/svg">
<path fill-rule="evenodd" clip-rule="evenodd" d="M6.50008 1.35425C3.65812 1.35425 1.35425 3.65812 1.35425 6.50008V16.2501C1.35425 19.0921 3.65812 21.3959 6.50008 21.3959H9.41353L12.4256 24.4079C12.7429 24.7252 13.2573 24.7252 13.5746 24.4079L16.5867 21.3959H19.5001C22.3421 21.3959 24.6459 19.0921 24.6459 16.2501V6.50008C24.6459 3.65812 22.3421 1.35425 19.5001 1.35425H6.50008ZM13.0001 5.14591C13.4488 5.14591 13.8126 5.50969 13.8126 5.95841V13.5417C13.8126 13.9905 13.4488 14.3542 13.0001 14.3542C12.5514 14.3542 12.1876 13.9905 12.1876 13.5417V5.95841C12.1876 5.50969 12.5514 5.14591 13.0001 5.14591ZM13.8126 16.2501C13.8126 15.8014 13.4488 15.4376 13.0001 15.4376C12.5514 15.4376 12.1876 15.8014 12.1876 16.2501V17.3334C12.1876 17.7821 12.5514 18.1459 13.0001 18.1459C13.4488 18.1459 13.8126 17.7821 13.8126 17.3334V16.2501Z" fill="#A0A9AB"/>
</svg>
