<svg width="26" height="26" viewBox="0 0 26 26" fill="none" xmlns="http://www.w3.org/2000/svg">
<path d="M21.24 18.4655C20.3341 20.0322 19.0323 21.3332 17.465 22.238C15.8977 23.1428 14.1201 23.6196 12.3103 23.6207C6.654 23.6207 2 18.9667 2 13.3103C2 7.654 6.6549 3 12.3103 3C17.9658 3 22.6207 7.654 22.6207 13.3103" stroke="#EA7F02" stroke-width="2" stroke-miterlimit="10"/>
<path d="M12.3097 8.37933C12.9042 8.37933 13.4743 8.61548 13.8946 9.03582C14.315 9.45616 14.5511 10.0263 14.5511 10.6207V13.7586H10.0684V10.6207C10.0684 10.0263 10.3045 9.45616 10.7248 9.03582C11.1452 8.61548 11.7153 8.37933 12.3097 8.37933Z" stroke="#EA7F02" stroke-width="2" stroke-miterlimit="10"/>
<path d="M16.3444 19.1379H8.27546C8.03768 19.1379 7.80964 19.0435 7.6415 18.8753C7.47336 18.7072 7.37891 18.4792 7.37891 18.2414V14.6552C7.37891 14.1796 7.56782 13.7235 7.90409 13.3872C8.24037 13.051 8.69645 12.8621 9.17201 12.8621H15.4479C15.9234 12.8621 16.3795 13.051 16.7158 13.3872C17.0521 13.7235 17.241 14.1796 17.241 14.6552V18.2414C17.241 18.4792 17.1465 18.7072 16.9784 18.8753C16.8102 19.0435 16.5822 19.1379 16.3444 19.1379Z" fill="#EA7F02"/>
<path d="M24.3508 12.8621C24.4108 12.8623 24.4696 12.8783 24.5214 12.9085C24.5732 12.9388 24.6161 12.9822 24.6457 13.0343C24.6754 13.0864 24.6908 13.1454 24.6903 13.2054C24.6898 13.2653 24.6736 13.3241 24.6431 13.3758L22.9136 16.2815C22.8834 16.332 22.8406 16.3738 22.7893 16.4029C22.7381 16.4319 22.6803 16.4471 22.6214 16.4471C22.5625 16.4471 22.5046 16.4319 22.4534 16.4029C22.4022 16.3738 22.3593 16.332 22.3291 16.2815L20.5996 13.3758C20.5689 13.3242 20.5524 13.2655 20.5518 13.2055C20.5511 13.1455 20.5664 13.0864 20.596 13.0342C20.6256 12.982 20.6685 12.9386 20.7203 12.9084C20.7721 12.8781 20.831 12.8622 20.891 12.8621H24.3508Z" fill="#EA7F02"/>
</svg>
