<svg width="56" height="56" viewBox="0 0 56 56" fill="none" xmlns="http://www.w3.org/2000/svg">
<rect width="56" height="56" rx="8" fill="#E6C8C8"/>
<path d="M41.9834 34.5474L37.5302 24.1329C36.7192 22.2264 35.5099 21.1451 34.1298 21.074C32.764 21.0028 31.4408 21.9561 30.4307 23.7772L27.7274 28.6288C27.1583 29.6532 26.3474 30.265 25.4653 30.3361C24.5689 30.4215 23.6726 29.9519 22.947 29.0272L22.634 28.6288C21.6238 27.3625 20.3718 26.7508 19.0913 26.8788C17.8109 27.0069 16.7153 27.889 15.9897 29.3259L13.5284 34.2344C12.6463 36.0128 12.7316 38.0758 13.7703 39.7547C14.8089 41.4335 16.6157 42.4437 18.5934 42.4437H36.7477C38.6541 42.4437 40.4326 41.4904 41.4854 39.8969C42.5667 38.3035 42.7374 36.2974 41.9834 34.5474Z" fill="#292D32"/>
<path d="M20.5706 22.5408C23.2265 22.5408 25.3794 20.3878 25.3794 17.7319C25.3794 15.076 23.2265 12.923 20.5706 12.923C17.9147 12.923 15.7617 15.076 15.7617 17.7319C15.7617 20.3878 17.9147 22.5408 20.5706 22.5408Z" fill="#292D32"/>
</svg>
