<svg width="20" height="20" viewBox="0 0 20 20" fill="none" xmlns="http://www.w3.org/2000/svg">
<g clip-path="url(#clip0_831_2717)">
<path d="M14.6766 12.9326C15.887 11.2809 16.4291 9.23318 16.1945 7.199C15.9599 5.16483 14.9659 3.29424 13.4114 1.96148C11.8568 0.628718 9.85634 -0.0679285 7.8102 0.0109129C5.76407 0.0897544 3.82314 0.93827 2.37575 2.3867C0.928357 3.83513 0.0812322 5.77666 0.00385503 7.82286C-0.0735221 9.86906 0.624555 11.869 1.95843 13.4226C3.2923 14.9762 5.16359 15.9689 7.19793 16.202C9.23227 16.4352 11.2796 15.8916 12.9304 14.6801H12.9292C12.9667 14.7301 13.0067 14.7776 13.0517 14.8238L17.8641 19.6363C18.0985 19.8709 18.4165 20.0027 18.7481 20.0028C19.0797 20.0029 19.3977 19.8713 19.6323 19.6369C19.8668 19.4026 19.9987 19.0846 19.9988 18.753C19.9989 18.4214 19.8673 18.1034 19.6329 17.8688L14.8204 13.0563C14.7757 13.0111 14.7277 12.9705 14.6766 12.9326ZM14.9991 8.12757C14.9991 9.03041 14.8213 9.9244 14.4758 10.7585C14.1303 11.5926 13.6239 12.3505 12.9855 12.9889C12.3471 13.6273 11.5892 14.1337 10.7551 14.4792C9.92099 14.8247 9.02699 15.0026 8.12416 15.0026C7.22132 15.0026 6.32733 14.8247 5.49321 14.4792C4.6591 14.1337 3.90121 13.6273 3.26281 12.9889C2.6244 12.3505 2.118 11.5926 1.7725 10.7585C1.42699 9.9244 1.24917 9.03041 1.24917 8.12757C1.24917 6.3042 1.9735 4.55552 3.26281 3.26621C4.55212 1.9769 6.3008 1.25257 8.12416 1.25257C9.94752 1.25257 11.6962 1.9769 12.9855 3.26621C14.2748 4.55552 14.9991 6.3042 14.9991 8.12757Z" fill="#646464"/>
</g>
<defs>
<clipPath id="clip0_831_2717">
<rect width="20" height="20" fill="white"/>
</clipPath>
</defs>
</svg>
