<svg width="24" height="24" viewBox="0 0 24 24" fill="none" xmlns="http://www.w3.org/2000/svg">
<path fill-rule="evenodd" clip-rule="evenodd" d="M13.8726 2.152C13.4832 2 12.9885 2 12.0001 2C11.0117 2 10.5169 2 10.1275 2.152C9.60902 2.35421 9.19632 2.74377 8.98014 3.235C8.8812 3.458 8.8433 3.719 8.82751 4.098C8.82049 4.3726 8.73987 4.64097 8.59325 4.87772C8.44664 5.11447 8.23889 5.31178 7.98964 5.451C7.7357 5.5851 7.45023 5.65615 7.15969 5.65754C6.86915 5.65894 6.58295 5.59065 6.32758 5.459C5.9718 5.281 5.71391 5.183 5.45918 5.151C4.90189 5.08148 4.33824 5.2238 3.89081 5.547C3.55608 5.789 3.30872 6.193 2.81505 7C2.32032 7.807 2.07401 8.21 2.01823 8.605C1.94454 9.131 2.09612 9.663 2.43927 10.084C2.59505 10.276 2.81505 10.437 3.15504 10.639C3.65713 10.936 3.97923 11.442 3.97923 12C3.97923 12.558 3.65713 13.064 3.15609 13.36C2.81505 13.563 2.59505 13.724 2.43821 13.916C2.26883 14.1239 2.14451 14.3617 2.07242 14.6156C2.00033 14.8694 1.98191 15.1343 2.01823 15.395C2.07401 15.789 2.32032 16.193 2.81505 17C3.30977 17.807 3.55608 18.21 3.89081 18.453C4.33711 18.776 4.90131 18.918 5.45918 18.849C5.71391 18.817 5.9718 18.719 6.32758 18.541C6.58308 18.4092 6.86948 18.3408 7.16022 18.3422C7.45096 18.3436 7.73662 18.4147 7.99069 18.549C8.50226 18.829 8.80541 19.344 8.82751 19.902C8.8433 20.282 8.8812 20.542 8.98014 20.765C9.19487 21.255 9.60749 21.645 10.1275 21.848C10.5169 22 11.0117 22 12.0001 22C12.9885 22 13.4832 22 13.8726 21.848C14.3911 21.6458 14.8038 21.2562 15.02 20.765C15.1189 20.542 15.1568 20.282 15.1726 19.902C15.1937 19.344 15.4979 18.828 16.0105 18.549C16.2644 18.4149 16.5499 18.3439 16.8404 18.3425C17.131 18.3411 17.4172 18.4093 17.6725 18.541C18.0283 18.719 18.2862 18.817 18.5409 18.849C19.0988 18.919 19.663 18.776 20.1093 18.453C20.444 18.211 20.6914 17.807 21.1851 17C21.6798 16.193 21.9261 15.79 21.9819 15.395C22.0181 15.1343 21.9995 14.8693 21.9272 14.6155C21.8549 14.3616 21.7304 14.1239 21.5608 13.916C21.4051 13.724 21.1851 13.563 20.8451 13.361C20.343 13.064 20.0209 12.558 20.0209 12C20.0209 11.442 20.343 10.936 20.844 10.64C21.1851 10.437 21.4051 10.276 21.5619 10.084C21.7313 9.87606 21.8556 9.63829 21.9277 9.38443C21.9998 9.13057 22.0182 8.86566 21.9819 8.605C21.9261 8.211 21.6798 7.807 21.1851 7C20.6903 6.193 20.444 5.79 20.1093 5.547C19.6619 5.2238 19.0982 5.08148 18.5409 5.151C18.2862 5.183 18.0283 5.281 17.6725 5.459C17.417 5.59083 17.1306 5.65922 16.8399 5.65782C16.5492 5.65642 16.2635 5.58528 16.0094 5.451C15.7604 5.31166 15.5528 5.11429 15.4064 4.87755C15.26 4.64081 15.1795 4.37251 15.1726 4.098C15.1568 3.718 15.1189 3.458 15.02 3.235C14.913 2.99174 14.7566 2.77088 14.5597 2.58506C14.3629 2.39923 14.1294 2.25208 13.8726 2.152ZM12.0001 15C13.7579 15 15.1821 13.657 15.1821 12C15.1821 10.343 13.7569 9 12.0001 9C10.2422 9 8.81804 10.343 8.81804 12C8.81804 13.657 10.2433 15 12.0001 15Z" fill="#474747"/>
</svg>
