<svg width="26" height="26" viewBox="0 0 26 26" fill="none" xmlns="http://www.w3.org/2000/svg">
<path fill-rule="evenodd" clip-rule="evenodd" d="M12.3912 3.25C11.7173 3.25 11.1713 3.796 11.1713 4.46875L11.0251 5.4925C10.9951 5.70192 10.9111 5.89992 10.7814 6.06704C10.6517 6.23416 10.4807 6.36463 10.2852 6.44562C10.0898 6.52662 9.87665 6.55535 9.66675 6.52898C9.45684 6.50261 9.25742 6.42206 9.08808 6.29525L8.26042 5.6745C8.14725 5.56133 8.01289 5.47155 7.86502 5.4103C7.71716 5.34906 7.55868 5.31753 7.39863 5.31753C7.23858 5.31753 7.08009 5.34906 6.93223 5.4103C6.78436 5.47155 6.65 5.56133 6.53683 5.6745L5.6745 6.53683C5.19783 7.0135 5.19783 7.78375 5.6745 8.25933L6.29525 9.08808C6.42205 9.25734 6.50261 9.45669 6.52904 9.66651C6.55546 9.87634 6.52683 10.0894 6.44595 10.2848C6.36508 10.4803 6.23474 10.6513 6.06777 10.781C5.90079 10.9108 5.70291 10.9949 5.49358 11.0251L4.46875 11.1724C3.796 11.1724 3.25 11.7173 3.25 12.3901V13.6099C3.25 14.2816 3.796 14.8276 4.46875 14.8276L5.4925 14.9749C5.70192 15.0049 5.89992 15.0889 6.06704 15.2186C6.23416 15.3483 6.36463 15.5193 6.44562 15.7148C6.52662 15.9102 6.55535 16.1233 6.52898 16.3333C6.50261 16.5432 6.42206 16.7426 6.29525 16.9119L5.6745 17.7396C5.19783 18.2163 5.19783 18.9876 5.6745 19.4632L6.53683 20.3255C7.0135 20.8022 7.78375 20.8022 8.25933 20.3255L9.08808 19.7048C9.25734 19.578 9.45669 19.4974 9.66651 19.471C9.87634 19.4445 10.0894 19.4732 10.2848 19.554C10.4803 19.6349 10.6513 19.7653 10.781 19.9322C10.9108 20.0992 10.9949 20.2971 11.0251 20.5064L11.1724 21.5312C11.1724 22.204 11.7173 22.75 12.3901 22.75H13.6099C14.2816 22.75 14.8276 22.204 14.8276 21.5312L14.9749 20.5075C15.0049 20.2981 15.0889 20.1001 15.2186 19.933C15.3483 19.7658 15.5193 19.6354 15.7148 19.5544C15.9102 19.4734 16.1233 19.4447 16.3333 19.471C16.5432 19.4974 16.7426 19.5779 16.9119 19.7048L17.7396 20.3255C18.2163 20.8022 18.9876 20.8022 19.4632 20.3255L20.3255 19.4632C20.8011 18.9865 20.8011 18.2163 20.3255 17.7407L19.7048 16.9119C19.578 16.7427 19.4974 16.5433 19.471 16.3335C19.4445 16.1237 19.4732 15.9106 19.554 15.7152C19.6349 15.5197 19.7653 15.3487 19.9322 15.219C20.0992 15.0892 20.2971 15.0051 20.5064 14.9749L21.5312 14.8276C22.204 14.8276 22.75 14.2827 22.75 13.6099V12.3901C22.75 11.7184 22.204 11.1724 21.5312 11.1724L20.5075 11.0251C20.2981 10.9951 20.1001 10.9111 19.933 10.7814C19.7658 10.6517 19.6354 10.4807 19.5544 10.2852C19.4734 10.0898 19.4447 9.87665 19.471 9.66675C19.4974 9.45684 19.5779 9.25742 19.7048 9.08808L20.3255 8.26042C20.8011 7.78375 20.8011 7.01242 20.3255 6.53683L19.4632 5.6745C19.2347 5.44627 18.9249 5.31807 18.6019 5.31807C18.2789 5.31807 17.9692 5.44627 17.7407 5.6745L16.9119 6.29525C16.7427 6.42205 16.5433 6.50261 16.3335 6.52904C16.1237 6.55546 15.9106 6.52683 15.7152 6.44595C15.5197 6.36508 15.3487 6.23474 15.219 6.06777C15.0892 5.90079 15.0051 5.70291 14.9749 5.49358L14.8276 4.46875C14.8276 3.796 14.2827 3.25 13.6099 3.25H12.3912ZM13 15.4375C13.6465 15.4375 14.2665 15.1807 14.7236 14.7236C15.1807 14.2665 15.4375 13.6465 15.4375 13C15.4375 12.3535 15.1807 11.7335 14.7236 11.2764C14.2665 10.8193 13.6465 10.5625 13 10.5625C12.3535 10.5625 11.7335 10.8193 11.2764 11.2764C10.8193 11.7335 10.5625 12.3535 10.5625 13C10.5625 13.6465 10.8193 14.2665 11.2764 14.7236C11.7335 15.1807 12.3535 15.4375 13 15.4375Z" fill="#A0A9AB"/>
</svg>
