<svg width="138" height="18" viewBox="0 0 138 18" fill="none" xmlns="http://www.w3.org/2000/svg">
<path d="M9 15.0745L13.3649 17.8368C14.1642 18.343 15.1424 17.5947 14.932 16.6482L13.7751 11.4537L17.6351 7.95405C18.3398 7.31575 17.9611 6.10517 17.0356 6.02813L11.9555 5.57692L9.96763 0.66857C9.61003 -0.222857 8.38997 -0.222857 8.03237 0.66857L6.04451 5.56591L0.964434 6.01713C0.038871 6.09416 -0.339768 7.30474 0.364921 7.94305L4.22494 11.4427L3.06799 16.6372C2.85763 17.5837 3.83578 18.332 4.63513 17.8258L9 15.0745Z" fill="#F19316"/>
<path d="M39 15.0745L43.3649 17.8368C44.1642 18.343 45.1424 17.5947 44.932 16.6482L43.7751 11.4537L47.6351 7.95405C48.3398 7.31575 47.9611 6.10517 47.0356 6.02813L41.9555 5.57692L39.9676 0.66857C39.61 -0.222857 38.39 -0.222857 38.0324 0.66857L36.0445 5.56591L30.9644 6.01713C30.0389 6.09416 29.6602 7.30474 30.3649 7.94305L34.2249 11.4427L33.068 16.6372C32.8576 17.5837 33.8358 18.332 34.6351 17.8258L39 15.0745Z" fill="#F19316"/>
<path d="M69 15.0745L73.3649 17.8368C74.1642 18.343 75.1424 17.5947 74.932 16.6482L73.7751 11.4537L77.6351 7.95405C78.3398 7.31575 77.9611 6.10517 77.0356 6.02813L71.9555 5.57692L69.9676 0.66857C69.61 -0.222857 68.39 -0.222857 68.0324 0.66857L66.0445 5.56591L60.9644 6.01713C60.0389 6.09416 59.6602 7.30474 60.3649 7.94305L64.2249 11.4427L63.068 16.6372C62.8576 17.5837 63.8358 18.332 64.6351 17.8258L69 15.0745Z" fill="#F19316"/>
<path d="M99 15.0745L103.365 17.8368C104.164 18.343 105.142 17.5947 104.932 16.6482L103.775 11.4537L107.635 7.95405C108.34 7.31575 107.961 6.10517 107.036 6.02813L101.955 5.57692L99.9676 0.66857C99.61 -0.222857 98.39 -0.222857 98.0324 0.66857L96.0445 5.56591L90.9644 6.01713C90.0389 6.09416 89.6602 7.30474 90.3649 7.94305L94.2249 11.4427L93.068 16.6372C92.8576 17.5837 93.8358 18.332 94.6351 17.8258L99 15.0745Z" fill="#F19316"/>
<path d="M129 15.0745L133.365 17.8368C134.164 18.343 135.142 17.5947 134.932 16.6482L133.775 11.4537L137.635 7.95405C138.34 7.31575 137.961 6.10517 137.036 6.02813L131.955 5.57692L129.968 0.66857C129.61 -0.222857 128.39 -0.222857 128.032 0.66857L126.045 5.56591L120.964 6.01713C120.039 6.09416 119.66 7.30474 120.365 7.94305L124.225 11.4427L123.068 16.6372C122.858 17.5837 123.836 18.332 124.635 17.8258L129 15.0745Z" fill="#F19316"/>
</svg>
