<svg width="32" height="32" viewBox="0 0 32 32" fill="none" xmlns="http://www.w3.org/2000/svg">
<path d="M27.7963 19.8072L21.9075 17.1685L21.8913 17.161C21.5856 17.0302 21.2521 16.9778 20.921 17.0083C20.5899 17.0389 20.2716 17.1515 19.995 17.336C19.9624 17.3575 19.9311 17.3809 19.9013 17.406L16.8588 19.9997C14.9313 19.0635 12.9413 17.0885 12.005 15.186L14.6025 12.0972C14.6275 12.066 14.6513 12.0347 14.6738 12.001C14.8543 11.7251 14.9638 11.4089 14.9926 11.0805C15.0214 10.752 14.9686 10.4216 14.8388 10.1185V10.1035L12.1925 4.20475C12.0209 3.80883 11.7259 3.47902 11.3515 3.26455C10.9771 3.05007 10.5433 2.96245 10.115 3.01475C8.42122 3.23763 6.86649 4.06946 5.74118 5.35487C4.61587 6.64028 3.99695 8.29136 4.00001 9.99975C4.00001 19.9247 12.075 27.9997 22 27.9997C23.7084 28.0028 25.3595 27.3839 26.6449 26.2586C27.9303 25.1333 28.7621 23.5785 28.985 21.8847C29.0374 21.4566 28.95 21.0229 28.7357 20.6485C28.5215 20.2741 28.1919 19.979 27.7963 19.8072ZM22 25.9997C17.758 25.9951 13.691 24.3079 10.6914 21.3083C7.69184 18.3088 6.00464 14.2418 6.00001 9.99975C5.99531 8.77911 6.43507 7.59849 7.23718 6.67838C8.03929 5.75827 9.14889 5.16158 10.3588 4.99975C10.3583 5.00473 10.3583 5.00976 10.3588 5.01475L12.9838 10.8897L10.4 13.9822C10.3738 14.0124 10.35 14.0446 10.3288 14.0785C10.1407 14.3671 10.0303 14.6995 10.0084 15.0433C9.9865 15.3872 10.0538 15.7308 10.2038 16.041C11.3363 18.3572 13.67 20.6735 16.0113 21.8047C16.3237 21.9533 16.6694 22.0183 17.0144 21.9933C17.3595 21.9683 17.6922 21.8543 17.98 21.6622C18.0121 21.6406 18.043 21.6173 18.0725 21.5922L21.1113 18.9997L26.9863 21.631H27C26.8402 22.8426 26.2444 23.9544 25.3241 24.7585C24.4038 25.5626 23.2221 26.0039 22 25.9997Z" fill="#F5F5F5"/>
</svg>
