<svg width="18" height="18" viewBox="0 0 18 18" fill="none" xmlns="http://www.w3.org/2000/svg">
<path d="M9 15.75C8.0625 15.75 7.18425 15.5718 6.36525 15.2153C5.54625 14.8588 4.83375 14.3778 4.22775 13.7723C3.62175 13.1658 3.14075 12.4532 2.78475 11.6347C2.42875 10.8162 2.2505 9.938 2.25 9C2.25 8.0625 2.42825 7.18425 2.78475 6.36525C3.14125 5.54625 3.62225 4.83375 4.22775 4.22775C4.83425 3.62175 5.54675 3.14075 6.36525 2.78475C7.18375 2.42875 8.062 2.2505 9 2.25C10.025 2.25 10.997 2.46875 11.916 2.90625C12.835 3.34375 13.613 3.9625 14.25 4.7625V3.75C14.25 3.5375 14.322 3.35925 14.466 3.21525C14.61 3.07125 14.788 2.9995 15 3C15.2125 3 15.3908 3.072 15.5348 3.216C15.6788 3.36 15.7505 3.538 15.75 3.75V6.75C15.75 6.9625 15.678 7.14075 15.534 7.28475C15.39 7.42875 15.212 7.5005 15 7.5H12C11.7875 7.5 11.6093 7.428 11.4653 7.284C11.3213 7.14 11.2495 6.962 11.25 6.75C11.25 6.5375 11.322 6.35925 11.466 6.21525C11.61 6.07125 11.788 5.9995 12 6H13.3125C12.8 5.3 12.1688 4.75 11.4188 4.35C10.6688 3.95 9.8625 3.75 9 3.75C7.5375 3.75 6.29675 4.2595 5.27775 5.2785C4.25875 6.2975 3.7495 7.538 3.75 9C3.75 10.4625 4.2595 11.7032 5.2785 12.7222C6.2975 13.7412 7.538 14.2505 9 14.25C10.1875 14.25 11.25 13.8938 12.1875 13.1813C13.125 12.4688 13.7438 11.55 14.0438 10.425C14.1063 10.225 14.2188 10.075 14.3813 9.975C14.5438 9.875 14.725 9.8375 14.925 9.8625C15.1375 9.8875 15.3063 9.978 15.4313 10.134C15.5563 10.29 15.5938 10.462 15.5438 10.65C15.1813 12.1375 14.3938 13.3595 13.1813 14.316C11.9688 15.2725 10.575 15.7505 9 15.75ZM9.75 8.7L11.625 10.575C11.7625 10.7125 11.8313 10.8875 11.8313 11.1C11.8313 11.3125 11.7625 11.4875 11.625 11.625C11.4875 11.7625 11.3125 11.8312 11.1 11.8312C10.8875 11.8312 10.7125 11.7625 10.575 11.625L8.475 9.525C8.4 9.45 8.34375 9.36575 8.30625 9.27225C8.26875 9.17875 8.25 9.08175 8.25 8.98125V6C8.25 5.7875 8.322 5.60925 8.466 5.46525C8.61 5.32125 8.788 5.2495 9 5.25C9.2125 5.25 9.39075 5.322 9.53475 5.466C9.67875 5.61 9.7505 5.788 9.75 6V8.7Z" fill="#008698"/>
</svg>
