<svg width="20" height="18" viewBox="0 0 20 18" fill="none" xmlns="http://www.w3.org/2000/svg">
<path d="M16.4818 12.6672C16.2055 11.5063 15.4661 10.462 14.3884 9.71106C13.3107 8.9601 11.961 8.54852 10.5675 8.5459H9.43228C8.03875 8.54846 6.68903 8.96003 5.61136 9.71099C4.53369 10.462 3.79421 11.5062 3.51797 12.6672C3.40296 13.1554 3.41685 13.6591 3.55864 14.1422C3.70043 14.6252 3.96658 15.0755 4.3379 15.4605C4.70921 15.8455 5.17644 16.1556 5.70586 16.3685C6.23528 16.5815 6.8137 16.6918 7.3994 16.6917H12.6008C13.1864 16.6917 13.7648 16.5812 14.2941 16.3683C14.8234 16.1553 15.2905 15.8451 15.6618 15.4602C16.0331 15.0752 16.2992 14.625 16.441 14.142C16.5828 13.659 16.5967 13.1553 16.4818 12.6672Z" fill="#00BBFF"/>
<path d="M9.99967 9.60848C12.646 9.60848 14.7913 7.78497 14.7913 5.53556C14.7913 3.28615 12.646 1.46265 9.99967 1.46265C7.35331 1.46265 5.20801 3.28615 5.20801 5.53556C5.20801 7.78497 7.35331 9.60848 9.99967 9.60848Z" fill="#A3A3A3"/>
<path d="M9.99968 9.60848C9.05197 9.60848 8.12555 9.36961 7.33757 8.92207C6.54958 8.47453 5.93542 7.83843 5.57275 7.0942C5.21008 6.34997 5.11519 5.53105 5.30008 4.74098C5.48497 3.95091 5.94133 3.22519 6.61146 2.65558C7.28158 2.08597 8.13538 1.69806 9.06487 1.54091C9.99436 1.38375 10.9578 1.46441 11.8334 1.77268C12.7089 2.08095 13.4573 2.60299 13.9838 3.27277C14.5103 3.94256 14.7913 4.73002 14.7913 5.53556C14.79 6.61542 14.2847 7.65072 13.3864 8.41429C12.4881 9.17787 11.2701 9.60734 9.99968 9.60848ZM9.99968 2.52515C9.2992 2.52515 8.61446 2.70171 8.03203 3.0325C7.44961 3.36328 6.99566 3.83345 6.7276 4.38353C6.45954 4.93361 6.38941 5.5389 6.52606 6.12287C6.66272 6.70683 7.00003 7.24324 7.49534 7.66425C7.99065 8.08527 8.62172 8.37198 9.30873 8.48814C9.99575 8.6043 10.7079 8.54468 11.355 8.31683C12.0022 8.08898 12.5553 7.70312 12.9445 7.20806C13.3336 6.713 13.5413 6.13097 13.5413 5.53556C13.5404 4.73741 13.1669 3.97218 12.5029 3.4078C11.839 2.84342 10.9387 2.52598 9.99968 2.52515Z" fill="#232323"/>
<path d="M12.6007 16.6917H7.39888C6.81325 16.6917 6.23492 16.5812 5.7056 16.3683C5.17628 16.1553 4.70915 15.8451 4.33789 15.4602C3.96664 15.0752 3.70051 14.625 3.55871 14.142C3.4169 13.659 3.40295 13.1553 3.51785 12.6672C3.794 11.5063 4.5334 10.462 5.611 9.71102C6.6886 8.96005 8.03828 8.54847 9.43176 8.5459H10.5678C11.9613 8.54847 13.311 8.96005 14.3886 9.71102C15.4662 10.462 16.2056 11.5063 16.4817 12.6672C16.5966 13.1553 16.5827 13.659 16.4409 14.142C16.2991 14.625 16.0329 15.0752 15.6617 15.4602C15.2904 15.8451 14.8233 16.1553 14.294 16.3683C13.7647 16.5812 13.1863 16.6917 12.6007 16.6917ZM9.43176 9.6084C8.32699 9.61052 7.25699 9.9369 6.40271 10.5323C5.54843 11.1278 4.96229 11.9557 4.74342 12.8761C4.66495 13.2101 4.67462 13.5546 4.77171 13.885C4.8688 14.2154 5.05091 14.5233 5.30491 14.7867C5.5589 15.05 5.87846 15.2622 6.24056 15.4079C6.60265 15.5536 6.99826 15.6292 7.39888 15.6292H12.6007C13.0013 15.6292 13.3969 15.5536 13.759 15.4079C14.1211 15.2622 14.4407 15.05 14.6947 14.7867C14.9487 14.5233 15.1308 14.2154 15.2278 13.885C15.3249 13.5546 15.3346 13.2101 15.2561 12.8761C15.0373 11.9557 14.4511 11.1278 13.5968 10.5323C12.7426 9.9369 11.6726 9.61052 10.5678 9.6084H9.43176Z" fill="#232323"/>
</svg>
