<svg width="26" height="26" viewBox="0 0 26 26" fill="none" xmlns="http://www.w3.org/2000/svg">
<path d="M16.5435 14.587C18.2174 14.587 19.587 13.2174 19.587 11.5435C19.587 9.86957 18.2174 8.5 16.5435 8.5C14.8696 8.5 13.5 9.86957 13.5 11.5435C13.5 13.2174 14.8696 14.587 16.5435 14.587ZM16.5435 9.80435C17.5 9.80435 18.2826 10.587 18.2826 11.5435C18.2826 12.5 17.5 13.2826 16.5435 13.2826C15.587 13.2826 14.8043 12.5 14.8043 11.5435C14.8043 10.587 15.587 9.80435 16.5435 9.80435ZM6.41304 10.1304C6.41304 9.76087 6.69565 9.47826 7.06522 9.47826H10.8478C11.2174 9.47826 11.5 9.76087 11.5 10.1304C11.5 10.5 11.2174 10.7826 10.8478 10.7826H7.06522C6.69565 10.7826 6.41304 10.5 6.41304 10.1304ZM10.8478 13.1739H7.06522C6.69565 13.1739 6.41304 12.8913 6.41304 12.5217C6.41304 12.1522 6.69565 11.8696 7.06522 11.8696H10.8478C11.2174 11.8696 11.5 12.1522 11.5 12.5217C11.5 12.8913 11.2174 13.1739 10.8478 13.1739ZM9.8913 14.913C9.8913 15.2826 9.6087 15.5652 9.23913 15.5652H7.06522C6.69565 15.5652 6.41304 15.2826 6.41304 14.913C6.41304 14.5435 6.69565 14.2609 7.06522 14.2609H9.26087C9.6087 14.2609 9.8913 14.5435 9.8913 14.913ZM23 7.43478C23 6.65217 22.3478 6 21.5652 6H4.43478C3.65217 6 3 6.65217 3 7.43478V17.6087C3 18.3913 3.65217 19.0435 4.43478 19.0435H21.5652C22.3478 19.0435 23 18.3913 23 17.6087V7.43478ZM4.73913 7.73913H21.2609V16.8043C20.3261 15.8913 18.7174 15.2826 18.087 15.0652C17.9565 15.0217 17.8043 15.0217 17.6522 15.0652L16.5435 15.4565L15.4348 15.0652C15.3043 15.0217 15.1522 15.0435 15 15.087C14.2826 15.3261 12.2391 16 11.4565 17.3043H4.73913V7.73913ZM13.3696 17.3043C13.8696 16.8696 14.5217 16.6522 15.2174 16.3913L16.3261 16.7826C16.4565 16.8261 16.6304 16.8261 16.7609 16.7826L17.8696 16.413C18.5652 16.6739 19.2174 16.8913 19.7174 17.3261H13.3696V17.3043Z" fill="#A0A9AB"/>
</svg>
