<svg width="20" height="20" viewBox="0 0 20 20" fill="none" xmlns="http://www.w3.org/2000/svg">
<path d="M13.0877 5.43746C13.0877 5.60934 13.076 5.78122 13.0545 5.95114C13.0643 5.88278 13.0741 5.81247 13.0819 5.74411C13.035 6.08395 12.9452 6.41403 12.8143 6.73043C12.8397 6.66793 12.867 6.60543 12.8924 6.54293C12.7616 6.85153 12.5936 7.14059 12.3885 7.40621L12.5116 7.24801C12.3084 7.50973 12.0721 7.74606 11.8104 7.94918L11.9686 7.82614C11.703 8.02926 11.4139 8.19918 11.1053 8.33004C11.1678 8.30465 11.2303 8.27731 11.2928 8.25192C10.9764 8.38278 10.6463 8.47262 10.3065 8.5195C10.3748 8.50973 10.4452 8.49996 10.5135 8.49215C10.1717 8.53707 9.82797 8.53707 9.48618 8.49215C9.55453 8.50192 9.62485 8.51168 9.69321 8.5195C9.35336 8.47262 9.02328 8.38278 8.70688 8.25192C8.76938 8.27731 8.83188 8.30465 8.89438 8.33004C8.58578 8.19918 8.29672 8.03121 8.0311 7.82614L8.1893 7.94918C7.92758 7.74606 7.69125 7.50973 7.48813 7.24801L7.61118 7.40621C7.40805 7.14059 7.23813 6.85153 7.10727 6.54293C7.13266 6.60543 7.16 6.66793 7.18539 6.73043C7.05453 6.41403 6.96469 6.08395 6.91782 5.74411C6.92758 5.81247 6.93735 5.88278 6.94516 5.95114C6.90024 5.60934 6.90024 5.26559 6.94516 4.92379C6.93539 4.99215 6.92563 5.06247 6.91782 5.13082C6.96469 4.79098 7.05453 4.4609 7.18539 4.1445C7.16 4.207 7.13266 4.2695 7.10727 4.332C7.23813 4.0234 7.4061 3.73434 7.61118 3.46872L7.48813 3.62692C7.69125 3.3652 7.92758 3.12887 8.1893 2.92575L8.0311 3.04879C8.29672 2.84567 8.58578 2.67575 8.89438 2.54489C8.83188 2.57028 8.76938 2.59762 8.70688 2.62301C9.02328 2.49215 9.35336 2.40231 9.69321 2.35543C9.62485 2.3652 9.55453 2.37497 9.48618 2.38278C9.82797 2.33786 10.1717 2.33786 10.5135 2.38278C10.4452 2.37301 10.3748 2.36325 10.3065 2.35543C10.6463 2.40231 10.9764 2.49215 11.2928 2.62301C11.2303 2.59762 11.1678 2.57028 11.1053 2.54489C11.4139 2.67575 11.703 2.84372 11.9686 3.04879L11.8104 2.92575C12.0721 3.12887 12.3084 3.3652 12.5116 3.62692L12.3885 3.46872C12.5916 3.73434 12.7616 4.0234 12.8924 4.332C12.867 4.2695 12.8397 4.207 12.8143 4.1445C12.9452 4.4609 13.035 4.79098 13.0819 5.13082C13.0721 5.06247 13.0623 4.99215 13.0545 4.92379C13.076 5.09372 13.0858 5.26559 13.0877 5.43746C13.0897 5.84567 13.4452 6.23825 13.869 6.21871C14.2909 6.19918 14.6522 5.87496 14.6502 5.43746C14.6463 4.50192 14.3651 3.54489 13.8143 2.78317C13.6659 2.57809 13.5077 2.37692 13.3319 2.19528C13.1541 2.01168 12.9588 1.85348 12.7557 1.69918C12.3866 1.41793 11.9745 1.2109 11.537 1.05075C9.77328 0.404262 7.64633 0.980434 6.45297 2.43356C6.28891 2.63278 6.13266 2.83981 5.99985 3.06247C5.86703 3.28317 5.76352 3.51754 5.66782 3.75582C5.48813 4.19723 5.39633 4.66598 5.35922 5.14059C5.28696 6.07028 5.52914 7.04098 6.01352 7.83785C6.48032 8.60739 7.18539 9.26754 8.00961 9.64059C8.2518 9.74996 8.49985 9.85153 8.75766 9.92379C9.01352 9.99411 9.27328 10.0332 9.53696 10.0644C10.0174 10.1211 10.5077 10.082 10.9823 9.98629C12.785 9.6191 14.2948 8.06637 14.5741 6.24411C14.6151 5.97848 14.6463 5.71286 14.6463 5.44332C14.6483 5.03512 14.285 4.64254 13.8651 4.66207C13.4432 4.67575 13.0877 4.99997 13.0877 5.43746ZM15.6795 17.6504H5.65805C5.21469 17.6504 4.77133 17.6543 4.32797 17.6504C4.27914 17.6504 4.23032 17.6464 4.18344 17.6406C4.2518 17.6504 4.32211 17.6601 4.39047 17.6679C4.31235 17.6562 4.23813 17.6347 4.16586 17.6054C4.22836 17.6308 4.29086 17.6582 4.35336 17.6836C4.27524 17.6504 4.20297 17.6074 4.13461 17.5547L4.29282 17.6777C4.23422 17.6289 4.17953 17.5761 4.13266 17.5175L4.25571 17.6757C4.20297 17.6074 4.16196 17.5351 4.1268 17.457C4.15219 17.5195 4.17953 17.582 4.20493 17.6445C4.17563 17.5722 4.1561 17.4961 4.14243 17.4199C4.15219 17.4882 4.16196 17.5586 4.16977 17.6269C4.13852 17.3906 4.16 17.1406 4.16 16.9023V16.0664C4.16 15.8574 4.17172 15.6504 4.19907 15.4433C4.1893 15.5117 4.17953 15.582 4.17172 15.6504C4.22641 15.25 4.33188 14.8574 4.49008 14.4843C4.46469 14.5468 4.43735 14.6093 4.41196 14.6718C4.5643 14.3164 4.75961 13.9824 4.99594 13.6757L4.87289 13.8339C5.10922 13.5312 5.38071 13.2578 5.68539 13.0214L5.52719 13.1445C5.83383 12.9082 6.16782 12.7129 6.52328 12.5605C6.46078 12.5859 6.39828 12.6132 6.33578 12.6386C6.70883 12.4824 7.09946 12.375 7.5018 12.3203C7.43344 12.33 7.36313 12.3398 7.29477 12.3476C7.58383 12.3105 7.87094 12.3086 8.16196 12.3086H11.7362C12.0584 12.3086 12.3788 12.3066 12.701 12.3476C12.6327 12.3379 12.5623 12.3281 12.494 12.3203C12.8944 12.375 13.287 12.4804 13.66 12.6386C13.5975 12.6132 13.535 12.5859 13.4725 12.5605C13.828 12.7129 14.162 12.9082 14.4686 13.1445L14.3104 13.0214C14.6131 13.2578 14.8866 13.5293 15.1229 13.8339L14.9998 13.6757C15.2362 13.9824 15.4315 14.3164 15.5838 14.6718C15.5584 14.6093 15.5311 14.5468 15.5057 14.4843C15.662 14.8574 15.7694 15.248 15.8241 15.6504C15.8143 15.582 15.8045 15.5117 15.7967 15.4433C15.8338 15.7382 15.8358 16.0312 15.8358 16.3281V17.2949C15.8358 17.4062 15.8397 17.5175 15.826 17.6269C15.8358 17.5586 15.8455 17.4882 15.8534 17.4199C15.8416 17.498 15.8202 17.5722 15.7909 17.6445C15.8163 17.582 15.8436 17.5195 15.869 17.457C15.8358 17.5351 15.7928 17.6074 15.7401 17.6757L15.8631 17.5175C15.8143 17.5761 15.7616 17.6308 15.703 17.6777L15.8612 17.5547C15.7928 17.6074 15.7206 17.6484 15.6424 17.6836C15.7049 17.6582 15.7674 17.6308 15.8299 17.6054C15.7577 17.6347 15.6815 17.6543 15.6053 17.6679C15.6737 17.6582 15.744 17.6484 15.8123 17.6406C15.7694 17.6464 15.7245 17.6484 15.6795 17.6504C15.4784 17.6523 15.2713 17.7363 15.1268 17.8789C14.992 18.0136 14.8885 18.2363 14.8983 18.4316C14.9178 18.8496 15.242 19.2187 15.6795 19.2129C16.4393 19.2011 17.1073 18.705 17.3299 17.9765C17.4178 17.6875 17.3983 17.3769 17.3983 17.08C17.3983 16.4004 17.4198 15.7265 17.3026 15.0527C17.1307 14.0664 16.6346 13.1386 15.9549 12.4101C15.2752 11.6816 14.3612 11.1464 13.3944 10.9082C12.8397 10.7714 12.2811 10.75 11.7147 10.75H8.24985C7.66977 10.75 7.0936 10.7773 6.52914 10.9277C5.57016 11.1816 4.66782 11.7226 4.0018 12.457C3.32993 13.1972 2.8436 14.1269 2.68539 15.1191C2.57993 15.7851 2.60141 16.4531 2.60141 17.125C2.60141 17.4336 2.58383 17.7558 2.69516 18.0507C2.83969 18.4297 3.07016 18.7285 3.40805 18.9531C3.67172 19.1269 4.00571 19.2109 4.31821 19.2148C4.47055 19.2168 4.62289 19.2148 4.77524 19.2148H15.6815C16.0897 19.2148 16.4823 18.8554 16.4627 18.4336C16.4432 18.0078 16.119 17.6504 15.6795 17.6504Z" fill="#817F7F"/>
</svg>
