<svg width="80" height="80" viewBox="0 0 80 80" fill="none" xmlns="http://www.w3.org/2000/svg">
<path d="M29.6673 56.6666C29.008 56.6666 28.3636 56.8621 27.8154 57.2284C27.2673 57.5947 26.84 58.1153 26.5877 58.7244C26.3354 59.3335 26.2694 60.0037 26.398 60.6503C26.5266 61.2969 26.8441 61.8908 27.3103 62.357C27.7765 62.8232 28.3704 63.1406 29.017 63.2693C29.6636 63.3979 30.3338 63.3319 30.9429 63.0796C31.552 62.8273 32.0726 62.4 32.4389 61.8519C32.8052 61.3037 33.0006 60.6592 33.0006 60C33.0006 59.1159 32.6495 58.2681 32.0243 57.6429C31.3992 57.0178 30.5514 56.6666 29.6673 56.6666ZM19.6673 56.6666C19.008 56.6666 18.3636 56.8621 17.8154 57.2284C17.2673 57.5947 16.84 58.1153 16.5877 58.7244C16.3354 59.3335 16.2694 60.0037 16.398 60.6503C16.5267 61.2969 16.8441 61.8908 17.3103 62.357C17.7765 62.8232 18.3704 63.1406 19.017 63.2693C19.6636 63.3979 20.3338 63.3319 20.9429 63.0796C21.552 62.8273 22.0726 62.4 22.4389 61.8519C22.8052 61.3037 23.0007 60.6592 23.0007 60C23.0007 59.1159 22.6495 58.2681 22.0243 57.6429C21.3992 57.0178 20.5514 56.6666 19.6673 56.6666ZM39.6673 56.6666C39.008 56.6666 38.3636 56.8621 37.8154 57.2284C37.2673 57.5947 36.84 58.1153 36.5877 58.7244C36.3354 59.3335 36.2694 60.0037 36.398 60.6503C36.5266 61.2969 36.8441 61.8908 37.3103 62.357C37.7765 62.8232 38.3704 63.1406 39.017 63.2693C39.6636 63.3979 40.3338 63.3319 40.9429 63.0796C41.552 62.8273 42.0726 62.4 42.4389 61.8519C42.8052 61.3037 43.0006 60.6592 43.0006 60C43.0006 59.1159 42.6495 58.2681 42.0243 57.6429C41.3992 57.0178 40.5514 56.6666 39.6673 56.6666ZM50.0007 28.3333C50.2937 27.8282 50.7142 27.4089 51.2203 27.1174C51.7263 26.826 52.3 26.6725 52.884 26.6725C53.4679 26.6725 54.0417 26.826 54.5477 27.1174C55.0537 27.4089 55.4743 27.8282 55.7673 28.3333C56.207 29.0957 56.9305 29.6533 57.7798 29.8844C58.6291 30.1154 59.5353 30.0012 60.3007 29.5666C60.6938 29.3603 61.0418 29.0774 61.3242 28.7347C61.6065 28.392 61.8175 27.9963 61.9449 27.5709C62.0722 27.1455 62.1132 26.6989 62.0655 26.2574C62.0179 25.8159 61.8825 25.3884 61.6673 25C60.7905 23.4768 59.5277 22.2116 58.0062 21.3318C56.4847 20.4521 54.7582 19.9888 53.0006 19.9888C51.2431 19.9888 49.5166 20.4521 47.9951 21.3318C46.4736 22.2116 45.2108 23.4768 44.334 25C44.0525 25.7362 44.0411 26.5484 44.3017 27.2923C44.5623 28.0362 45.0781 28.6637 45.7575 29.0633C46.4369 29.4629 47.2359 29.6089 48.0128 29.4753C48.7896 29.3416 49.4939 28.937 50.0007 28.3333ZM73.334 18.3333C71.2851 14.7896 68.34 11.8472 64.7944 9.80165C61.2487 7.75605 57.2274 6.6792 53.134 6.6792C49.0406 6.6792 45.0192 7.75605 41.4736 9.80165C37.928 11.8472 34.9829 14.7896 32.934 18.3333C32.7136 18.7137 32.5706 19.134 32.5134 19.57C32.4561 20.0059 32.4856 20.4488 32.6002 20.8733C32.7149 21.2978 32.9124 21.6954 33.1813 22.0432C33.4503 22.391 33.7854 22.6822 34.1673 22.9C34.626 23.1611 35.1401 23.3096 35.6673 23.3333C36.2547 23.3356 36.8322 23.1827 37.3415 22.89C37.8508 22.5974 38.2736 22.1753 38.5673 21.6666C40.0302 19.1332 42.1341 17.0294 44.6677 15.5667C47.2013 14.1041 50.0752 13.334 53.0006 13.334C55.9261 13.334 58.8001 14.1041 61.3336 15.5667C63.8672 17.0294 65.9711 19.1332 67.434 21.6666C67.6517 22.0486 67.9429 22.3837 68.2908 22.6526C68.6386 22.9216 69.0362 23.1191 69.4606 23.2337C69.8851 23.3483 70.3281 23.3779 70.764 23.3206C71.1999 23.2633 71.6202 23.1204 72.0006 22.9C72.391 22.6907 72.7358 22.4057 73.0147 22.0617C73.2937 21.7177 73.5013 21.3216 73.6255 20.8964C73.7496 20.4712 73.7878 20.0256 73.7377 19.5855C73.6877 19.1454 73.5504 18.7197 73.334 18.3333ZM59.6673 46.6666H56.334V36.6666C56.334 35.7826 55.9828 34.9347 55.3577 34.3096C54.7326 33.6845 53.8847 33.3333 53.0006 33.3333C52.1166 33.3333 51.2687 33.6845 50.6436 34.3096C50.0185 34.9347 49.6673 35.7826 49.6673 36.6666V46.6666H16.334C13.6818 46.6666 11.1383 47.7202 9.26292 49.5956C7.38755 51.4709 6.33398 54.0145 6.33398 56.6666V63.3333C6.33398 65.9855 7.38755 68.529 9.26292 70.4044C11.1383 72.2797 13.6818 73.3333 16.334 73.3333H59.6673C62.3195 73.3333 64.863 72.2797 66.7384 70.4044C68.6138 68.529 69.6673 65.9855 69.6673 63.3333V56.6666C69.6673 54.0145 68.6138 51.4709 66.7384 49.5956C64.863 47.7202 62.3195 46.6666 59.6673 46.6666ZM63.0006 63.3333C63.0006 64.2174 62.6495 65.0652 62.0243 65.6903C61.3992 66.3155 60.5514 66.6666 59.6673 66.6666H16.334C15.4499 66.6666 14.6021 66.3155 13.977 65.6903C13.3518 65.0652 13.0007 64.2174 13.0007 63.3333V56.6666C13.0007 55.7826 13.3518 54.9347 13.977 54.3096C14.6021 53.6845 15.4499 53.3333 16.334 53.3333H59.6673C60.5514 53.3333 61.3992 53.6845 62.0243 54.3096C62.6495 54.9347 63.0006 55.7826 63.0006 56.6666V63.3333Z" fill="#8C8C8C"/>
</svg>
