<svg width="24" height="24" viewBox="0 0 24 24" fill="none" xmlns="http://www.w3.org/2000/svg">
<path d="M17.7273 7.45455C17.7273 7.45455 13.6364 13.8182 7.5 13.8182M7.5 13.8182C5.86364 13.8182 3 14.7273 3 18.3636V22H12V18.3636C12 16.0909 14.4545 17.4545 17.7273 11.0909L16.5 9.72727M7.5 13.8182C8.25948 13.8182 8.98786 13.483 9.5249 12.8862C10.0619 12.2895 10.3636 11.4802 10.3636 10.6364C10.3636 9.79249 10.0619 8.98319 9.5249 8.38648C8.98786 7.78977 8.25948 7.45455 7.5 7.45455C6.74052 7.45455 6.01214 7.78977 5.4751 8.38648C4.93807 8.98319 4.63636 9.79249 4.63636 10.6364C4.63636 11.4802 4.93807 12.2895 5.4751 12.8862C6.01214 13.483 6.74052 13.8182 7.5 13.8182ZM4.63636 5.63636V2.90909H21V15.6364H18.5455M11.1818 2H14.4545V3.81818H11.1818V2Z" stroke="#474747" stroke-width="2"/>
</svg>
