<svg width="70" height="70" viewBox="0 0 70 70" fill="none" xmlns="http://www.w3.org/2000/svg">
<path d="M10.6025 55.6697L22.1204 29.75C21.5992 32.4788 24.7375 37.4153 28.1526 40.8541C32.3035 45.0328 36.9621 47.4835 39.375 46.8587C30.7294 50.7484 22.083 54.6361 13.4356 58.5218C12.8432 58.7961 11.9493 58.5091 11.2856 57.8342C10.6152 57.166 10.3301 56.2661 10.6025 55.6697Z" fill="#F0F1F1"/>
<path d="M10.6016 55.6024L22.0262 29.75C21.51 32.4694 24.6162 37.3864 28 40.8155L11.2695 57.75C10.6119 57.0858 10.3328 56.1942 10.6016 55.6024Z" fill="white"/>
<path d="M27.5625 22.75C28.2874 22.75 28.875 21.9665 28.875 21C28.875 20.0335 28.2874 19.25 27.5625 19.25C26.8376 19.25 26.25 20.0335 26.25 21C26.25 21.9665 26.8376 22.75 27.5625 22.75Z" fill="#DF2C2C"/>
<path d="M39.8125 25.375C40.5374 25.375 41.125 24.7874 41.125 24.0625C41.125 23.3376 40.5374 22.75 39.8125 22.75C39.0876 22.75 38.5 23.3376 38.5 24.0625C38.5 24.7874 39.0876 25.375 39.8125 25.375Z" fill="#F37A10"/>
<path d="M54.25 31.5C55.2165 31.5 56 30.7165 56 29.75C56 28.7835 55.2165 28 54.25 28C53.2835 28 52.5 28.7835 52.5 29.75C52.5 30.7165 53.2835 31.5 54.25 31.5Z" fill="#059BBF"/>
<path d="M54.6875 48.125C55.4124 48.125 56 47.3415 56 46.375C56 45.4085 55.4124 44.625 54.6875 44.625C53.9626 44.625 53.375 45.4085 53.375 46.375C53.375 47.3415 53.9626 48.125 54.6875 48.125Z" fill="#FA5655"/>
<path d="M37.625 14.875C38.5915 14.875 39.375 14.0915 39.375 13.125C39.375 12.1585 38.5915 11.375 37.625 11.375C36.6585 11.375 35.875 12.1585 35.875 13.125C35.875 14.0915 36.6585 14.875 37.625 14.875Z" fill="#12B2A0"/>
<path d="M48.1434 13.1066L45.1288 14.6429L42.7359 12.25L43.2653 15.5926L40.25 17.1288L43.5926 17.6582L44.1219 21L45.6582 17.9847L49 18.5141L46.6071 16.1219L48.1434 13.1066Z" fill="#FA5655"/>
<path d="M47.6875 38.5L46.9642 40.5684H44.625L46.5179 41.7366L45.7946 43.75L47.6875 42.4442L49.5804 43.7084L48.8571 41.7437L50.75 40.5684H48.4108L47.6875 38.5Z" fill="#F37A10"/>
<path d="M41.8859 30.625C49.4649 30.625 51.0582 25.8752 52.3379 22.0592C53.4039 18.8837 54.2454 16.375 57.8641 16.375C58.0659 16.375 58.2595 16.296 58.4021 16.1553C58.5448 16.0147 58.625 15.8239 58.625 15.625C58.625 15.4261 58.5448 15.2353 58.4021 15.0947C58.2595 14.954 58.0659 14.875 57.8641 14.875C53.146 14.875 52.0009 18.2882 50.8938 21.5882C49.5935 25.4642 48.3654 29.125 41.8859 29.125C41.6841 29.125 41.4905 29.204 41.3479 29.3447C41.2052 29.4853 41.125 29.6761 41.125 29.875C41.125 30.0739 41.2052 30.2647 41.3479 30.4053C41.4905 30.546 41.6841 30.625 41.8859 30.625Z" fill="#DF2C2C"/>
<path d="M31.6606 26.0918C36.7614 21.885 34.9498 19.0691 33.1978 16.3448C32.2181 14.8224 31.2057 13.2483 31.2057 11.2503C31.2057 11.0513 31.129 10.8605 30.9925 10.7198C30.856 10.579 30.6709 10.5 30.4778 10.5C30.2848 10.5 30.0997 10.579 29.9632 10.7198C29.8267 10.8605 29.75 11.0513 29.75 11.2503C29.75 13.7008 30.9371 15.5457 31.9845 17.1746C33.6877 19.8216 34.8129 21.5713 30.7508 24.9206C30.6032 25.046 30.5094 25.2263 30.4897 25.4224C30.4699 25.6185 30.5259 25.8148 30.6455 25.9687C30.765 26.1226 30.9386 26.2218 31.1285 26.2449C31.3185 26.2679 31.5096 26.2129 31.6606 26.0918Z" fill="#059BBF"/>
<path d="M57.875 39.375C58.0739 39.375 58.2647 39.3033 58.4053 39.1757C58.546 39.0481 58.625 38.875 58.625 38.6946C58.625 38.5141 58.546 38.341 58.4053 38.2134C58.2647 38.0858 58.0739 38.0141 57.875 38.0141C55.7315 38.0141 54.0207 36.9791 52.3662 35.9782C49.6947 34.3621 46.9317 32.6902 43.0946 36.1721C42.954 36.2997 42.875 36.4727 42.875 36.6532C42.875 36.8336 42.954 37.0067 43.0946 37.1343C43.2353 37.2619 43.426 37.3335 43.6249 37.3335C43.8238 37.3335 44.0145 37.2619 44.1551 37.1343C47.1229 34.4424 48.8772 35.5039 51.5337 37.1104C53.2887 38.172 55.277 39.375 57.875 39.375Z" fill="#12B2A0"/>
<path d="M22.75 54.3183C15.6527 57.527 24.198 53.6811 17.0936 56.875C15.3495 55.0675 13.7311 53.1419 12.25 51.1119L15.1428 44.625C17.1787 48.2211 19.7432 51.4889 22.75 54.3183Z" fill="#DF2C2C"/>
<path d="M18.375 50.0617L14.4987 54.25C13.7137 53.2536 12.9636 52.2257 12.25 51.1685L14.9596 44.625C15.9628 46.5322 17.1049 48.3502 18.375 50.0617Z" fill="#FA5655"/>
<path d="M28.0806 41.0701C32.9735 45.9691 38.5678 48.5316 40.4849 46.6088C42.387 44.7041 39.9058 39.1449 34.9525 34.1778C29.9925 29.2175 24.4427 26.7412 22.5399 28.6376C20.3253 30.8531 24.0191 37.0028 28.0806 41.0701Z" fill="#E2E4E5"/>
<path d="M26.9054 43.5511C24.1685 39.881 22.5121 36.0045 22.1621 32.5415C21.7892 31.4868 21.646 30.5315 21.7968 29.75L17.5 39.2823C18.5767 41.5867 19.9712 43.9025 21.6429 46.1454C23.3587 48.4446 25.2963 50.5729 27.4285 52.5L33.25 49.9232C30.9419 48.2153 28.754 46.0406 26.9054 43.5511Z" fill="#DF2C2C"/>
<path d="M35 33.7904L28.0959 40.25C24.0219 36.4347 20.3215 30.6738 22.542 28.5976C24.4525 26.8201 30.0215 29.141 35 33.7904Z" fill="#F0F1F1"/>
<path d="M21.7692 29.75L17.5 39.0418C18.5698 41.288 19.9553 43.5453 21.6163 45.7316C21.7829 45.9505 21.961 46.159 22.1314 46.375L26.25 42.3715C23.8898 39.041 22.4502 35.5819 22.1291 32.4644C21.7609 31.4385 21.6193 30.5096 21.7692 29.75Z" fill="#FA5655"/>
</svg>
