<svg width="70" height="70" viewBox="0 0 70 70" fill="none" xmlns="http://www.w3.org/2000/svg">
<path d="M42.6562 9.29688H27.3438C27.0537 9.29688 26.7755 9.18164 26.5704 8.97652C26.3652 8.77141 26.25 8.49321 26.25 8.20312V3.82812C26.25 2.95788 26.5957 2.12328 27.2111 1.50793C27.8264 0.892577 28.661 0.546875 29.5312 0.546875H40.4688C41.339 0.546875 42.1736 0.892577 42.7889 1.50793C43.4043 2.12328 43.75 2.95788 43.75 3.82812V8.20312C43.75 8.49321 43.6348 8.77141 43.4296 8.97652C43.2245 9.18164 42.9463 9.29688 42.6562 9.29688ZM28.4375 7.10938H41.5625V3.82812C41.5625 3.53804 41.4473 3.25984 41.2421 3.05473C41.037 2.84961 40.7588 2.73438 40.4688 2.73438H29.5312C29.2412 2.73438 28.963 2.84961 28.7579 3.05473C28.5527 3.25984 28.4375 3.53804 28.4375 3.82812V7.10938Z" fill="#AFAEB3"/>
<path d="M50.4656 58.5156L56.7875 69.4531H61.8406L55.5187 58.5156L53.0031 54.1406L42.3719 35.7438L38.5875 37.9313L47.95 54.1406H22.0938L31.4563 37.9313L27.6719 35.7438L17.0406 54.1406L14.525 58.5156L8.20312 69.4531H13.2562L19.5781 58.5156H50.4656Z" fill="#BC9A7E"/>
<path d="M9.84375 6.01562H60.1562C61.3166 6.01563 62.4294 6.47656 63.2498 7.29703C64.0703 8.1175 64.5312 9.2303 64.5312 10.3906V41.0156H5.46875V10.3906C5.46875 9.2303 5.92969 8.1175 6.75016 7.29703C7.57063 6.47656 8.68343 6.01563 9.84375 6.01562Z" fill="#E0E0E2"/>
<path d="M64.5312 41.0156H5.46875C4.26063 41.0156 3.28125 41.995 3.28125 43.2031C3.28125 44.4112 4.26063 45.3906 5.46875 45.3906H64.5312C65.7394 45.3906 66.7188 44.4112 66.7188 43.2031C66.7188 41.995 65.7394 41.0156 64.5312 41.0156Z" fill="#AFAEB3"/>
<path d="M40.4688 21.3281C42.885 21.3281 44.8438 19.3694 44.8438 16.9531C44.8438 14.5369 42.885 12.5781 40.4688 12.5781C38.0525 12.5781 36.0938 14.5369 36.0938 16.9531C36.0938 19.3694 38.0525 21.3281 40.4688 21.3281Z" fill="#F8A839"/>
<path d="M64.5314 41.0156H32.6748L49.0986 24.5919C49.4642 24.2258 49.8985 23.9354 50.3765 23.7372C50.8545 23.5391 51.3669 23.4371 51.8843 23.4371C52.4018 23.4371 52.9142 23.5391 53.3922 23.7372C53.8702 23.9354 54.3044 24.2258 54.6701 24.5919L64.5314 34.4531V41.0156Z" fill="#3EB57B"/>
<path d="M47.5322 41.0156H5.46875V34.9081L21.1947 19.1822C21.792 18.5849 22.6021 18.2494 23.4467 18.2494C24.2914 18.2494 25.1015 18.5849 25.6987 19.1822L47.5322 41.0156Z" fill="#55BB8C"/>
</svg>
