<svg width="70" height="70" viewBox="0 0 70 70" fill="none" xmlns="http://www.w3.org/2000/svg">
<g clip-path="url(#clip0_1_87)">
<mask id="mask0_1_87" style="mask-type:luminance" maskUnits="userSpaceOnUse" x="0" y="0" width="70" height="70">
<path d="M0 0H70V70H0V0Z" fill="white"/>
</mask>
<g mask="url(#mask0_1_87)">
<path d="M40.2483 52.6658C39.5207 55.1453 35.7168 56.21 31.7507 55.044C27.7847 53.8797 25.1597 50.9287 25.8873 48.4474C26.6149 45.9679 30.4207 44.9032 34.3849 46.0711C38.3528 47.2334 40.9778 50.1845 40.2483 52.6658ZM35.0002 7.63186C16.6878 7.63186 1.84229 20.3571 1.84229 36.0518C1.84229 38.0174 2.07623 39.935 2.51834 41.7863C5.79544 47.4232 8.06308 43.8642 18.4212 38.6842C28.971 33.4084 18.4212 46.0526 14.737 53.4211C13.6041 55.6887 14.2194 57.6063 15.7686 59.1758C21.1954 62.4989 27.8233 64.4737 35.0002 64.4737C53.3144 64.4737 68.1581 51.7503 68.1581 36.0518C68.1581 20.3571 53.3144 7.63186 35.0002 7.63186Z" fill="#E0AF98"/>
<path d="M25.7894 22.1053C25.7894 22.831 25.6465 23.5496 25.3688 24.2201C25.0911 24.8906 24.684 25.4998 24.1708 26.013C23.6577 26.5261 23.0484 26.9332 22.378 27.2109C21.7075 27.4886 20.9889 27.6316 20.2631 27.6316C19.5374 27.6316 18.8188 27.4886 18.1483 27.2109C17.4778 26.9332 16.8686 26.5261 16.3554 26.013C15.8423 25.4998 15.4352 24.8906 15.1575 24.2201C14.8798 23.5496 14.7368 22.831 14.7368 22.1053C14.7368 20.6396 15.3191 19.234 16.3554 18.1976C17.3918 17.1612 18.7975 16.5789 20.2631 16.5789C21.7288 16.5789 23.1344 17.1612 24.1708 18.1976C25.2072 19.234 25.7894 20.6396 25.7894 22.1053Z" fill="#5C913B"/>
<path d="M44.2108 18.4211C44.2108 19.8867 43.6286 21.2924 42.5922 22.3288C41.5558 23.3651 40.1502 23.9474 38.6845 23.9474C37.2188 23.9474 35.8132 23.3651 34.7768 22.3288C33.7404 21.2924 33.1582 19.8867 33.1582 18.4211C33.1582 16.9554 33.7404 15.5497 34.7768 14.5134C35.8132 13.477 37.2188 12.8947 38.6845 12.8947C40.1502 12.8947 41.5558 13.477 42.5922 14.5134C43.6286 15.5497 44.2108 16.9554 44.2108 18.4211Z" fill="#226699"/>
<path d="M60.7894 29.4737C60.7894 30.9394 60.2072 32.345 59.1708 33.3814C58.1344 34.4178 56.7288 35 55.2631 35C53.7975 35 52.3918 34.4178 51.3554 33.3814C50.3191 32.345 49.7368 30.9394 49.7368 29.4737C49.7368 28.008 50.3191 26.6024 51.3554 25.566C52.3918 24.5296 53.7975 23.9474 55.2631 23.9474C56.7288 23.9474 58.1344 24.5296 59.1708 25.566C60.2072 26.6024 60.7894 28.008 60.7894 29.4737Z" fill="#DD2E44"/>
<path d="M58.9476 46.0526C58.9104 47.4936 58.3119 48.8631 57.2795 49.8691C56.2472 50.8751 54.8628 51.4381 53.4213 51.4381C51.9799 51.4381 50.5954 50.8751 49.5631 49.8691C48.5308 48.8631 47.9322 47.4936 47.895 46.0526C47.9322 44.6117 48.5308 43.2422 49.5631 42.2362C50.5954 41.2302 51.9799 40.6672 53.4213 40.6672C54.8628 40.6672 56.2472 41.2302 57.2795 42.2362C58.3119 43.2422 58.9104 44.6117 58.9476 46.0526Z" fill="#FFCC4D"/>
</g>
</g>
<defs>
<clipPath id="clip0_1_87">
<rect width="70" height="70" fill="white"/>
</clipPath>
</defs>
</svg>
