<svg width="70" height="70" viewBox="0 0 70 70" fill="none" xmlns="http://www.w3.org/2000/svg">
<path d="M60.5207 14.5833V40.1042H56.1457V14.5833C56.1457 12.5738 54.5094 10.9375 52.4998 10.9375H17.4998C15.4903 10.9375 13.854 12.5738 13.854 14.5833V40.1042H9.479V14.5833C9.479 10.1588 13.0753 6.5625 17.4998 6.5625H52.4998C56.9244 6.5625 60.5207 10.1588 60.5207 14.5833ZM43.7498 15.3125H26.2498C25.0423 15.3125 24.0623 16.2925 24.0623 17.5C24.0623 18.7075 25.0423 19.6875 26.2498 19.6875H43.7498C44.9573 19.6875 45.9373 18.7075 45.9373 17.5C45.9373 16.2925 44.9573 15.3125 43.7498 15.3125Z" fill="#FA877B"/>
<path d="M62.796 53.9233C61.8714 50.8375 60.0076 48.1833 57.5226 46.2554C59.3572 44.5258 60.521 42.0904 60.521 39.375C60.521 34.1483 56.2685 29.8958 51.0418 29.8958C48.9214 29.8958 46.9847 30.6192 45.4039 31.8004C44.0243 27.3379 39.9089 24.0625 35.0001 24.0625C30.0914 24.0625 25.976 27.335 24.5964 31.8004C23.0155 30.6221 21.0789 29.8958 18.9585 29.8958C13.7318 29.8958 9.47929 34.1483 9.47929 39.375C9.47929 42.0904 10.643 44.5258 12.4776 46.2554C9.99262 48.1833 8.12887 50.8375 7.20428 53.9233C6.73762 55.4925 7.02928 57.1433 8.00929 58.4587C8.98345 59.7683 10.4797 60.5208 12.1072 60.5208H16.0797C16.2547 60.8825 16.4618 61.2325 16.7243 61.5533C17.7101 62.7521 19.1655 63.4375 20.7114 63.4375H49.286C50.8318 63.4375 52.2872 62.7521 53.273 61.5533C53.5355 61.2354 53.7455 60.8854 53.9176 60.5208H57.8901C59.5205 60.5208 61.0139 59.7683 61.988 58.4587C62.968 57.1462 63.2626 55.4925 62.793 53.9233H62.796ZM51.0418 34.2708C53.8564 34.2708 56.146 36.5604 56.146 39.375C56.146 42.1896 53.8564 44.4792 51.0418 44.4792C48.2272 44.4792 45.9376 42.1896 45.9376 39.375C45.9376 36.5604 48.2272 34.2708 51.0418 34.2708ZM35.0001 28.4375C38.6168 28.4375 41.5626 31.3833 41.5626 35C41.5626 38.6167 38.6168 41.5625 35.0001 41.5625C31.3835 41.5625 28.4376 38.6167 28.4376 35C28.4376 31.3833 31.3835 28.4375 35.0001 28.4375ZM18.9585 34.2708C21.773 34.2708 24.0626 36.5604 24.0626 39.375C24.0626 42.1896 21.773 44.4792 18.9585 44.4792C16.1439 44.4792 13.8543 42.1896 13.8543 39.375C13.8543 36.5604 16.1439 34.2708 18.9585 34.2708ZM11.5151 55.8425C11.4305 55.7288 11.3022 55.4896 11.3955 55.1746C12.256 52.2987 14.2772 49.9712 16.9372 48.6237C17.5905 48.7667 18.2614 48.8513 18.9585 48.8513C19.253 48.8513 19.533 48.79 19.8218 48.7638C18.0747 50.8813 16.8001 53.3867 16.0564 56.1429H12.1072C11.7893 56.1429 11.5997 55.9592 11.5151 55.8425ZM49.8955 58.7708C49.7468 58.9517 49.5193 59.0625 49.286 59.0625H20.7143C20.481 59.0625 20.2535 58.9546 20.1047 58.7708C19.9851 58.625 19.9385 58.4675 19.9705 58.31C21.3647 51.1408 27.688 45.9375 35.0001 45.9375C42.3122 45.9375 48.6385 51.1408 50.0297 58.31C50.0618 58.4704 50.0151 58.625 49.8955 58.7708ZM58.4822 55.8425C58.3976 55.9563 58.208 56.1458 57.8901 56.1458H53.941C53.2001 53.3896 51.9226 50.8842 50.1755 48.7667C50.4643 48.7929 50.7414 48.8542 51.0389 48.8542C51.733 48.8542 52.4068 48.7696 53.0601 48.6267C55.7201 49.9742 57.7414 52.3017 58.6018 55.1775C58.6951 55.4896 58.5668 55.7258 58.4822 55.8425Z" fill="#112D55"/>
</svg>
