<svg width="410" height="410" viewBox="0 0 410 410" fill="none" xmlns="http://www.w3.org/2000/svg">
<path d="M124.083 245.475C137.112 232.355 136.973 212.331 133.217 195.029C132.586 192.134 132.348 189.01 130.503 186.714C128.658 184.418 125.108 183.262 122.73 184.959C120.753 186.37 120.27 189.059 119.45 191.347C118.344 194.414 116.39 197.104 113.816 199.104C112.176 200.4 109.962 201.4 107.953 200.744C105.19 199.818 104.263 196.407 103.755 193.512C102.814 188.116 101.866 182.723 100.909 177.333C100.401 174.439 99.8761 171.487 98.4493 168.904C97.0225 166.321 94.6035 164.14 91.7089 163.869C88.8143 163.598 85.7065 165.804 85.6409 168.74C85.7514 169.957 85.9432 171.165 86.2149 172.356C86.3543 173.57 86.0345 174.996 84.9603 175.538C83.8861 176.079 82.5577 175.48 81.5409 174.791C78.0231 172.413 75.3171 169.051 72.7423 165.632C70.1675 162.213 67.6337 158.744 64.3455 156.054C61.0573 153.365 56.8589 151.52 52.6769 152.036C48.4949 152.553 44.5425 155.923 44.2391 160.171C43.9357 164.418 47.0681 168.141 50.2497 170.97C54.9776 175.167 60.2891 178.655 66.0183 181.327C67.106 181.693 68.0483 182.397 68.7079 183.336C69.6837 185.148 68.2077 187.395 66.4201 188.379C64.3947 189.486 62.0167 189.691 59.8109 190.363C57.6051 191.036 55.3501 192.479 54.8909 194.767C54.2431 197.94 57.2771 200.58 60.0815 202.147C65.6804 205.318 71.7825 207.503 78.1215 208.608C80.3929 209.002 82.7545 209.272 84.7389 210.453C86.7233 211.634 88.2321 214.045 87.5679 216.275C86.9037 218.506 84.3617 219.637 82.0575 219.629C79.7533 219.621 77.5475 218.809 75.2761 218.358C71.0285 217.587 65.9445 218.793 64.0257 222.688C62.7711 225.254 63.2057 228.428 64.5259 230.961C65.9795 233.434 67.9147 235.589 70.2167 237.3C77.8886 243.718 87.1282 247.983 96.9897 249.657C106.781 251.174 115.481 250.477 124.05 245.467" fill="#FFAB5E"/>
<path d="M126.657 258.341C124.38 250.415 121.345 242.726 117.596 235.381C112.975 226.421 107.845 217.734 102.229 209.362L97.8582 202.753C96.415 200.58 94.98 198.432 93.4548 196.423C90.5129 192.551 87.3593 188.844 84.0084 185.32C80.835 181.942 77.7026 178.858 74.7506 175.988C71.7986 173.118 69.0106 170.503 66.3128 168.231C62.1325 164.615 57.6682 161.341 52.9632 158.44C51.3232 157.407 49.9866 156.653 49.0928 156.153L48.0678 155.587C47.9544 155.516 47.8334 155.458 47.707 155.415C47.8129 155.497 47.9253 155.571 48.0432 155.636L49.0354 156.251C49.921 156.776 51.2166 157.563 52.8566 158.621C57.5018 161.587 61.9176 164.898 66.0668 168.526C68.7072 170.814 71.4952 173.446 74.439 176.308C77.3828 179.17 80.4906 182.294 83.6476 185.673C86.9774 189.182 90.1118 192.872 93.0366 196.726C94.5536 198.735 95.964 200.826 97.4072 203.04C98.8504 205.254 100.302 207.419 101.786 209.649C107.387 218.002 112.518 226.661 117.153 235.586C120.904 242.904 123.96 250.558 126.279 258.448" fill="#263238"/>
<path d="M93.2989 196.423C93.3688 196 93.3881 195.571 93.3563 195.144C93.3563 194.324 93.3563 193.118 93.2743 191.642C93.1595 188.69 92.8561 184.615 92.5117 180.162C92.1673 175.71 91.9295 171.61 91.8557 168.682C91.8557 167.215 91.7983 166.017 91.7901 165.197C91.8222 164.767 91.8001 164.335 91.7245 163.91C91.6362 164.331 91.5896 164.759 91.5851 165.189C91.5195 166.009 91.4867 167.206 91.4785 168.682C91.4785 171.643 91.6261 175.726 91.9787 180.228C92.3313 184.73 92.6511 188.658 92.8889 191.708C92.9955 193.086 93.0775 194.25 93.1431 195.193C93.1486 195.607 93.2009 196.02 93.2989 196.423Z" fill="#263238"/>
<path d="M54.8672 196.251C55.3745 196.263 55.882 196.233 56.3842 196.161C57.3518 196.07 58.754 195.931 60.4842 195.824C63.9528 195.57 68.758 195.39 74.0716 195.423C79.3852 195.455 84.1904 195.701 87.6672 195.98C89.4056 196.103 90.8078 196.242 91.7672 196.333C92.2683 196.416 92.7768 196.446 93.2842 196.423C92.7962 196.28 92.2969 196.178 91.7918 196.12C90.8324 195.972 89.4302 195.767 87.6918 195.595C84.215 195.218 79.3934 194.914 74.0634 194.873C69.5166 194.828 64.9706 195.017 60.4432 195.439C58.7048 195.595 57.3026 195.792 56.3432 195.947C55.842 195.997 55.3473 196.099 54.8672 196.251Z" fill="#263238"/>
<path d="M117.014 234.783C117.089 234.622 117.147 234.455 117.186 234.282L117.58 232.823C117.908 231.552 118.342 229.699 118.851 227.411C119.867 222.819 121.073 216.447 122.311 209.371C123.549 202.294 124.697 195.939 125.591 191.331C126.042 189.092 126.411 187.231 126.698 185.886C126.813 185.296 126.911 184.804 126.993 184.402C127.035 184.23 127.057 184.054 127.059 183.877C127.059 183.877 126.977 184.041 126.887 184.377L126.493 185.837C126.157 187.108 125.722 188.953 125.214 191.249C124.197 195.833 122.992 202.212 121.753 209.289C120.515 216.365 119.375 222.729 118.473 227.329C118.014 229.559 117.653 231.429 117.366 232.765C117.243 233.364 117.153 233.856 117.071 234.25C117.031 234.424 117.012 234.603 117.014 234.783Z" fill="#263238"/>
<path d="M64.7227 227.862C64.8934 227.915 65.0693 227.951 65.2475 227.968L66.7727 228.19L72.3733 228.944C77.1047 229.576 83.6237 230.527 90.8315 231.585C98.0392 232.642 104.575 233.544 109.322 234.045C111.692 234.315 113.611 234.512 114.939 234.627L116.473 234.742C116.652 234.765 116.834 234.765 117.014 234.742C116.846 234.677 116.669 234.638 116.489 234.627L114.964 234.405L109.363 233.659C104.632 233.02 98.1131 232.068 90.9053 231.011C83.6975 229.953 77.1621 229.051 72.4225 228.551C70.0445 228.28 68.1257 228.083 66.7973 227.968L65.2639 227.854C65.0844 227.824 64.9011 227.827 64.7227 227.862Z" fill="#263238"/>
<path d="M273.323 96.8257C274.559 95.7944 275.5 94.455 276.052 92.9431C276.603 91.4311 276.745 89.8003 276.464 88.2157C276.152 86.6386 275.529 85.1392 274.632 83.8047C273.736 82.4703 272.583 81.3272 271.241 80.4421C270.019 79.6221 268.502 78.9333 267.083 79.3597C266.428 79.5937 265.848 79.9996 265.404 80.5348C264.959 81.07 264.667 81.7149 264.558 82.4019C264.347 83.7865 264.512 85.2022 265.033 86.5019C266.583 90.9955 268.912 95.0545 273.323 96.8421" fill="#455A64"/>
<path d="M277.48 104.501C280.008 102.244 283.037 100.62 286.317 99.7645C289.596 98.909 293.032 98.8461 296.34 99.581C298.021 99.9664 299.907 100.86 300.186 102.558C300.465 104.255 298.94 105.706 297.447 106.567C294.299 108.318 290.703 109.096 287.113 108.804C283.523 108.512 280.1 107.163 277.275 104.927" fill="#455A64"/>
<path d="M301.555 68.9703C300.154 68.6368 298.7 68.5905 297.281 68.8343C295.862 69.0781 294.507 69.607 293.297 70.3889C290.882 71.9642 288.862 74.0741 287.393 76.5553C284.417 81.2539 283.375 87.5597 283.244 93.1111C289.402 92.8651 294.675 88.0189 297.184 85.3949C301.161 81.2457 305.835 71.3237 301.547 68.9949" fill="#455A64"/>
<path d="M268.141 112.889C268.702 112.15 269.214 111.375 269.674 110.569C271.274 107.441 272.443 104.112 273.151 100.671C273.842 97.1834 273.576 93.5732 272.38 90.2246C272.001 89.2236 271.5 88.2734 270.888 87.3956C270.445 86.7806 270.158 86.4854 270.125 86.51C270.841 87.7496 271.458 89.0437 271.97 90.3804C273.007 93.6716 273.202 97.1706 272.536 100.557C271.82 103.951 270.72 107.252 269.256 110.397" fill="#263238"/>
<path d="M268.14 112.963L271.346 108.863C274.052 105.362 277.792 100.532 282.006 95.2594C286.221 89.9868 290.083 85.2555 292.896 81.8361L296.217 77.7852C296.648 77.3069 297.035 76.791 297.373 76.2437C296.887 76.6552 296.435 77.1049 296.02 77.5885C295.2 78.4987 294.003 79.8435 292.552 81.5163C289.649 84.8537 285.721 89.544 281.514 94.8248C277.308 100.106 273.61 104.985 270.994 108.56C269.69 110.347 268.649 111.84 267.943 112.824" fill="#263238"/>
<path d="M292.502 103.213C292.162 103.053 291.8 102.943 291.428 102.885C291.005 102.772 290.575 102.69 290.14 102.639C289.568 102.545 288.99 102.482 288.41 102.451C286.899 102.36 285.383 102.417 283.884 102.623C280.194 103.131 276.673 104.493 273.601 106.6C272.352 107.46 271.193 108.444 270.141 109.536C269.733 109.948 269.35 110.383 268.993 110.839C268.691 111.169 268.417 111.523 268.173 111.897C267.771 112.496 267.828 112.775 267.861 112.799C268.66 111.772 269.511 110.787 270.411 109.847C271.483 108.822 272.643 107.894 273.88 107.076C275.402 106.103 277.014 105.279 278.693 104.616C280.387 103.976 282.139 103.504 283.925 103.205C285.389 102.974 286.871 102.873 288.353 102.902C290.928 102.959 292.477 103.32 292.502 103.213Z" fill="#263238"/>
<path d="M244.704 372.698L134.931 372.19C121.729 372.132 111.077 361.087 111.151 347.516L112.34 64.7308C112.397 51.1598 123.147 40.1964 136.358 40.262L246.131 40.7704C259.333 40.8278 269.985 51.8732 269.911 65.4442L268.714 348.229C268.665 361.8 257.914 372.764 244.704 372.698Z" fill="#263238"/>
<path d="M261.211 298.587C261.211 299.065 261.069 299.533 260.803 299.931C260.537 300.329 260.158 300.639 259.716 300.822C259.273 301.005 258.787 301.052 258.317 300.958C257.848 300.864 257.417 300.633 257.079 300.294C256.741 299.955 256.511 299.523 256.419 299.053C256.326 298.584 256.375 298.097 256.56 297.655C256.744 297.213 257.055 296.836 257.454 296.571C257.853 296.306 258.321 296.166 258.8 296.167C259.44 296.17 260.054 296.425 260.505 296.879C260.957 297.332 261.211 297.946 261.211 298.587Z" fill="#E0E0E0"/>
<path d="M258.799 303.892C258.515 302.135 258.515 300.344 258.799 298.587C259.083 300.344 259.083 302.135 258.799 303.892Z" fill="#E0E0E0"/>
<path d="M248.32 50.102L226.369 50.02C225.652 50.0328 224.946 50.1866 224.289 50.4725C223.632 50.7584 223.039 51.1709 222.541 51.6865C222.044 52.202 221.653 52.8104 221.391 53.477C221.129 54.1436 221.001 54.8553 221.014 55.5714V59.5484C221.036 60.9919 220.485 62.3852 219.481 63.4227C218.477 64.4603 217.103 65.0575 215.659 65.0834L172.864 64.8866C171.418 64.8458 170.047 64.2333 169.053 63.1833C168.058 62.1334 167.521 60.7318 167.558 59.286V55.309C167.578 54.5928 167.456 53.8798 167.2 53.2107C166.944 52.5416 166.559 51.9295 166.066 51.4093C165.573 50.8892 164.983 50.4713 164.329 50.1794C163.674 49.8876 162.969 49.7275 162.253 49.7084H154.528L135.299 49.5854C133.029 49.5746 130.778 50.0117 128.677 50.8716C126.575 51.7316 124.664 52.9975 123.053 54.597C121.441 56.1964 120.161 58.098 119.285 60.1929C118.409 62.2878 117.955 64.5348 117.948 66.8054L116.776 343.875C116.765 346.146 117.202 348.396 118.062 350.498C118.922 352.599 120.188 354.51 121.787 356.122C123.387 357.734 125.288 359.014 127.383 359.89C129.478 360.766 131.725 361.22 133.996 361.226L247 361.751C249.27 361.761 251.52 361.323 253.621 360.463C255.722 359.602 257.633 358.336 259.244 356.737C260.856 355.138 262.136 353.237 263.012 351.142C263.889 349.048 264.343 346.801 264.351 344.531L265.515 67.4532C265.533 62.873 263.732 58.4731 260.508 55.2198C257.284 51.9666 252.9 50.1259 248.32 50.102Z" fill="#FAFAFA"/>
<path d="M124.296 268.747C125.263 268.025 172.52 247.206 172.52 247.206L117.318 219.67L117.129 264.04L124.296 268.747Z" fill="#EBEBEB"/>
<path d="M127.182 218.817L167.452 198.35L124.181 174.357L117.506 176.029L117.342 214.848L127.182 218.817Z" fill="#FFAB5E"/>
<path opacity="0.7" d="M127.182 218.817L167.452 198.35L124.181 174.357L117.506 176.029L117.342 214.848L127.182 218.817Z" fill="white"/>
<path d="M118.957 171.569L243.08 113.595L120.105 73.4065L118.957 171.569Z" fill="#EBEBEB"/>
<path d="M117.514 322.547L174.233 293.437L258.668 343.113L238.554 360.751H166.5L117.514 330.813V322.547Z" fill="#EBEBEB"/>
<path d="M185.402 290.288L255.545 331.879L263.368 330.993V291.002L224.926 270.657L185.402 290.288Z" fill="#EBEBEB"/>
<path d="M196.932 250.576L263.065 287.779V239.145L239.137 228.895L196.932 250.576Z" fill="#EBEBEB"/>
<path d="M126.297 271.075L165.091 292.363L212.175 267.976L174.767 248.952L126.297 271.075Z" fill="#EBEBEB"/>
<path d="M184.533 198.079L239.49 225.311L264.975 212.298L265.139 194.045L228.018 176.029L184.533 198.079Z" fill="#EBEBEB"/>
<path d="M128.33 221.834L183.286 249.067L208.772 236.053L208.936 217.8L171.806 199.785L128.33 221.834Z" fill="#EBEBEB"/>
<path d="M135.939 172.889L180.728 195.316L222.499 172.889L179.219 153.143L135.939 172.889Z" fill="#EBEBEB"/>
<path d="M222.499 316.208C222.215 316.095 221.941 315.958 221.679 315.798L219.367 314.495L210.47 309.353L177.539 290.042L176.858 289.64L177.563 289.28L220.769 267.32V268.32L188.51 251.1L187.494 250.559L188.519 250.018L233.323 226.5V227.64L227.977 224.934L127.609 174.012L126.666 173.537L127.625 173.077L180.925 147.657L195.685 140.696L199.572 138.908L200.581 138.465C200.694 138.412 200.812 138.371 200.933 138.342C200.837 138.423 200.729 138.489 200.614 138.539L199.646 139.047L195.8 141.04L181.139 148.264L128.076 174.07V173.102L228.551 223.803L233.897 226.509L235.004 227.074L233.906 227.648L189.068 251.117V250.034L221.286 267.32L222.237 267.828L221.278 268.312L177.941 290.059V289.296L210.675 308.976L219.449 314.314L221.704 315.725C221.985 315.859 222.251 316.021 222.499 316.208Z" fill="#FFAB5E"/>
<path d="M212.863 112.045C212.863 103.845 204.269 98.6788 195.503 102.779C193.523 103.706 191.904 105.259 190.895 107.199C188.689 111.471 189.665 116.35 191.658 120.401L198.48 137.686C198.693 138.239 199.069 138.715 199.558 139.05C200.047 139.386 200.626 139.565 201.219 139.565C201.812 139.565 202.391 139.386 202.88 139.05C203.368 138.715 203.744 138.239 203.958 137.686L210.641 120.31C212.961 114.997 212.863 112.045 212.863 112.045ZM204.663 119.162C198.767 122.59 192.797 116.26 196.028 110.011C196.452 109.187 197.1 108.499 197.898 108.027C203.794 104.599 209.763 110.93 206.532 117.178C206.1 118.007 205.44 118.695 204.63 119.162H204.663Z" fill="#FFAB5E"/>
<path d="M199.777 201.54L199.58 191.88L224.762 204.074V214.11L199.777 201.54Z" fill="#F5F5F5"/>
<path d="M224.762 204.073L256.037 188.534V199.35L224.762 214.11V204.073Z" fill="#E0E0E0"/>
<path d="M199.58 191.88L230.273 176.53L256.037 188.534L224.762 204.073L199.58 191.88Z" fill="#F5F5F5"/>
<path d="M202.867 196.054V200.736L205.327 201.843V197.366L202.867 196.054Z" fill="#FAFAFA"/>
<path d="M206.805 197.784V202.474L209.273 203.581V199.104L206.805 197.784Z" fill="#FAFAFA"/>
<path d="M120.549 140.589V128.018L150.356 142.459V154.332L120.549 140.589Z" fill="#E0E0E0"/>
<path d="M150.355 142.459L187.387 124.058V136.866L150.355 154.332V142.459Z" fill="#F5F5F5"/>
<path d="M120.549 128.018L156.875 109.855L187.387 124.058L150.356 142.459L120.549 128.018Z" fill="#FAFAFA"/>
<path d="M124.443 132.955V138.506L127.354 139.818V134.513L124.443 132.955Z" fill="#FAFAFA"/>
<path d="M129.1 135.013V140.556L132.019 141.876V136.571L129.1 135.013Z" fill="#FAFAFA"/>
<path d="M210.404 245.664V255.569L221.064 260.809V250.576L210.404 245.664Z" fill="#E0E0E0"/>
<path d="M234.594 244.089L221.023 250.576V260.809L234.594 253.232V244.089Z" fill="#E0E0E0"/>
<path d="M210.404 245.664L223.852 239.145L234.594 244.089L221.023 250.576L210.404 245.664Z" fill="#F5F5F5"/>
<path d="M214.176 252.773V257.455L216.636 258.571V254.093L214.176 252.773Z" fill="#FAFAFA"/>
<path d="M124.59 240.539V250.444L135.209 255.684V245.451L124.59 240.539Z" fill="#E0E0E0"/>
<path d="M148.788 238.964L135.209 245.451V255.684L148.788 248.107V238.964Z" fill="#E0E0E0"/>
<path d="M124.59 240.539L138.046 234.02L148.788 238.964L135.209 245.451L124.59 240.539Z" fill="#F5F5F5"/>
<path d="M128.363 247.648V252.33L130.823 253.446V248.968L128.363 247.648Z" fill="#FAFAFA"/>
<path d="M168.633 175.152V185.066L179.252 190.306V180.072L168.633 175.152Z" fill="#F5F5F5"/>
<path d="M192.831 173.586L179.252 180.072V190.306L192.831 182.729V173.586Z" fill="#E0E0E0"/>
<path d="M168.633 175.152L182.089 168.641L192.831 173.586L179.252 180.072L168.633 175.152Z" fill="#F5F5F5"/>
<path d="M172.404 182.27V186.952L174.864 188.067V183.582L172.404 182.27Z" fill="#E0E0E0"/>
<path d="M156.824 260.047V269.96L167.443 275.192V264.967L156.824 260.047Z" fill="#E0E0E0"/>
<path d="M181.022 258.472L167.451 264.967V275.192L181.022 267.623V258.472Z" fill="#EBEBEB"/>
<path d="M156.824 260.047L170.28 253.536L181.022 258.472L167.451 264.967L156.824 260.047Z" fill="#F5F5F5"/>
<path d="M160.598 267.156V271.846L163.058 272.953V268.476L160.598 267.156Z" fill="#FAFAFA"/>
<path d="M200.678 283.982V296.405L223.039 309.583V296.758L200.678 283.982Z" fill="#F5F5F5"/>
<path d="M240.088 287.59L223.064 296.758V309.583L240.088 300.087V287.59Z" fill="#E0E0E0"/>
<path d="M200.678 283.974L217.553 275.807L240.087 287.59L223.064 296.758L200.678 283.974Z" fill="#FAFAFA"/>
<path d="M209.133 295.471V301.342L212.224 303.195V297.39L209.133 295.471Z" fill="#FAFAFA"/>
<path d="M146.828 309.55V321.973L169.214 335.159V322.326L146.828 309.55Z" fill="#E0E0E0"/>
<path d="M195.93 307.853L169.215 322.326V335.159L196.004 320.309L195.93 307.853Z" fill="#FAFAFA"/>
<path d="M146.828 309.55L175.085 295.864L196.004 307.902L169.214 322.326L146.828 309.55Z" fill="#F5F5F5"/>
<path d="M155.283 321.038V326.918L158.366 328.771V322.957L155.283 321.038Z" fill="#FAFAFA"/>
<path d="M231.568 263.097V312.715L245.541 319.939V269.698L231.568 263.097Z" fill="#F5F5F5"/>
<path d="M241.892 258.341L231.568 263.097L245.541 269.698L254.938 264.401L241.892 258.341Z" fill="#FAFAFA"/>
<path d="M245.541 269.698V319.939L254.044 315.364L254.938 264.401L245.541 269.698Z" fill="#E0E0E0"/>
<path d="M172.52 222.909V272.527L186.492 279.751V229.51L172.52 222.909Z" fill="#F5F5F5"/>
<path d="M182.835 218.145L172.52 222.909L186.492 229.51L195.89 224.213L182.835 218.145Z" fill="#FAFAFA"/>
<path d="M186.492 229.51V279.751L194.987 275.561L195.889 224.213L186.492 229.51Z" fill="#E0E0E0"/>
<path d="M178.857 317.266V329.689L201.252 342.875V330.05L178.857 317.266Z" fill="#E0E0E0"/>
<path d="M218.267 320.882L201.252 330.05V342.875L218.267 333.379V320.882Z" fill="#FAFAFA"/>
<path d="M178.857 317.266L195.93 307.853L218.267 320.883L201.252 330.05L178.857 317.266Z" fill="#F5F5F5"/>
<path d="M187.312 328.754V334.634L190.404 336.487V330.673L187.312 328.754Z" fill="#FAFAFA"/>
<path d="M228.649 169.15L187.879 150.774L244.656 121.877L263.286 149.658L228.649 169.15Z" fill="#EBEBEB"/>
<path d="M264.942 186.025L265.22 154.209L233.609 172.2L264.942 186.025Z" fill="#FFAB5E"/>
<path d="M240.924 217.89C240.916 218.367 240.767 218.831 240.496 219.223C240.225 219.615 239.845 219.919 239.402 220.096C238.96 220.273 238.475 220.315 238.008 220.217C237.542 220.119 237.114 219.885 236.78 219.545C236.446 219.206 236.22 218.775 236.13 218.306C236.039 217.838 236.09 217.354 236.274 216.914C236.458 216.475 236.768 216.099 237.165 215.835C237.562 215.571 238.028 215.43 238.505 215.43C239.15 215.441 239.765 215.705 240.218 216.165C240.67 216.625 240.924 217.245 240.924 217.89Z" fill="#E0E0E0"/>
<path d="M238.504 223.196C238.22 221.439 238.22 219.647 238.504 217.89C238.788 219.647 238.788 221.439 238.504 223.196Z" fill="#E0E0E0"/>
<path d="M174.94 211.962C174.94 212.448 174.795 212.924 174.525 213.329C174.255 213.733 173.87 214.048 173.421 214.235C172.971 214.421 172.477 214.469 172 214.375C171.522 214.28 171.084 214.045 170.74 213.701C170.396 213.357 170.162 212.919 170.067 212.442C169.972 211.965 170.021 211.47 170.207 211.02C170.393 210.571 170.708 210.187 171.113 209.916C171.517 209.646 171.993 209.502 172.48 209.502C172.804 209.496 173.126 209.556 173.427 209.678C173.728 209.799 174.002 209.98 174.231 210.21C174.461 210.44 174.642 210.713 174.764 211.014C174.885 211.315 174.945 211.637 174.94 211.962Z" fill="#E0E0E0"/>
<path d="M172.52 217.3C172.236 215.543 172.236 213.752 172.52 211.995C172.804 213.752 172.804 215.543 172.52 217.3Z" fill="#E0E0E0"/>
<path d="M142.613 245.73C142.613 246.208 142.472 246.676 142.206 247.073C141.94 247.471 141.562 247.781 141.12 247.964C140.678 248.148 140.192 248.195 139.722 248.102C139.253 248.009 138.822 247.778 138.484 247.44C138.146 247.102 137.915 246.671 137.822 246.201C137.729 245.732 137.776 245.246 137.96 244.804C138.143 244.362 138.453 243.984 138.85 243.718C139.248 243.452 139.716 243.311 140.194 243.311C140.836 243.311 141.451 243.565 141.905 244.019C142.359 244.473 142.613 245.088 142.613 245.73Z" fill="#E0E0E0"/>
<path d="M140.219 251.035C139.935 249.278 139.935 247.487 140.219 245.729C140.503 247.487 140.503 249.278 140.219 251.035Z" fill="#E0E0E0"/>
<path d="M145.033 219.67C145.033 220.147 144.892 220.613 144.628 221.009C144.364 221.406 143.989 221.716 143.549 221.9C143.11 222.085 142.625 222.135 142.157 222.045C141.689 221.955 141.258 221.728 140.918 221.394C140.578 221.06 140.345 220.633 140.247 220.166C140.149 219.7 140.191 219.215 140.368 218.772C140.545 218.33 140.848 217.949 141.241 217.678C141.633 217.408 142.097 217.259 142.573 217.251C142.894 217.245 143.213 217.304 143.512 217.423C143.81 217.542 144.081 217.72 144.31 217.945C144.539 218.17 144.721 218.438 144.845 218.735C144.969 219.031 145.033 219.349 145.033 219.67Z" fill="#E0E0E0"/>
<path d="M142.614 224.975C142.329 223.218 142.329 221.427 142.614 219.67C142.898 221.427 142.898 223.218 142.614 224.975Z" fill="#E0E0E0"/>
<path d="M204.73 217.3C204.74 217.79 204.603 218.272 204.337 218.684C204.071 219.096 203.687 219.419 203.236 219.611C202.785 219.804 202.287 219.857 201.806 219.765C201.324 219.672 200.881 219.437 200.534 219.091C200.187 218.745 199.951 218.303 199.856 217.822C199.762 217.341 199.814 216.842 200.005 216.391C200.196 215.939 200.517 215.555 200.928 215.287C201.339 215.02 201.821 214.881 202.311 214.889C202.951 214.889 203.565 215.143 204.019 215.595C204.472 216.047 204.728 216.66 204.73 217.3Z" fill="#E0E0E0"/>
<path d="M202.311 222.581C202.027 220.824 202.027 219.032 202.311 217.275C202.595 219.032 202.595 220.824 202.311 222.581Z" fill="#E0E0E0"/>
<path d="M242.934 235.397C242.934 235.876 242.792 236.343 242.526 236.741C242.26 237.139 241.882 237.449 241.44 237.632C240.998 237.815 240.512 237.863 240.043 237.77C239.574 237.676 239.143 237.446 238.804 237.108C238.466 236.769 238.236 236.338 238.142 235.869C238.049 235.4 238.097 234.914 238.28 234.472C238.463 234.03 238.773 233.652 239.171 233.386C239.569 233.12 240.036 232.978 240.515 232.978C241.156 232.978 241.772 233.233 242.225 233.687C242.679 234.14 242.934 234.756 242.934 235.397Z" fill="#E0E0E0"/>
<path d="M240.514 240.703C240.23 238.946 240.23 237.155 240.514 235.397C240.798 237.155 240.798 238.946 240.514 240.703Z" fill="#E0E0E0"/>
<path d="M244.475 249.624C244.475 250.103 244.333 250.57 244.067 250.968C243.801 251.366 243.423 251.676 242.981 251.859C242.539 252.042 242.053 252.09 241.584 251.997C241.115 251.904 240.684 251.673 240.345 251.335C240.007 250.996 239.777 250.565 239.683 250.096C239.59 249.627 239.638 249.141 239.821 248.699C240.004 248.257 240.314 247.879 240.712 247.613C241.11 247.347 241.577 247.205 242.056 247.205C242.697 247.205 243.313 247.46 243.766 247.914C244.22 248.367 244.475 248.983 244.475 249.624Z" fill="#E0E0E0"/>
<path d="M242.055 254.93C241.771 253.173 241.771 251.382 242.055 249.625C242.339 251.382 242.339 253.173 242.055 254.93Z" fill="#E0E0E0"/>
<path d="M176.652 279.144C176.652 279.621 176.511 280.087 176.247 280.484C175.983 280.881 175.608 281.191 175.168 281.375C174.729 281.559 174.244 281.61 173.776 281.52C173.308 281.429 172.877 281.203 172.537 280.869C172.198 280.535 171.964 280.107 171.866 279.641C171.768 279.174 171.81 278.689 171.987 278.247C172.164 277.804 172.468 277.424 172.86 277.153C173.252 276.882 173.716 276.734 174.192 276.725C174.514 276.72 174.833 276.779 175.131 276.898C175.429 277.017 175.701 277.194 175.93 277.419C176.159 277.644 176.34 277.913 176.464 278.209C176.589 278.505 176.652 278.823 176.652 279.144Z" fill="#E0E0E0"/>
<path d="M174.233 284.45C173.948 282.693 173.948 280.902 174.233 279.145C174.517 280.902 174.517 282.693 174.233 284.45Z" fill="#E0E0E0"/>
<path d="M253.7 323.736C255.036 323.736 256.119 322.653 256.119 321.317C256.119 319.981 255.036 318.898 253.7 318.898C252.364 318.898 251.281 319.981 251.281 321.317C251.281 322.653 252.364 323.736 253.7 323.736Z" fill="#E0E0E0"/>
<path d="M253.699 326.622C253.415 324.865 253.415 323.074 253.699 321.317C253.984 323.074 253.984 324.865 253.699 326.622Z" fill="#E0E0E0"/>
<path d="M209.92 347.77C209.928 348.26 209.789 348.742 209.522 349.152C209.255 349.563 208.871 349.885 208.42 350.076C207.969 350.267 207.471 350.319 206.99 350.226C206.509 350.132 206.067 349.897 205.721 349.551C205.374 349.204 205.139 348.762 205.045 348.281C204.952 347.8 205.004 347.302 205.195 346.851C205.386 346.4 205.708 346.016 206.119 345.749C206.53 345.482 207.011 345.343 207.501 345.351C208.142 345.351 208.758 345.606 209.211 346.06C209.665 346.514 209.92 347.129 209.92 347.77Z" fill="#E0E0E0"/>
<path d="M207.459 353.075C207.175 351.318 207.175 349.527 207.459 347.77C207.743 349.527 207.743 351.318 207.459 353.075Z" fill="#E0E0E0"/>
<path d="M191.274 340.464C191.274 340.943 191.132 341.41 190.866 341.808C190.6 342.206 190.222 342.516 189.78 342.699C189.338 342.882 188.852 342.93 188.383 342.837C187.913 342.743 187.482 342.513 187.144 342.175C186.806 341.836 186.575 341.405 186.482 340.936C186.389 340.467 186.437 339.98 186.62 339.538C186.803 339.096 187.113 338.719 187.511 338.453C187.908 338.187 188.376 338.045 188.855 338.045C189.496 338.045 190.111 338.3 190.565 338.754C191.019 339.207 191.274 339.823 191.274 340.464Z" fill="#E0E0E0"/>
<path d="M188.854 345.769C188.57 344.012 188.57 342.221 188.854 340.464C189.149 342.22 189.149 344.013 188.854 345.769Z" fill="#E0E0E0"/>
<path d="M233.986 335.159C233.986 335.645 233.842 336.121 233.572 336.525C233.302 336.93 232.917 337.245 232.468 337.431C232.018 337.618 231.524 337.666 231.046 337.571C230.569 337.476 230.131 337.242 229.787 336.898C229.443 336.554 229.209 336.116 229.114 335.639C229.019 335.161 229.067 334.667 229.254 334.217C229.44 333.768 229.755 333.383 230.16 333.113C230.564 332.843 231.04 332.699 231.526 332.699C231.851 332.693 232.173 332.753 232.474 332.875C232.775 332.996 233.049 333.177 233.278 333.407C233.508 333.636 233.689 333.91 233.81 334.211C233.932 334.512 233.992 334.834 233.986 335.159Z" fill="#E0E0E0"/>
<path d="M231.569 340.464C231.284 338.707 231.284 336.916 231.569 335.159C231.853 336.916 231.853 338.707 231.569 340.464Z" fill="#E0E0E0"/>
<path d="M195.151 290.993C196.487 290.993 197.57 289.91 197.57 288.574C197.57 287.238 196.487 286.155 195.151 286.155C193.815 286.155 192.732 287.238 192.732 288.574C192.732 289.91 193.815 290.993 195.151 290.993Z" fill="#E0E0E0"/>
<path d="M195.16 293.88C194.876 292.123 194.876 290.332 195.16 288.574C195.445 290.332 195.445 292.123 195.16 293.88Z" fill="#E0E0E0"/>
<path d="M203.672 264.967C203.672 265.445 203.53 265.913 203.264 266.311C202.999 266.708 202.621 267.018 202.179 267.201C201.737 267.385 201.25 267.432 200.781 267.339C200.312 267.246 199.881 267.015 199.542 266.677C199.204 266.339 198.974 265.908 198.88 265.439C198.787 264.969 198.835 264.483 199.018 264.041C199.201 263.599 199.511 263.221 199.909 262.955C200.307 262.689 200.775 262.548 201.253 262.548C201.895 262.548 202.51 262.802 202.963 263.256C203.417 263.71 203.672 264.325 203.672 264.967Z" fill="#E0E0E0"/>
<path d="M201.252 270.272C200.968 268.515 200.968 266.724 201.252 264.967C201.536 266.724 201.536 268.515 201.252 270.272Z" fill="#E0E0E0"/>
<path d="M145.033 267.623C145.033 268.1 144.892 268.566 144.628 268.963C144.364 269.36 143.989 269.67 143.549 269.854C143.11 270.038 142.625 270.089 142.157 269.999C141.689 269.908 141.258 269.682 140.918 269.348C140.578 269.014 140.345 268.587 140.247 268.12C140.149 267.653 140.191 267.168 140.368 266.726C140.545 266.283 140.848 265.903 141.241 265.632C141.633 265.361 142.097 265.213 142.573 265.204C142.894 265.199 143.213 265.258 143.512 265.377C143.81 265.496 144.081 265.673 144.31 265.898C144.539 266.123 144.721 266.392 144.845 266.688C144.969 266.984 145.033 267.302 145.033 267.623Z" fill="#E0E0E0"/>
<path d="M142.614 272.929C142.329 271.172 142.329 269.381 142.614 267.624C142.898 269.381 142.898 271.172 142.614 272.929Z" fill="#E0E0E0"/>
<path d="M256.734 245.73C256.734 246.208 256.593 246.676 256.327 247.073C256.061 247.471 255.683 247.781 255.241 247.964C254.799 248.148 254.313 248.195 253.844 248.102C253.374 248.009 252.943 247.778 252.605 247.44C252.267 247.102 252.036 246.671 251.943 246.201C251.85 245.732 251.898 245.246 252.081 244.804C252.264 244.362 252.574 243.984 252.972 243.718C253.369 243.452 253.837 243.311 254.316 243.311C254.957 243.311 255.572 243.565 256.026 244.019C256.48 244.473 256.734 245.088 256.734 245.73Z" fill="#E0E0E0"/>
<path d="M254.315 251.035C254.031 249.278 254.031 247.487 254.315 245.729C254.599 247.487 254.599 249.278 254.315 251.035Z" fill="#E0E0E0"/>
<path d="M250.248 209.543C250.248 210.021 250.106 210.489 249.84 210.887C249.575 211.285 249.197 211.595 248.755 211.778C248.313 211.961 247.826 212.009 247.357 211.915C246.888 211.822 246.457 211.592 246.119 211.253C245.78 210.915 245.55 210.484 245.457 210.015C245.363 209.545 245.411 209.059 245.594 208.617C245.777 208.175 246.087 207.797 246.485 207.531C246.883 207.266 247.351 207.124 247.829 207.124C248.471 207.124 249.086 207.379 249.54 207.832C249.993 208.286 250.248 208.901 250.248 209.543Z" fill="#E0E0E0"/>
<path d="M247.828 214.84C247.544 213.083 247.544 211.292 247.828 209.535C248.113 211.292 248.113 213.083 247.828 214.84Z" fill="#E0E0E0"/>
<path d="M198.851 179.982C200.187 179.982 201.27 178.899 201.27 177.563C201.27 176.227 200.187 175.144 198.851 175.144C197.515 175.144 196.432 176.227 196.432 177.563C196.432 178.899 197.515 179.982 198.851 179.982Z" fill="#E0E0E0"/>
<path d="M198.85 182.86C198.555 181.104 198.555 179.311 198.85 177.555C199.134 179.312 199.134 181.103 198.85 182.86Z" fill="#E0E0E0"/>
<path d="M155.022 223.196C155.022 223.672 154.881 224.138 154.617 224.535C154.353 224.932 153.977 225.242 153.538 225.426C153.098 225.611 152.614 225.661 152.146 225.571C151.677 225.481 151.246 225.254 150.907 224.92C150.567 224.586 150.333 224.159 150.235 223.692C150.137 223.226 150.179 222.741 150.356 222.298C150.533 221.855 150.837 221.475 151.229 221.204C151.621 220.934 152.085 220.785 152.562 220.777C152.883 220.771 153.202 220.83 153.5 220.949C153.798 221.068 154.07 221.245 154.299 221.471C154.528 221.696 154.709 221.964 154.834 222.26C154.958 222.557 155.022 222.875 155.022 223.196Z" fill="#E0E0E0"/>
<path d="M152.602 228.501C152.318 226.744 152.318 224.953 152.602 223.196C152.897 224.952 152.897 226.745 152.602 228.501Z" fill="#E0E0E0"/>
<path d="M183.441 160.302C183.441 160.788 183.297 161.264 183.027 161.669C182.757 162.073 182.372 162.388 181.923 162.575C181.473 162.761 180.979 162.81 180.502 162.715C180.024 162.62 179.586 162.385 179.242 162.041C178.898 161.697 178.664 161.259 178.569 160.782C178.474 160.305 178.523 159.81 178.709 159.36C178.895 158.911 179.21 158.527 179.615 158.256C180.019 157.986 180.495 157.842 180.981 157.842C181.306 157.836 181.628 157.896 181.929 158.018C182.23 158.14 182.504 158.321 182.733 158.55C182.963 158.78 183.144 159.053 183.266 159.354C183.387 159.655 183.447 159.977 183.441 160.302Z" fill="#E0E0E0"/>
<path d="M181.024 165.64C180.739 163.883 180.739 162.092 181.024 160.335C181.308 162.092 181.308 163.883 181.024 165.64Z" fill="#E0E0E0"/>
<path d="M232.765 154.98C232.757 155.457 232.609 155.92 232.338 156.313C232.067 156.705 231.687 157.009 231.244 157.185C230.801 157.362 230.316 157.404 229.85 157.306C229.383 157.209 228.956 156.975 228.622 156.635C228.288 156.295 228.061 155.864 227.971 155.396C227.881 154.928 227.931 154.444 228.116 154.004C228.3 153.564 228.61 153.189 229.007 152.925C229.404 152.661 229.87 152.52 230.346 152.52C230.668 152.52 230.985 152.584 231.282 152.708C231.578 152.832 231.846 153.014 232.072 153.243C232.297 153.472 232.474 153.743 232.593 154.042C232.712 154.34 232.771 154.659 232.765 154.98Z" fill="#E0E0E0"/>
<path d="M230.346 160.302C230.062 158.545 230.062 156.753 230.346 154.996C230.63 156.753 230.63 158.545 230.346 160.302Z" fill="#E0E0E0"/>
<path d="M246.402 152.766C246.402 153.254 246.257 153.731 245.985 154.137C245.713 154.542 245.326 154.857 244.874 155.042C244.422 155.227 243.926 155.274 243.447 155.175C242.969 155.077 242.531 154.839 242.188 154.49C241.846 154.142 241.615 153.7 241.525 153.22C241.435 152.74 241.489 152.245 241.682 151.796C241.874 151.347 242.196 150.966 242.606 150.701C243.016 150.435 243.495 150.298 243.983 150.306C244.305 150.306 244.622 150.37 244.919 150.494C245.215 150.618 245.483 150.8 245.709 151.029C245.934 151.258 246.111 151.529 246.23 151.828C246.349 152.126 246.408 152.445 246.402 152.766Z" fill="#E0E0E0"/>
<path d="M243.983 158.072C243.698 156.314 243.698 154.523 243.983 152.766C244.267 154.523 244.267 156.314 243.983 158.072Z" fill="#E0E0E0"/>
<path d="M240.924 134.923C240.924 135.401 240.782 135.869 240.516 136.267C240.25 136.665 239.873 136.975 239.431 137.158C238.989 137.341 238.502 137.389 238.033 137.295C237.564 137.202 237.133 136.972 236.794 136.633C236.456 136.295 236.226 135.864 236.132 135.395C236.039 134.926 236.087 134.439 236.27 133.997C236.453 133.555 236.763 133.177 237.161 132.912C237.559 132.646 238.026 132.504 238.505 132.504C239.143 132.514 239.752 132.773 240.204 133.224C240.655 133.675 240.913 134.285 240.924 134.923Z" fill="#E0E0E0"/>
<path d="M238.504 140.22C238.22 138.463 238.22 136.672 238.504 134.915C238.788 136.672 238.788 138.463 238.504 140.22Z" fill="#E0E0E0"/>
<path d="M164.967 176.029C164.967 176.506 164.826 176.972 164.562 177.369C164.298 177.766 163.922 178.076 163.483 178.26C163.043 178.444 162.559 178.495 162.091 178.405C161.623 178.314 161.192 178.088 160.852 177.754C160.512 177.42 160.278 176.993 160.18 176.526C160.083 176.06 160.125 175.574 160.301 175.132C160.478 174.689 160.782 174.309 161.174 174.038C161.567 173.767 162.03 173.619 162.507 173.61C162.828 173.605 163.147 173.664 163.445 173.783C163.743 173.902 164.015 174.079 164.244 174.304C164.473 174.529 164.655 174.798 164.779 175.094C164.903 175.39 164.967 175.708 164.967 176.029Z" fill="#E0E0E0"/>
<path d="M162.549 181.335C162.265 179.578 162.265 177.786 162.549 176.029C162.833 177.786 162.833 179.578 162.549 181.335Z" fill="#E0E0E0"/>
<path d="M221.187 153.143C221.195 153.633 221.057 154.114 220.79 154.525C220.523 154.936 220.139 155.258 219.688 155.449C219.237 155.64 218.739 155.692 218.258 155.599C217.777 155.505 217.335 155.27 216.988 154.923C216.642 154.577 216.406 154.135 216.313 153.654C216.219 153.173 216.271 152.675 216.463 152.224C216.654 151.773 216.976 151.389 217.386 151.122C217.797 150.855 218.278 150.716 218.768 150.724C219.41 150.724 220.025 150.979 220.479 151.433C220.932 151.886 221.187 152.502 221.187 153.143Z" fill="#E0E0E0"/>
<path d="M218.768 158.449C218.484 156.692 218.484 154.9 218.768 153.143C219.052 154.9 219.052 156.692 218.768 158.449Z" fill="#E0E0E0"/>
<path d="M153.265 98.6625C153.273 99.1524 153.135 99.6336 152.868 100.044C152.601 100.455 152.217 100.777 151.766 100.968C151.315 101.159 150.817 101.211 150.336 101.118C149.855 101.024 149.413 100.789 149.066 100.443C148.72 100.096 148.485 99.6541 148.391 99.1731C148.297 98.6921 148.35 98.1941 148.541 97.743C148.732 97.2919 149.054 96.9081 149.464 96.641C149.875 96.3738 150.356 96.2354 150.846 96.2435C151.488 96.2435 152.103 96.4984 152.557 96.952C153.01 97.4057 153.265 98.0209 153.265 98.6625Z" fill="#E0E0E0"/>
<path d="M150.879 103.96C150.669 103.093 150.597 102.2 150.666 101.311C150.597 100.422 150.669 99.5286 150.879 98.6624C151.093 99.5278 151.165 100.422 151.092 101.311C151.165 102.2 151.093 103.094 150.879 103.96Z" fill="#E0E0E0"/>
<path d="M181.024 111.905C181.024 112.384 180.882 112.851 180.616 113.249C180.35 113.647 179.972 113.957 179.53 114.14C179.088 114.323 178.602 114.371 178.133 114.278C177.663 114.185 177.232 113.954 176.894 113.616C176.556 113.278 176.325 112.846 176.232 112.377C176.139 111.908 176.187 111.422 176.37 110.98C176.553 110.538 176.863 110.16 177.261 109.894C177.658 109.628 178.126 109.486 178.605 109.486C179.246 109.486 179.861 109.741 180.315 110.195C180.769 110.648 181.024 111.264 181.024 111.905Z" fill="#E0E0E0"/>
<path d="M178.603 117.211C178.394 116.344 178.322 115.451 178.39 114.562C178.322 113.671 178.394 112.774 178.603 111.905C178.812 112.774 178.884 113.671 178.816 114.562C178.884 115.451 178.812 116.344 178.603 117.211Z" fill="#E0E0E0"/>
<path d="M136.94 153.742C136.94 154.228 136.795 154.704 136.525 155.109C136.255 155.513 135.87 155.828 135.421 156.015C134.971 156.201 134.477 156.249 134 156.155C133.522 156.06 133.084 155.825 132.74 155.481C132.396 155.137 132.162 154.699 132.067 154.222C131.972 153.745 132.021 153.25 132.207 152.8C132.393 152.351 132.708 151.967 133.113 151.696C133.517 151.426 133.993 151.282 134.48 151.282C134.804 151.276 135.126 151.336 135.427 151.458C135.728 151.579 136.002 151.76 136.231 151.99C136.461 152.22 136.642 152.493 136.764 152.794C136.885 153.095 136.945 153.417 136.94 153.742Z" fill="#E0E0E0"/>
<path d="M134.481 159.08C134.197 157.323 134.197 155.532 134.481 153.775C134.765 155.532 134.765 157.323 134.481 159.08Z" fill="#E0E0E0"/>
<path d="M139.326 114.324C139.334 114.814 139.196 115.296 138.928 115.706C138.661 116.117 138.278 116.439 137.826 116.63C137.375 116.821 136.877 116.873 136.396 116.78C135.915 116.686 135.473 116.451 135.127 116.105C134.78 115.758 134.545 115.316 134.452 114.835C134.358 114.354 134.41 113.856 134.601 113.405C134.793 112.954 135.114 112.57 135.525 112.303C135.936 112.036 136.417 111.897 136.907 111.905C137.548 111.905 138.164 112.16 138.617 112.614C139.071 113.068 139.326 113.683 139.326 114.324Z" fill="#E0E0E0"/>
<path d="M136.94 119.63C136.726 118.764 136.654 117.87 136.727 116.981C136.654 116.09 136.726 115.193 136.94 114.324C137.149 115.194 137.221 116.09 137.153 116.981C137.221 117.87 137.149 118.764 136.94 119.63Z" fill="#E0E0E0"/>
<path d="M243.426 227.115L263.368 216.546L263.286 235.611L243.426 227.115Z" fill="#EBEBEB"/>
<path d="M160.596 294.716L116.906 317.266V275.192L121.744 273.035L160.596 294.716Z" fill="#EBEBEB"/>
<path d="M225.851 317.266C225.851 317.818 225.688 318.357 225.382 318.815C225.075 319.274 224.64 319.631 224.13 319.842C223.621 320.053 223.06 320.108 222.519 320.001C221.979 319.893 221.482 319.628 221.092 319.238C220.702 318.848 220.437 318.351 220.329 317.81C220.221 317.269 220.277 316.709 220.488 316.199C220.699 315.69 221.056 315.254 221.514 314.948C221.973 314.642 222.512 314.478 223.063 314.478C223.803 314.478 224.512 314.772 225.035 315.295C225.558 315.818 225.851 316.527 225.851 317.266Z" fill="#FFAB5E"/>
<path d="M251.363 118.26L265.279 122.492V144.418L251.363 118.26Z" fill="#EBEBEB"/>
<path d="M265.417 88.9701L265.335 65.0425C264.774 60.9204 262.744 57.1393 259.618 54.3944C256.492 51.6495 252.48 50.1253 248.32 50.1021L226.369 50.0201C225.653 50.0329 224.946 50.1867 224.289 50.4726C223.633 50.7585 223.039 51.171 222.541 51.6866C222.044 52.2021 221.653 52.8105 221.391 53.4771C221.129 54.1437 221.001 54.8554 221.014 55.5715V59.5485C221.036 60.992 220.485 62.3852 219.481 63.4228C218.477 64.4604 217.103 65.0576 215.659 65.0835L172.864 64.8867C171.418 64.8459 170.048 64.2334 169.053 63.1834C168.058 62.1335 167.521 60.7319 167.558 59.2861V55.3091C167.578 54.5929 167.456 53.8799 167.2 53.2108C166.944 52.5417 166.559 51.9296 166.066 51.4094C165.573 50.8893 164.983 50.4714 164.329 50.1795C163.674 49.8877 162.969 49.7276 162.253 49.7085H154.528L135.299 49.5855C130.973 49.5755 126.802 51.1944 123.614 54.1201C121.687 57.8347 119.58 63.1401 120.548 67.1499L265.31 114.275L265.417 88.9701Z" fill="#FFAB5E"/>
<path opacity="0.7" d="M265.417 88.9701L265.335 65.0425C264.774 60.9204 262.744 57.1393 259.618 54.3944C256.492 51.6495 252.48 50.1253 248.32 50.1021L226.369 50.0201C225.653 50.0329 224.946 50.1867 224.289 50.4726C223.633 50.7585 223.039 51.171 222.541 51.6866C222.044 52.2021 221.653 52.8105 221.391 53.4771C221.129 54.1437 221.001 54.8554 221.014 55.5715V59.5485C221.036 60.992 220.485 62.3852 219.481 63.4228C218.477 64.4604 217.103 65.0576 215.659 65.0835L172.864 64.8867C171.418 64.8459 170.048 64.2334 169.053 63.1834C168.058 62.1335 167.521 60.7319 167.558 59.2861V55.3091C167.578 54.5929 167.456 53.8799 167.2 53.2108C166.944 52.5417 166.559 51.9296 166.066 51.4094C165.573 50.8893 164.983 50.4714 164.329 50.1795C163.674 49.8877 162.969 49.7276 162.253 49.7085H154.528L135.299 49.5855C130.973 49.5755 126.802 51.1944 123.614 54.1201C121.687 57.8347 119.58 63.1401 120.548 67.1499L265.31 114.275L265.417 88.9701Z" fill="white"/>
<path d="M248.32 50.102H248.911C249.495 50.1127 250.079 50.162 250.657 50.2496C252.951 50.5335 255.157 51.3052 257.127 52.5128C258.595 53.3882 259.919 54.4833 261.055 55.76C262.447 57.2764 263.557 59.0285 264.335 60.9342C265.221 63.1632 265.65 65.5472 265.598 67.9452C265.598 70.4926 265.598 73.2068 265.598 76.0878C265.516 99.1052 265.401 132.405 265.253 173.553C265.106 214.701 264.901 263.696 264.688 318.103C264.688 324.898 264.66 331.78 264.605 338.75C264.605 340.489 264.605 342.235 264.605 343.99C264.63 345.766 264.398 347.536 263.917 349.246C263.433 350.97 262.683 352.608 261.695 354.101C260.692 355.592 259.476 356.929 258.086 358.069C255.245 360.357 251.758 361.697 248.115 361.899C247.205 361.956 246.303 361.94 245.401 361.94H242.695H237.258L215.258 361.841L170.051 361.62L146.96 361.513L135.3 361.423C131.317 361.627 127.377 360.521 124.082 358.274C120.797 355.985 118.391 352.644 117.26 348.803C116.722 346.906 116.487 344.936 116.563 342.965V337.143C116.595 329.397 116.628 321.697 116.661 314.044C116.727 298.737 116.79 283.684 116.85 268.886C116.981 239.276 117.104 210.715 117.227 183.508C117.35 156.3 117.465 130.454 117.571 106.256C117.626 94.1578 117.681 82.4892 117.735 71.2498C117.735 69.8394 117.735 68.4454 117.735 67.0596C117.735 66.3626 117.801 65.6574 117.842 64.9604C117.883 64.2634 118.022 63.5828 118.203 62.9104C118.835 60.2253 120.087 57.7258 121.86 55.6124C123.584 53.578 125.75 51.9642 128.193 50.8941C130.636 49.824 133.291 49.3259 135.956 49.4378L151.011 49.5116H158.251H161.802C163.006 49.4519 164.195 49.789 165.189 50.471C166.192 51.1605 166.95 52.1513 167.353 53.3C167.672 54.4072 167.786 55.5631 167.69 56.7112C167.69 57.2688 167.69 57.8346 167.69 58.3512C167.653 58.8972 167.653 59.4451 167.69 59.9912C167.823 61.0647 168.271 62.0747 168.977 62.894C169.663 63.705 170.587 64.2789 171.617 64.534C172.127 64.6586 172.651 64.7138 173.175 64.698H174.766H181.006L203.778 64.821L213.823 64.8784C214.643 64.8784 215.422 64.8784 216.176 64.8784C216.931 64.7948 217.656 64.5426 218.3 64.1404C218.921 63.7541 219.459 63.2475 219.881 62.6505C220.304 62.0534 220.603 61.3778 220.76 60.6636C220.88 59.9707 220.927 59.2671 220.9 58.5644C220.9 57.8674 220.9 57.1786 220.9 56.498C220.87 55.8267 220.903 55.1542 220.998 54.489C221.107 53.8403 221.329 53.2159 221.654 52.644C222.257 51.5244 223.235 50.6533 224.417 50.184C225.525 49.8385 226.69 49.7186 227.845 49.8314L239.046 49.9052L245.934 49.9544H248.288C248.288 49.9544 247.468 49.9544 245.934 49.9544H239.046H227.845C226.706 49.8387 225.556 49.9587 224.466 50.307C223.323 50.7583 222.372 51.5932 221.777 52.6686C221.466 53.23 221.253 53.8399 221.145 54.4726C221.057 55.1301 221.027 55.7941 221.055 56.457C221.055 57.1376 221.055 57.8264 221.055 58.5234C221.087 59.2373 221.038 59.9526 220.908 60.6554C220.751 61.3916 220.449 62.0889 220.018 62.7059C219.587 63.3229 219.036 63.847 218.398 64.247C217.736 64.6649 216.987 64.9283 216.209 65.0178C215.389 65.0834 214.635 65.0178 213.831 65.0178H203.786L181.015 64.9276H174.774H173.184C172.632 64.9472 172.08 64.8921 171.544 64.7636C170.491 64.5091 169.539 63.9433 168.813 63.14C168.074 62.2809 167.606 61.2223 167.468 60.0978C167.415 59.5391 167.399 58.9776 167.419 58.4168V56.7768C167.515 55.6731 167.406 54.5612 167.099 53.4968C166.722 52.4304 166.023 51.5077 165.098 50.8564C164.151 50.207 163.015 49.8898 161.868 49.9544H158.317H151.076L136.013 49.897C133.41 49.7725 130.812 50.2407 128.415 51.2663C126.019 52.2918 123.887 53.8479 122.18 55.8174C120.444 57.895 119.217 60.349 118.596 62.9842C118.424 63.6402 118.367 64.329 118.244 65.0014C118.121 65.6738 118.153 66.3626 118.145 67.0596C118.145 68.4454 118.145 69.8476 118.145 71.2498C118.096 82.4728 118.05 94.1414 118.006 106.256C117.916 130.454 117.809 156.276 117.702 183.508C117.596 210.74 117.473 239.268 117.35 268.886C117.29 283.695 117.216 298.753 117.128 314.06C117.128 321.713 117.098 329.413 117.038 337.159V342.99C116.961 344.927 117.191 346.864 117.719 348.73C118.819 352.468 121.155 355.724 124.344 357.963C127.567 360.143 131.415 361.208 135.3 360.997L146.96 361.046L170.059 361.153L215.2 361.366L237.201 361.472H242.638H245.344C246.246 361.472 247.148 361.472 248.033 361.431C251.592 361.234 254.999 359.927 257.775 357.692C259.133 356.578 260.321 355.271 261.301 353.814C262.264 352.358 262.997 350.762 263.474 349.082C263.944 347.407 264.168 345.672 264.138 343.933C264.138 342.178 264.138 340.431 264.138 338.693C264.171 331.723 264.201 324.838 264.228 318.037C264.483 263.638 264.704 214.643 264.884 173.496C265.065 132.348 265.253 99.0478 265.368 76.0304C265.368 73.1549 265.382 70.4407 265.409 67.8878C265.472 65.508 265.054 63.14 264.179 60.926C263.421 59.0291 262.326 57.2846 260.948 55.7764C259.821 54.5182 258.511 53.4373 257.061 52.5702C255.104 51.3608 252.913 50.5784 250.633 50.2742C250.055 50.1791 249.471 50.1243 248.886 50.1102C248.517 50.1266 248.32 50.102 248.32 50.102Z" fill="#263238"/>
<path d="M299.604 213.028C311.748 213.331 324.023 213.651 335.766 216.767C347.508 219.883 358.849 226.082 365.81 236.037C373.486 246.992 375.011 260.998 375.773 274.347C377.156 296.503 376.81 318.732 374.74 340.833C373.641 352.018 369.673 362.415 359.267 366.671C346.754 371.796 329.935 366.671 329.935 366.671" fill="#263238"/>
<path d="M332.174 364.006C332.174 364.006 332.33 364.006 332.633 364.006H333.986L339.177 363.965C341.917 364.014 344.657 363.872 347.377 363.539C348.197 363.408 349.017 363.317 349.837 363.104L351.099 362.825C351.526 362.711 351.919 362.571 352.387 362.448C353.264 362.219 354.117 361.85 355.011 361.522C355.91 361.141 356.786 360.709 357.635 360.226C359.48 359.207 361.143 357.888 362.555 356.323C364.062 354.626 365.159 352.606 365.761 350.419C366.909 345.516 367.527 340.505 367.606 335.47C367.77 330.148 367.713 324.556 367.762 318.75C367.811 312.945 367.811 306.951 367.844 300.801C367.877 294.651 367.934 288.64 367.737 282.843C367.592 277.275 367.066 271.725 366.163 266.229C364.392 255.742 360.726 246.648 355.987 240.137C353.826 237.233 351.399 234.538 348.738 232.085C346.401 229.895 344.302 228.108 342.58 226.656L338.594 223.335L337.569 222.458C337.449 222.361 337.334 222.257 337.225 222.146C337.225 222.146 337.356 222.236 337.594 222.425L338.652 223.245L342.686 226.525C344.425 227.952 346.548 229.723 348.902 231.904C351.594 234.351 354.049 237.047 356.233 239.957C361.03 246.517 364.752 255.627 366.556 266.197C367.469 271.71 368.001 277.28 368.147 282.867C368.36 288.673 368.295 294.683 368.27 300.833C368.246 306.983 368.213 312.986 368.18 318.791C368.147 324.597 368.18 330.181 368 335.519C367.907 340.583 367.272 345.622 366.105 350.55C365.487 352.783 364.365 354.845 362.825 356.577C361.395 358.157 359.713 359.489 357.848 360.521C356.987 361.005 356.1 361.44 355.191 361.825C354.281 362.153 353.412 362.514 352.526 362.743L351.231 363.112L349.951 363.391C349.131 363.596 348.311 363.678 347.491 363.809C344.77 364.124 342.03 364.242 339.291 364.162H334.101H332.748L332.174 364.006Z" fill="#455A64"/>
<path d="M367.941 303.933C369.303 303.426 370.744 303.167 372.197 303.17C373.645 303.036 375.105 303.158 376.51 303.531C376.51 303.654 374.575 303.482 372.214 303.597C369.852 303.712 367.966 304.056 367.941 303.933Z" fill="#455A64"/>
<path d="M315.471 213.659H315.782H316.709C317.529 213.659 318.726 213.659 320.268 213.799C324.626 214.193 328.921 215.109 333.06 216.529L335.052 217.267L336.085 217.653L337.102 218.112L339.21 219.071C339.931 219.391 340.612 219.801 341.342 220.178C344.402 221.81 347.311 223.712 350.034 225.861C353.067 228.208 355.868 230.841 358.398 233.725C361.124 236.821 363.401 240.285 365.163 244.016C368.82 251.683 370.403 259.71 371.214 266.976C372.026 274.241 372.034 280.85 372.034 286.377C372.034 291.904 372.034 296.364 372.141 299.456C372.19 300.981 372.223 302.17 372.247 303.015C372.247 303.4 372.247 303.703 372.247 303.933C372.257 304.039 372.257 304.146 372.247 304.253C372.235 304.149 372.235 304.045 372.247 303.941C372.247 303.712 372.248 303.4 372.182 303.015C372.125 302.195 372.067 301.006 372.002 299.464C371.879 296.373 371.813 291.904 371.755 286.344C371.698 280.784 371.608 274.241 370.812 266.984C370.017 259.727 368.352 251.789 364.769 244.188C363.029 240.488 360.773 237.054 358.07 233.987C355.567 231.114 352.79 228.491 349.779 226.156C347.082 224.008 344.198 222.106 341.161 220.473C340.448 220.096 339.767 219.653 339.054 219.358L336.963 218.399L335.946 217.931L334.929 217.546L332.953 216.792C328.838 215.363 324.574 214.408 320.243 213.946C318.71 213.815 317.504 213.79 316.701 213.733L315.774 213.676C315.673 213.682 315.571 213.676 315.471 213.659Z" fill="#E0E0E0"/>
<path d="M307.877 213.635C307.877 213.635 310.854 205.771 321.456 207.263C321.456 207.263 326.179 207.001 327.04 209.625C327.04 209.625 317.159 207.165 312.953 214.004L307.877 213.635Z" fill="#263238"/>
<path d="M338.093 223.212H331.886C331.886 223.212 330.68 206.812 315.625 207.427C315.625 207.46 334.337 201.162 338.093 223.212Z" fill="#455A64"/>
<path d="M368.032 313.953L376.937 315.183L376.043 318.349L367.736 317.709L368.032 313.953Z" fill="#455A64"/>
<path d="M368.572 316.815C368.848 316.239 369.198 315.701 369.614 315.216L369.737 315.052L369.876 315.216L371.122 316.733L370.835 316.692L371.721 316.036L372.648 315.364L372.812 315.241L372.935 315.413L374.074 317.053L373.845 317.012C374.35 316.628 374.901 316.308 375.485 316.061C375.072 316.53 374.598 316.941 374.074 317.283L373.919 317.34L373.82 317.209L372.607 315.651L372.894 315.692L371.983 316.372L371.09 317.02L370.926 317.143L370.803 316.979L369.622 315.421H369.884C369.511 315.942 369.07 316.411 368.572 316.815Z" fill="#FFAB5E"/>
<path d="M238.62 372.559C238.62 372.559 236.898 366.95 237.243 364.572C237.587 362.194 240.777 360.046 240.777 360.046L237.317 270.133C237.317 270.133 236.874 230.773 257.685 218.579L270.108 215.447L300.752 213.635C301.744 213.963 337.758 227.509 342.711 232.798L327.18 312.092C327.18 312.092 329.066 335.52 330.944 352.354C331.33 355.798 333.913 372.805 333.913 372.805L238.62 372.559Z" fill="#FFAB5E"/>
<g opacity="0.3">
<path d="M330.369 347.065C330.074 349.246 329.246 351.911 327.146 352.592C324.999 353.152 322.748 353.183 320.586 352.682C312.911 351.313 305.826 347.705 298.897 344.146C285.933 337.479 272.846 330.747 261.645 321.399C260.07 320.087 258.365 318.045 259.357 316.233C260.448 314.183 263.523 314.872 265.63 315.848C287.622 325.983 308.368 336.922 330.361 347.065" fill="black"/>
</g>
<path d="M253.018 221.031C253.018 221.031 239.3 225.607 234.864 238.317C229.944 252.355 226.713 279.612 226.713 279.612L240.259 281.317L253.018 221.031Z" fill="#FFAB5E"/>
<path d="M342.693 232.798C342.693 232.798 350.073 242.474 353.632 254.233C357.191 265.992 359.257 300.063 359.257 300.063L322.357 299.554L320.397 269.567C320.397 269.567 316.674 219.539 342.693 232.798Z" fill="#FFAB5E"/>
<path d="M231.551 250.559C231.839 250.186 232.185 249.862 232.576 249.6C233.138 249.219 233.772 248.957 234.438 248.828C235.105 248.7 235.791 248.709 236.454 248.854C238.242 249.116 239.98 250.494 242.268 251.396C243.462 251.927 244.786 252.09 246.073 251.863C247.418 251.576 248.59 250.609 249.82 249.666C250.451 249.158 251.139 248.725 251.87 248.378C252.267 248.191 252.697 248.085 253.135 248.067C253.573 248.048 254.01 248.118 254.421 248.272C255.253 248.637 255.948 249.257 256.405 250.043C256.913 250.781 257.323 251.584 257.856 252.306C258.343 253.075 259.078 253.654 259.939 253.946C260.833 254.208 261.784 254.208 262.678 253.946C263.618 253.686 264.518 253.297 265.351 252.79C266.171 252.29 266.991 251.683 267.901 251.15C268.788 250.565 269.747 250.099 270.755 249.764C271.822 249.426 272.968 249.426 274.035 249.764C275.085 250.153 276.049 250.743 276.872 251.502C277.692 252.216 278.512 253.003 279.373 253.684C280.206 254.405 281.212 254.896 282.292 255.11C283.396 255.307 284.532 255.191 285.572 254.774C287.704 253.954 289.59 252.527 291.69 251.371C292.724 250.751 293.851 250.3 295.027 250.035C296.216 249.801 297.447 249.898 298.586 250.313C300.816 251.183 302.473 252.88 304.457 253.823C304.943 254.061 305.455 254.243 305.982 254.364C306.506 254.469 307.04 254.505 307.573 254.471C308.637 254.364 309.673 254.067 310.632 253.593C312.575 252.716 314.33 251.486 316.372 250.822C317.365 250.471 318.432 250.378 319.471 250.551C320.477 250.763 321.407 251.239 322.169 251.929C323.67 253.183 324.859 254.782 326.572 255.315C327.413 255.561 328.302 255.586 329.155 255.389C329.991 255.199 330.813 254.952 331.615 254.651C333.198 254.094 334.854 253.52 336.462 253.889C337.226 254.064 337.939 254.415 338.544 254.914C339.143 255.373 339.668 255.881 340.184 256.34C340.684 256.798 341.234 257.197 341.824 257.529C342.376 257.822 342.976 258.013 343.596 258.095C344.724 258.243 345.872 258.128 346.949 257.759C347.857 257.448 348.716 257.009 349.5 256.455C350.582 255.675 351.591 254.8 352.517 253.839L353.255 253.101C353.332 253.011 353.42 252.931 353.518 252.864C353.518 252.864 353.444 252.962 353.288 253.134L352.583 253.905C351.671 254.893 350.669 255.794 349.59 256.595C348.801 257.167 347.934 257.623 347.015 257.948C345.91 258.343 344.728 258.475 343.563 258.333C342.912 258.252 342.282 258.055 341.701 257.751C341.113 257.409 340.563 257.005 340.061 256.545C339.004 255.643 337.954 254.487 336.445 254.184C334.936 253.88 333.362 254.397 331.779 254.963C330.961 255.272 330.122 255.527 329.27 255.725C328.36 255.934 327.412 255.909 326.515 255.652C325.598 255.339 324.759 254.833 324.055 254.167C323.333 253.528 322.677 252.831 321.931 252.216C321.221 251.566 320.348 251.121 319.406 250.928C318.431 250.773 317.432 250.866 316.503 251.199C314.576 251.839 312.821 253.06 310.837 253.962C309.838 254.461 308.757 254.772 307.647 254.881C307.076 254.919 306.503 254.883 305.941 254.774C305.375 254.646 304.824 254.453 304.301 254.2C302.235 253.208 300.578 251.527 298.455 250.715C297.393 250.325 296.244 250.234 295.134 250.453C294.002 250.714 292.918 251.148 291.919 251.74C289.853 252.872 287.967 254.34 285.745 255.176C284.634 255.609 283.426 255.731 282.251 255.529C281.105 255.298 280.037 254.775 279.152 254.012C277.372 252.626 275.946 250.822 273.937 250.158C272.952 249.846 271.895 249.846 270.911 250.158C269.938 250.481 269.012 250.93 268.156 251.494C267.278 252.027 266.466 252.634 265.581 253.134C264.718 253.653 263.788 254.05 262.817 254.315C261.853 254.594 260.83 254.594 259.865 254.315C258.941 253.998 258.148 253.384 257.61 252.568C257.061 251.814 256.651 251.002 256.167 250.281C255.742 249.561 255.107 248.989 254.347 248.641C253.975 248.5 253.578 248.436 253.181 248.453C252.783 248.47 252.393 248.567 252.034 248.739C251.322 249.069 250.653 249.485 250.042 249.977C248.812 250.896 247.582 251.888 246.171 252.199C244.832 252.425 243.456 252.245 242.219 251.683C239.898 250.764 238.193 249.362 236.479 249.083C235.833 248.935 235.164 248.916 234.511 249.029C233.857 249.141 233.233 249.383 232.674 249.739C232.28 249.985 231.905 250.259 231.551 250.559Z" fill="#FAFAFA"/>
<path d="M227.205 272.732C227.325 272.721 227.446 272.721 227.566 272.732L228.632 272.839C229.968 273.103 231.346 273.066 232.666 272.732C233.535 272.543 234.511 272.371 235.577 272.182C236.643 271.994 237.783 271.74 239.046 271.592C240.418 271.394 241.816 271.495 243.146 271.887C244.54 272.297 245.893 273.011 247.385 273.527C248.942 274.056 250.622 274.105 252.207 273.667C253.847 273.265 255.487 272.502 257.299 271.887C259.109 271.114 261.113 270.916 263.039 271.322C265.023 271.879 266.623 273.347 268.607 273.831C269.1 273.952 269.61 273.988 270.116 273.937C270.633 273.874 271.142 273.753 271.633 273.577C272.633 273.232 273.601 272.757 274.659 272.355C275.739 271.907 276.945 271.866 278.053 272.24C279.096 272.734 280.062 273.375 280.923 274.142C281.362 274.486 281.841 274.775 282.35 275.003C282.868 275.222 283.428 275.326 283.99 275.307C285.137 275.202 286.252 274.87 287.27 274.331C288.34 273.779 289.46 273.331 290.616 272.994C291.224 272.844 291.854 272.8 292.477 272.863C293.103 272.947 293.709 273.144 294.265 273.445C295.304 274.072 296.306 274.76 297.266 275.504C297.74 275.836 298.252 276.112 298.791 276.324C299.055 276.43 299.33 276.507 299.611 276.553L300.029 276.627H300.456C301.604 276.603 302.739 276.366 303.801 275.93C304.884 275.536 305.95 275.069 307.081 274.741C308.188 274.346 309.381 274.258 310.534 274.487C311.645 274.798 312.651 275.404 313.445 276.242C314.19 277.02 314.99 277.743 315.839 278.406C316.678 279.003 317.698 279.292 318.725 279.226C319.735 279.123 320.715 278.825 321.612 278.349C322.522 277.906 323.383 277.39 324.26 276.906C325.982 275.946 327.876 275.069 329.836 275.266C331.647 275.599 333.341 276.393 334.756 277.57C336.04 278.609 337.411 279.534 338.856 280.333C340.204 280.986 341.661 281.38 343.153 281.498C344.489 281.571 345.829 281.469 347.138 281.194C349.238 280.708 351.201 279.752 352.878 278.398C353.922 277.526 354.824 276.497 355.552 275.348C355.781 274.946 355.937 274.618 356.052 274.413C356.105 274.303 356.165 274.196 356.232 274.093C356.196 274.209 356.149 274.322 356.093 274.429C355.986 274.643 355.847 274.979 355.625 275.389C354.925 276.572 354.033 277.631 352.985 278.521C351.305 279.918 349.327 280.911 347.204 281.424C345.876 281.722 344.513 281.838 343.153 281.768C341.622 281.663 340.125 281.267 338.742 280.604C337.269 279.811 335.872 278.886 334.568 277.84C333.194 276.707 331.555 275.942 329.804 275.618C327.967 275.413 326.155 276.25 324.441 277.209C323.58 277.693 322.711 278.218 321.776 278.669C320.836 279.17 319.809 279.485 318.75 279.595C317.636 279.664 316.531 279.352 315.617 278.71C314.743 278.041 313.92 277.306 313.157 276.512C312.413 275.728 311.469 275.161 310.427 274.872C309.344 274.663 308.225 274.751 307.188 275.126C306.105 275.446 305.048 275.946 303.949 276.307C302.84 276.766 301.655 277.014 300.456 277.037H299.988L299.537 276.955C299.23 276.908 298.93 276.823 298.644 276.701C298.064 276.474 297.513 276.18 297.004 275.823C296.055 275.092 295.066 274.413 294.043 273.79C293.534 273.512 292.978 273.332 292.403 273.257C291.83 273.201 291.251 273.24 290.689 273.372C289.559 273.709 288.461 274.148 287.409 274.684C286.344 275.243 285.18 275.588 283.982 275.7C283.37 275.709 282.762 275.595 282.194 275.364C281.656 275.119 281.15 274.811 280.685 274.446C279.85 273.709 278.921 273.086 277.922 272.592C276.901 272.253 275.791 272.293 274.798 272.707C273.781 273.06 272.805 273.568 271.772 273.921C271.242 274.111 270.692 274.237 270.132 274.298C269.583 274.35 269.029 274.312 268.492 274.183C266.368 273.642 264.786 272.174 262.908 271.65C261.044 271.251 259.102 271.437 257.348 272.182C255.668 272.859 253.955 273.45 252.215 273.954C250.57 274.398 248.83 274.335 247.221 273.773C245.696 273.257 244.359 272.535 242.998 272.133C241.721 271.749 240.376 271.643 239.054 271.822C237.808 271.953 236.651 272.199 235.585 272.379C234.519 272.56 233.544 272.707 232.674 272.888C232.24 272.97 231.854 273.068 231.428 273.125C231.058 273.17 230.683 273.17 230.313 273.125C229.632 273.052 229.058 272.97 228.591 272.904L227.541 272.757C227.429 272.758 227.316 272.75 227.205 272.732Z" fill="#FAFAFA"/>
<path d="M240.857 292.068H241.103L241.817 292.141C242.44 292.207 243.358 292.33 244.539 292.51C246.909 292.83 250.279 293.535 254.551 293.888C256.865 294.078 259.192 294.037 261.497 293.765C262.801 293.609 264.12 293.609 265.425 293.765C266.114 293.859 266.786 294.055 267.417 294.347C268.053 294.67 268.652 295.061 269.205 295.512C270.32 296.332 271.378 297.422 272.747 297.832C273.43 298.033 274.156 298.033 274.838 297.832C275.553 297.613 276.249 297.339 276.921 297.012C277.632 296.651 278.391 296.397 279.176 296.258C280.01 296.138 280.86 296.322 281.57 296.774C282.989 297.635 283.916 299.07 285.359 299.677C286.802 300.284 288.45 299.915 289.934 299.48C291.416 298.92 292.966 298.558 294.543 298.406C295.338 298.388 296.126 298.554 296.847 298.89C297.535 299.227 298.172 299.657 298.741 300.169C299.748 301.183 300.884 302.06 302.12 302.777C303.365 303.285 304.761 303.285 306.006 302.777C307.269 302.383 308.425 301.768 309.688 301.481C310.905 301.142 312.202 301.241 313.354 301.76C313.891 302.042 314.33 302.483 314.608 303.023C314.837 303.527 315.029 304.048 315.182 304.581C315.32 305.064 315.561 305.511 315.887 305.893C316.21 306.24 316.612 306.502 317.06 306.655C317.906 306.922 318.813 306.922 319.659 306.655C320.396 306.424 321.064 306.012 321.603 305.458C322.061 304.989 322.46 304.466 322.792 303.9C323.237 303.111 323.621 302.288 323.94 301.44C324.055 301.17 324.137 300.948 324.202 300.776C324.228 300.698 324.264 300.624 324.309 300.555C324.296 300.636 324.274 300.716 324.243 300.792L324.022 301.473C323.735 302.349 323.37 303.197 322.931 304.007C322.612 304.603 322.215 305.155 321.75 305.647C321.194 306.235 320.501 306.678 319.733 306.934C318.841 307.232 317.879 307.246 316.978 306.975C316.482 306.816 316.033 306.534 315.674 306.155C315.301 305.75 315.022 305.269 314.854 304.745C314.7 304.23 314.511 303.726 314.288 303.236C314.035 302.757 313.644 302.366 313.165 302.113C312.08 301.641 310.864 301.566 309.729 301.899C308.532 302.17 307.368 302.785 306.08 303.203C305.421 303.43 304.734 303.566 304.038 303.605C303.308 303.632 302.582 303.492 301.915 303.195C300.643 302.467 299.474 301.574 298.438 300.538C297.891 300.056 297.284 299.646 296.634 299.316C295.967 299.015 295.241 298.867 294.51 298.882C292.973 299.037 291.462 299.393 290.016 299.94C289.243 300.191 288.446 300.367 287.638 300.464C286.803 300.565 285.956 300.449 285.178 300.128C283.579 299.431 282.645 297.972 281.333 297.193C280.704 296.788 279.949 296.624 279.209 296.733C278.467 296.865 277.749 297.106 277.077 297.447C276.388 297.796 275.672 298.089 274.937 298.324C274.179 298.548 273.373 298.548 272.616 298.324C271.107 297.857 270.041 296.766 268.942 295.922C268.417 295.486 267.845 295.109 267.237 294.798C266.64 294.517 266.004 294.327 265.351 294.232C264.076 294.081 262.788 294.081 261.513 294.232C259.187 294.489 256.841 294.514 254.51 294.306C250.238 293.913 246.86 293.158 244.498 292.789L241.784 292.338L241.079 292.232L240.857 292.068Z" fill="#FAFAFA"/>
<path d="M239.711 346.753L239.957 346.655L240.67 346.409C241.302 346.188 242.237 345.851 243.442 345.458C244.907 344.941 246.425 344.586 247.968 344.4C248.954 344.344 249.939 344.507 250.855 344.876C251.84 345.292 252.873 345.586 253.93 345.753C255.097 345.801 256.257 345.541 257.292 344.999C258.445 344.393 259.656 343.907 260.908 343.547C262.302 343.294 263.736 343.379 265.09 343.793C266.476 344.162 267.845 344.712 269.272 345.13C270.702 345.624 272.232 345.753 273.725 345.507C275.255 345.058 276.745 344.479 278.177 343.777C278.958 343.444 279.79 343.247 280.637 343.195C281.521 343.162 282.394 343.394 283.146 343.859C284.647 344.744 285.721 346.204 287.296 346.786C288.078 347.048 288.921 347.068 289.715 346.844C290.52 346.613 291.305 346.314 292.06 345.95C292.823 345.581 293.612 345.268 294.421 345.015C295.25 344.746 296.14 344.726 296.98 344.958C297.78 345.237 298.496 345.714 299.063 346.343C299.637 346.926 300.145 347.532 300.703 348.024C301.273 348.499 301.951 348.826 302.677 348.979C303.403 349.132 304.155 349.105 304.868 348.902C306.32 348.615 307.689 348.082 309.075 347.68C309.766 347.484 310.48 347.377 311.199 347.36C311.912 347.338 312.618 347.511 313.24 347.86C313.842 348.188 314.353 348.662 314.725 349.238C315.102 349.779 315.397 350.345 315.7 350.878C316.163 351.946 317.017 352.797 318.087 353.256C319.1 353.553 320.189 353.441 321.121 352.944C321.973 352.531 322.735 351.951 323.359 351.239C324.29 350.017 325.085 348.697 325.729 347.303C326.167 346.425 326.683 345.588 327.271 344.802C327.48 344.533 327.713 344.283 327.968 344.056C327.968 344.056 327.738 344.318 327.344 344.876C326.786 345.673 326.295 346.515 325.877 347.393C325.251 348.816 324.467 350.164 323.54 351.411C322.902 352.161 322.118 352.772 321.235 353.207C320.232 353.754 319.052 353.881 317.955 353.559C316.813 353.08 315.893 352.187 315.381 351.058C314.766 350.001 314.192 348.771 313.035 348.18C311.879 347.59 310.477 347.705 309.14 348.057C307.804 348.41 306.418 348.992 304.917 349.295C304.151 349.475 303.357 349.502 302.58 349.377C302.179 349.309 301.788 349.19 301.416 349.025C301.05 348.84 300.709 348.612 300.399 348.344C299.784 347.819 299.268 347.204 298.71 346.647C298.192 346.062 297.53 345.621 296.791 345.368C296.028 345.163 295.222 345.183 294.471 345.425C293.682 345.676 292.912 345.983 292.166 346.343C291.391 346.725 290.581 347.032 289.747 347.262C288.872 347.506 287.944 347.484 287.082 347.196C285.344 346.532 284.278 345.048 282.868 344.228C282.184 343.806 281.39 343.597 280.588 343.629C279.786 343.677 278.998 343.863 278.259 344.179C276.806 344.888 275.294 345.469 273.741 345.917C272.185 346.171 270.589 346.033 269.1 345.515C267.64 345.081 266.287 344.531 264.926 344.162C263.629 343.76 262.255 343.67 260.916 343.9C259.686 344.251 258.494 344.723 257.357 345.31C256.268 345.864 255.052 346.124 253.831 346.065C252.754 345.888 251.702 345.579 250.699 345.146C249.821 344.777 248.871 344.606 247.919 344.646C246.391 344.813 244.885 345.14 243.426 345.622L240.638 346.499L239.9 346.704C239.839 346.728 239.776 346.745 239.711 346.753Z" fill="#FAFAFA"/>
<path d="M285.779 326.442C285.634 326.559 285.477 326.661 285.311 326.746C284.847 326.999 284.365 327.219 283.868 327.401C282.021 328.078 280.034 328.283 278.087 328C277.442 327.904 276.806 327.755 276.185 327.557C275.537 327.352 274.889 327.057 274.233 326.778C273.582 326.474 272.868 326.328 272.15 326.352C271.397 326.464 270.685 326.769 270.084 327.238C269.436 327.697 268.805 328.246 268.058 328.705C267.675 328.941 267.261 329.123 266.828 329.246C266.606 329.304 266.378 329.337 266.148 329.345C265.917 329.378 265.682 329.378 265.451 329.345C263.581 329.107 262.089 327.869 260.457 327.049C259.697 326.583 258.814 326.357 257.923 326.401L257.612 326.442C257.511 326.467 257.412 326.5 257.316 326.541C257.113 326.599 256.92 326.688 256.742 326.803C256.39 327.036 256.068 327.311 255.783 327.623C255.234 328.309 254.631 328.951 253.979 329.542C253.627 329.829 253.206 330.021 252.757 330.099C252.311 330.17 251.854 330.105 251.445 329.911C250.73 329.492 250.132 328.9 249.707 328.189C249.313 327.564 248.877 326.967 248.403 326.401C247.953 325.937 247.41 325.573 246.809 325.334C246.209 325.095 245.564 324.986 244.918 325.015C243.836 325.092 242.806 325.508 241.974 326.204C241.302 326.697 240.722 327.305 240.26 328C239.858 328.577 239.628 329.257 239.596 329.96C239.564 329.778 239.564 329.592 239.596 329.411C239.663 328.876 239.848 328.364 240.137 327.91C240.589 327.191 241.167 326.561 241.843 326.049C242.706 325.303 243.782 324.847 244.918 324.745C245.613 324.703 246.308 324.811 246.958 325.061C247.607 325.311 248.195 325.698 248.682 326.196C249.165 326.768 249.612 327.371 250.018 328C250.41 328.649 250.957 329.19 251.609 329.575C251.958 329.731 252.344 329.782 252.721 329.722C253.098 329.662 253.45 329.494 253.733 329.238C254.358 328.656 254.941 328.032 255.48 327.369C255.785 327.019 256.136 326.71 256.521 326.45C256.727 326.323 256.947 326.221 257.177 326.147L257.521 326.032L257.882 325.983C258.854 325.933 259.818 326.173 260.654 326.672C262.294 327.492 263.803 328.73 265.5 328.943C266.324 329.036 267.154 328.836 267.845 328.377C268.551 327.951 269.19 327.41 269.862 326.942C270.481 326.421 271.241 326.098 272.046 326.015C272.85 325.932 273.66 326.092 274.372 326.475C275.037 326.77 275.66 327.057 276.283 327.295C276.886 327.494 277.502 327.648 278.128 327.754C280.032 328.053 281.979 327.895 283.811 327.295C285.106 326.819 285.754 326.401 285.779 326.442Z" fill="#FAFAFA"/>
<path d="M240.514 368.664C240.598 368.675 240.681 368.697 240.76 368.73L241.063 368.828L241.489 368.894C242.45 368.931 243.402 368.698 244.236 368.221C245.571 367.451 246.988 366.833 248.459 366.376C248.926 366.281 249.404 366.256 249.878 366.302C250.379 366.381 250.864 366.542 251.313 366.778C252.238 367.329 253.121 367.948 253.953 368.631C254.832 369.375 255.952 369.771 257.102 369.746C258.337 369.521 259.526 369.092 260.62 368.475C261.242 368.18 261.897 367.963 262.572 367.828C263.279 367.713 264.002 367.729 264.704 367.877C266.13 368.139 267.467 368.746 268.877 369.131C270.321 369.531 271.843 369.553 273.297 369.197C274.827 368.815 276.327 368.319 277.783 367.713C279.312 367.064 280.915 366.601 282.555 366.335C284.285 366.114 286.043 366.398 287.614 367.155C289.205 367.844 290.657 368.73 292.19 369.345C293.656 370.018 295.308 370.172 296.872 369.779C299.931 368.902 302.169 366.425 305.072 365.466C306.493 364.974 308.038 364.974 309.459 365.466C310.761 365.929 311.994 366.566 313.125 367.36C314.232 368.09 315.273 368.828 316.331 369.427C317.335 370.016 318.421 370.452 319.553 370.722C321.52 371.129 323.557 371.042 325.482 370.468C326.937 370.036 328.299 369.338 329.5 368.41C330.517 367.603 331.402 366.643 332.124 365.564C332.091 365.645 332.05 365.722 332.001 365.794L331.599 366.434C331.029 367.222 330.357 367.931 329.598 368.541C328.387 369.485 327.01 370.197 325.539 370.64C323.996 371.156 322.361 371.335 320.742 371.165C319.124 370.995 317.561 370.481 316.159 369.656C315.076 369.058 314.035 368.32 312.928 367.606C311.82 366.833 310.611 366.215 309.336 365.769C307.995 365.302 306.536 365.302 305.195 365.769C303.792 366.318 302.464 367.042 301.243 367.926C299.937 368.873 298.493 369.614 296.962 370.124C295.319 370.528 293.587 370.373 292.042 369.681C290.468 369.041 289.017 368.156 287.459 367.475C285.953 366.759 284.273 366.494 282.621 366.712C281.015 366.969 279.446 367.418 277.947 368.049C276.471 368.665 274.949 369.167 273.396 369.55C271.877 369.91 270.291 369.879 268.787 369.459C267.336 369.058 266.016 368.451 264.687 368.197C264.03 368.051 263.351 368.031 262.686 368.139C262.04 368.262 261.412 368.466 260.817 368.746C259.684 369.373 258.453 369.806 257.176 370.025C255.949 370.052 254.755 369.626 253.822 368.828C253.007 368.148 252.144 367.529 251.239 366.975C250.819 366.748 250.365 366.59 249.894 366.507C249.449 366.453 248.998 366.47 248.558 366.557C247.105 366.998 245.703 367.591 244.376 368.328C243.513 368.795 242.533 369.003 241.555 368.926C241.383 368.926 241.243 368.877 241.12 368.844L240.825 368.721C240.719 368.717 240.614 368.697 240.514 368.664Z" fill="#FAFAFA"/>
<path d="M242.539 227.673C242.539 227.673 242.785 227.968 243.359 228.411C244.191 229.034 245.157 229.456 246.18 229.641C247.806 229.92 249.464 229.953 251.1 229.74C252.059 229.666 253.092 229.567 254.199 229.584C255.375 229.576 256.543 229.785 257.643 230.199C258.809 230.724 259.943 231.318 261.038 231.978C261.623 232.303 262.235 232.577 262.867 232.798C263.525 232.995 264.206 233.106 264.892 233.126C266.357 233.12 267.817 232.955 269.246 232.634C270.797 232.281 272.392 232.159 273.978 232.273C275.632 232.568 277.202 233.22 278.578 234.184C279.956 235.166 281.518 235.861 283.17 236.226C284.024 236.319 284.887 236.261 285.72 236.053C286.565 235.81 287.387 235.498 288.18 235.119C289.808 234.249 291.509 233.525 293.264 232.954C294.188 232.715 295.149 232.659 296.093 232.79C297.015 232.962 297.9 233.292 298.709 233.766C300.308 234.668 301.669 235.832 303.235 236.554C304.777 237.247 306.492 237.458 308.155 237.161C309.769 236.88 311.357 236.469 312.903 235.931C314.401 235.426 315.94 235.055 317.503 234.823C318.995 234.65 320.506 234.745 321.964 235.102C324.52 235.845 327.019 236.768 329.443 237.866C331.435 238.746 333.622 239.093 335.789 238.874C337.43 238.738 339.036 238.333 340.545 237.677C341.839 237.124 342.989 236.283 343.907 235.217C343.702 235.514 343.465 235.789 343.202 236.037C342.452 236.778 341.574 237.378 340.611 237.808C339.092 238.493 337.472 238.925 335.814 239.088C334.779 239.202 333.734 239.202 332.698 239.088C331.54 238.931 330.409 238.617 329.336 238.153C326.919 237.078 324.428 236.176 321.882 235.455C320.463 235.11 318.994 235.024 317.544 235.201C316.007 235.445 314.493 235.818 313.018 236.316C311.455 236.863 309.851 237.285 308.221 237.579C306.477 237.885 304.682 237.665 303.063 236.947C301.423 236.193 300.062 235.012 298.504 234.143C297.743 233.695 296.911 233.382 296.044 233.216C295.156 233.095 294.253 233.15 293.387 233.38C291.657 233.943 289.98 234.659 288.377 235.521C287.552 235.908 286.696 236.226 285.819 236.472C284.935 236.692 284.018 236.751 283.113 236.644C281.403 236.274 279.787 235.556 278.365 234.536C277.038 233.602 275.525 232.967 273.929 232.675C270.772 232.331 267.803 233.635 264.909 233.495C264.19 233.468 263.478 233.344 262.793 233.126C262.144 232.909 261.516 232.635 260.915 232.306C259.836 231.646 258.718 231.049 257.57 230.518C255.323 229.625 253.051 229.904 251.149 230.018C249.496 230.215 247.823 230.157 246.188 229.846C245.149 229.639 244.175 229.183 243.351 228.518C243.039 228.279 242.765 227.994 242.539 227.673Z" fill="#FAFAFA"/>
<g opacity="0.3">
<path d="M304.047 237.103L315.625 245.114C311.943 254.241 315.346 266.91 318.544 277.275C319.782 281.309 323.891 285.475 323.686 289.722C323.481 293.97 327.023 301.104 322.939 302.17C320.233 302.883 317.29 301.957 315.035 300.3C312.852 298.535 311.027 296.37 309.655 293.921C301.521 280.768 297.724 255.61 304.047 237.103Z" fill="black"/>
</g>
<path d="M243.098 361.685C243.247 361.68 243.396 361.696 243.54 361.735L244.787 361.964L249.362 362.833C253.225 363.563 258.579 364.473 264.516 365.293C270.453 366.113 275.857 366.687 279.768 367.048L284.409 367.458L285.672 367.581C285.82 367.585 285.966 367.61 286.107 367.655C285.96 367.673 285.811 367.673 285.664 367.655L284.401 367.614C283.294 367.565 281.711 367.475 279.743 367.335C275.824 367.048 270.404 366.515 264.459 365.695C258.514 364.875 253.159 363.883 249.305 363.079C247.378 362.686 245.82 362.333 244.754 362.079L243.524 361.767C243.379 361.757 243.236 361.729 243.098 361.685Z" fill="#263238"/>
<path d="M261.121 359.545C261.35 359.583 261.578 359.632 261.802 359.693C262.244 359.791 262.884 360.005 263.737 360.16C266.117 360.694 268.54 361.007 270.977 361.095C274.589 361.243 278.204 360.91 281.728 360.103C290.44 358.18 298.226 353.319 303.777 346.335C307.587 341.607 310.305 336.097 311.74 330.198C311.961 329.378 312.051 328.697 312.166 328.254C312.198 328.025 312.253 327.8 312.33 327.582C312.321 327.813 312.294 328.044 312.248 328.271C312.166 328.722 312.1 329.394 311.895 330.239C311.384 332.637 310.64 334.979 309.673 337.233C308.242 340.587 306.363 343.731 304.089 346.581C300.142 351.506 295.078 355.419 289.317 357.995C283.555 360.572 277.263 361.739 270.961 361.399C268.51 361.281 266.076 360.921 263.696 360.324C262.876 360.136 262.212 359.898 261.777 359.775C261.551 359.722 261.331 359.645 261.121 359.545Z" fill="#263238"/>
<path d="M268.386 215.406C268.409 215.605 268.409 215.806 268.386 216.005C268.386 216.431 268.386 216.989 268.386 217.694C268.333 219.759 268.542 221.823 269.009 223.836C269.351 225.21 269.952 226.507 270.78 227.657C271.757 228.951 273.009 230.013 274.446 230.765C276.037 231.614 277.744 232.224 279.513 232.577C281.397 232.996 283.324 233.183 285.253 233.134C289.011 233.095 292.69 232.056 295.913 230.125C298.518 228.512 300.633 226.218 302.031 223.491C302.964 221.649 303.506 219.633 303.621 217.571C303.679 216.111 303.523 215.308 303.58 215.299C303.629 215.491 303.665 215.685 303.687 215.882C303.763 216.444 303.799 217.011 303.794 217.579C303.74 219.678 303.231 221.74 302.301 223.622C300.913 226.43 298.772 228.798 296.118 230.461C292.846 232.45 289.099 233.52 285.27 233.561C283.302 233.609 281.336 233.416 279.415 232.987C277.61 232.618 275.869 231.986 274.249 231.109C272.762 230.314 271.476 229.193 270.485 227.829C269.643 226.638 269.039 225.296 268.706 223.877C268.262 221.836 268.093 219.746 268.206 217.661C268.206 216.923 268.271 216.349 268.304 215.964C268.311 215.775 268.339 215.588 268.386 215.406Z" fill="#263238"/>
<path d="M263.376 216.833C263.376 216.833 243.425 217.595 238.686 237.513C233.2 260.596 236.513 286.032 243.409 298.775L243.729 276.078C243.956 260.326 247.75 244.831 254.823 230.756L263.376 216.833Z" fill="#455A64"/>
<path d="M239.924 282.326C239.886 282.096 239.87 281.862 239.874 281.629C239.874 281.137 239.874 280.473 239.809 279.636C239.743 278.8 239.76 277.709 239.809 276.479C239.858 275.249 239.809 273.839 239.948 272.297C239.997 271.516 240.047 270.696 240.096 269.837C240.153 269.017 240.26 268.124 240.342 267.213C240.498 265.393 240.793 263.466 241.072 261.473C241.78 257.079 242.728 252.727 243.909 248.435C245.141 244.159 246.608 239.954 248.304 235.84C249.124 233.954 249.878 232.158 250.707 230.527C251.108 229.707 251.469 228.887 251.863 228.157C252.256 227.427 252.642 226.689 253.011 226.008C253.716 224.631 254.462 223.434 255.077 222.368C255.692 221.302 256.258 220.408 256.717 219.678L257.816 218.038C257.935 217.837 258.072 217.647 258.226 217.472C258.128 217.684 258.015 217.89 257.89 218.087L256.873 219.76C256.414 220.498 255.864 221.4 255.274 222.482C254.684 223.565 253.954 224.754 253.265 226.14L252.15 228.296C251.764 229.051 251.412 229.854 251.018 230.674C250.198 232.314 249.468 234.102 248.665 235.98C245.28 244.188 242.861 252.763 241.457 261.531C241.162 263.548 240.85 265.467 240.686 267.271C240.596 268.181 240.481 269.05 240.416 269.895C240.35 270.739 240.293 271.535 240.243 272.314C240.104 273.855 240.088 275.258 240.038 276.479C239.989 277.701 239.973 278.767 239.973 279.636C239.973 280.506 239.973 281.137 239.973 281.629C239.976 281.862 239.96 282.095 239.924 282.326Z" fill="#263238"/>
<path d="M249.05 221.884C248.992 222.07 248.913 222.249 248.812 222.417C248.616 222.794 248.37 223.294 248.05 223.909C247.369 225.188 246.451 227.083 245.377 229.444C244.86 230.641 244.261 231.904 243.737 233.356C243.466 234.069 243.154 234.799 242.917 235.561C242.679 236.324 242.375 237.119 242.097 237.931C240.919 241.459 239.956 245.054 239.21 248.698C237.935 255.342 237.317 262.096 237.365 268.862C237.365 271.461 237.431 273.56 237.505 275.012C237.505 275.709 237.554 276.266 237.562 276.693C237.587 276.886 237.587 277.082 237.562 277.275C237.522 277.083 237.497 276.888 237.488 276.693C237.488 276.274 237.406 275.717 237.349 275.053C237.226 273.601 237.127 271.494 237.07 268.894C236.935 262.101 237.515 255.312 238.8 248.64C239.529 244.97 240.49 241.349 241.678 237.8C241.965 236.98 242.244 236.201 242.498 235.43C242.753 234.659 243.097 233.938 243.376 233.224C243.925 231.798 244.548 230.51 245.081 229.321C246.188 226.968 247.156 225.09 247.886 223.827L248.706 222.376C248.805 222.201 248.92 222.036 249.05 221.884Z" fill="#263238"/>
<path d="M327.835 224.516C327.835 224.516 314.428 260.99 324.309 291.756L324.851 302.637C324.851 302.637 317.29 302.121 311.575 291.33C305.859 280.538 304.006 269.386 302.071 253.323C300.136 237.259 308.934 216.808 308.934 216.808C308.934 216.808 324.547 220.252 327.835 224.516Z" fill="#455A64"/>
<path d="M325.203 301.76C325.134 301.736 325.068 301.703 325.007 301.662L324.449 301.35C323.756 300.913 323.112 300.402 322.53 299.825C320.473 297.598 319.011 294.887 318.283 291.945C317.708 289.951 317.269 287.921 316.971 285.868C316.585 283.663 316.274 281.301 315.995 278.8C315.407 273.382 315.171 267.931 315.29 262.482C315.404 257.031 315.878 251.594 316.708 246.205C317.342 241.798 318.274 237.44 319.496 233.159C320.319 230.265 321.471 227.475 322.932 224.844C323.331 224.131 323.766 223.438 324.236 222.769L324.605 222.261L324.744 222.089C324.744 222.089 324.744 222.163 324.646 222.286L324.301 222.819C324.006 223.294 323.58 223.991 323.071 224.926C321.685 227.573 320.586 230.36 319.791 233.241C318.618 237.52 317.72 241.869 317.102 246.262C316.293 251.642 315.825 257.068 315.7 262.507C315.585 267.938 315.806 273.371 316.364 278.775C316.634 281.235 316.938 283.63 317.299 285.827C317.595 287.883 318.02 289.918 318.57 291.92C319.272 294.833 320.68 297.528 322.67 299.767C323.44 300.52 324.29 301.188 325.203 301.76Z" fill="#263238"/>
<path d="M324.72 301.399C324.642 301.387 324.567 301.363 324.498 301.326L323.859 301.063C323.069 300.676 322.317 300.218 321.612 299.694C319.093 297.641 317.015 295.1 315.503 292.223C313.153 288.038 311.19 283.646 309.64 279.103C307.741 273.551 306.441 267.811 305.761 261.982C305.084 256.15 305.012 250.264 305.548 244.418C305.993 239.646 306.861 234.924 308.139 230.305C308.721 228.345 309.213 226.558 309.779 225.049C310.345 223.54 310.788 222.204 311.28 221.17C311.772 220.137 312.1 219.342 312.346 218.768C312.469 218.514 312.559 218.309 312.633 218.145C312.665 218.073 312.703 218.004 312.748 217.94C312.734 218.017 312.71 218.092 312.674 218.161L312.428 218.801C312.19 219.383 311.854 220.195 311.436 221.261C311.017 222.327 310.542 223.639 310.001 225.164C309.459 226.689 308.959 228.444 308.402 230.42C307.176 235.028 306.353 239.733 305.942 244.483C305.426 250.304 305.508 256.162 306.188 261.966C306.852 267.761 308.116 273.471 309.96 279.005C311.489 283.521 313.409 287.894 315.7 292.076C317.176 294.934 319.196 297.477 321.645 299.563C322.335 300.096 323.067 300.574 323.834 300.989L324.449 301.285L324.72 301.399Z" fill="#263238"/>
<path d="M318.348 238.325L327.04 240.612L325.777 243.655L317.602 242.023L318.348 238.325Z" fill="#263238"/>
<path d="M318.545 241.236C318.884 240.696 319.295 240.205 319.767 239.776L319.914 239.62L320.029 239.801C320.365 240.326 320.718 240.875 321.079 241.441L320.8 241.367L321.768 240.818C322.104 240.629 322.432 240.44 322.76 240.268L322.94 240.162L323.039 240.342L323.982 242.072L323.76 242.015C324.294 241.691 324.867 241.438 325.466 241.26C324.998 241.675 324.476 242.025 323.916 242.302L323.777 242.384L323.695 242.236C323.367 241.703 323.03 241.137 322.678 240.547L322.965 240.629L321.973 241.187L321.005 241.728L320.825 241.826L320.726 241.654L319.742 239.965H320.005C319.571 240.446 319.081 240.873 318.545 241.236Z" fill="#FFAB5E"/>
<path d="M247.139 290.436L237.685 272.978H208.895L207.984 274.708L232.355 315.224L259.94 316.553L247.139 290.436Z" fill="#455A64"/>
<path d="M356.897 300.063V330.575C356.895 333.325 356.282 336.041 355.102 338.526C353.922 341.01 352.205 343.202 350.075 344.941C347.494 347.047 344.393 348.418 341.099 348.911C337.805 349.405 334.439 349.002 331.354 347.746L264.18 317.971L270.74 295.569L324.778 313.379L324.72 299.489L356.897 300.063Z" fill="#FFBE9D"/>
<path d="M246.229 292.166L236.766 274.708H207.984L231.436 316.955L259.021 318.283L246.229 292.166Z" fill="#263238"/>
<path d="M273.404 297.972L268.853 292.322C267.373 290.484 265.5 289.001 263.371 287.982C261.242 286.963 258.913 286.434 256.553 286.434H252.559L249.862 289.46C249.862 289.46 230.395 290.28 229.681 292.74V293.511V293.97L246.336 295.085C246.336 295.085 232.174 295.044 231.321 295.085C230.469 295.126 227.369 294.848 227.435 296.504C227.484 297.873 229.075 298.964 231.535 299.308C232.535 299.456 244.81 300.522 244.81 300.522L231.305 300.391C229.788 300.391 229.977 302.851 230.879 303.121C231.592 303.359 248.919 308.41 248.919 308.41C248.919 308.41 246.008 310.354 243.638 310.19C241.268 310.026 237.193 306.967 236.348 308.41C235.503 309.854 235.667 310.698 236.176 311.034C236.684 311.371 242.277 314.257 244.146 314.765C246.016 315.274 261.243 317.685 261.243 317.685L266.737 318.57L273.404 297.972Z" fill="#FFBE9D"/>
<path d="M212.011 281.522C212.011 281.522 209.002 282.572 210.527 286.442C211.986 289.998 214.053 293.272 216.636 296.118C216.502 296.75 216.543 297.407 216.755 298.017C216.968 298.627 217.343 299.167 217.841 299.579C217.841 299.579 215.709 300.112 217.021 303.679C216.82 304.194 216.727 304.745 216.747 305.297C216.766 305.85 216.899 306.392 217.136 306.892C217.374 307.391 217.711 307.836 218.127 308.2C218.543 308.565 219.029 308.84 219.555 309.009C219.555 309.009 218.489 312.076 222.351 313.535C226.214 314.995 229.945 312.469 229.945 312.469L212.011 281.522Z" fill="#FFBE9D"/>
<path d="M218.119 295.815C220.858 296.553 223.859 297.143 226.393 298.103C227.213 298.414 228.033 298.431 228.607 299.128C228.904 299.466 229.072 299.899 229.081 300.349C229.09 300.799 228.939 301.238 228.656 301.588C228.341 301.823 227.977 301.985 227.592 302.063C227.206 302.141 226.808 302.133 226.426 302.039C223.521 301.574 220.677 300.784 217.947 299.685" fill="#FFBE9D"/>
<path d="M219.21 300.382C221.94 301.12 224.95 301.703 227.475 302.67C228.295 302.982 229.115 302.998 229.689 303.695C229.986 304.034 230.154 304.466 230.163 304.916C230.172 305.366 230.021 305.805 229.739 306.155C229.422 306.388 229.058 306.549 228.673 306.627C228.288 306.705 227.89 306.698 227.508 306.606C224.602 306.127 221.759 305.326 219.029 304.22" fill="#FFBE9D"/>
<path d="M220.76 305.081C223.499 305.819 226.5 306.401 229.034 307.361C229.854 307.68 230.674 307.697 231.24 308.394C231.538 308.732 231.707 309.164 231.716 309.615C231.725 310.065 231.574 310.504 231.289 310.854C230.975 311.088 230.612 311.249 230.228 311.326C229.844 311.402 229.447 311.392 229.067 311.297C226.159 310.83 223.312 310.037 220.58 308.935" fill="#FFBE9D"/>
<path d="M218.119 299.768C218.119 299.653 220.095 300.325 222.523 300.998C224.95 301.67 226.942 302.105 226.926 302.219C225.389 302.162 223.867 301.886 222.408 301.399C220.911 301.053 219.468 300.504 218.119 299.768Z" fill="#EB996E"/>
<path d="M217.596 303.794C219.286 304.183 220.956 304.659 222.598 305.22C225.353 306.04 227.608 306.606 227.583 306.721C224.129 306.237 220.765 305.251 217.596 303.794Z" fill="#EB996E"/>
<path d="M219.391 308.976C220.982 309.154 222.554 309.472 224.089 309.927C225.659 310.251 227.198 310.709 228.689 311.297C227.098 311.12 225.526 310.802 223.991 310.345C222.419 310.029 220.879 309.571 219.391 308.976Z" fill="#EB996E"/>
<path d="M215.84 295.257C215.84 295.134 218.3 295.954 221.358 296.742C224.417 297.529 226.918 297.988 226.902 298.119C226.351 298.14 225.801 298.093 225.262 297.98C223.926 297.774 222.601 297.501 221.293 297.16C219.979 296.828 218.685 296.426 217.414 295.954C216.86 295.795 216.33 295.561 215.84 295.257Z" fill="#EB996E"/>
<path d="M243.236 289.722C245.516 289.493 247.809 289.405 250.1 289.46C252.378 289.376 254.659 289.434 256.93 289.632C254.661 289.861 252.38 289.945 250.1 289.886C247.811 289.977 245.518 289.922 243.236 289.722Z" fill="#EB996E"/>
<path d="M222.596 282.08C222.819 282.258 223.09 282.366 223.374 282.391C223.658 282.415 223.943 282.355 224.193 282.218C224.443 282.081 224.646 281.872 224.778 281.619C224.91 281.367 224.963 281.08 224.933 280.797C224.902 280.513 224.788 280.245 224.605 280.027C224.422 279.808 224.178 279.648 223.904 279.568C223.631 279.488 223.339 279.49 223.067 279.576C222.795 279.661 222.554 279.824 222.375 280.046C222.256 280.194 222.167 280.364 222.113 280.547C222.06 280.729 222.043 280.92 222.063 281.109C222.084 281.298 222.141 281.481 222.233 281.648C222.324 281.814 222.448 281.961 222.596 282.08Z" fill="#EBEBEB"/>
<path d="M321.276 312.592C321.5 312.573 321.725 312.598 321.94 312.666C322.537 312.772 323.126 312.92 323.703 313.109C327.549 314.339 330.939 316.692 333.436 319.866C333.813 320.34 334.158 320.838 334.469 321.358C334.691 321.727 334.797 321.932 334.773 321.949C334.748 321.965 334.191 321.202 333.198 320.054C330.622 317.052 327.319 314.759 323.604 313.396C322.178 312.871 321.259 312.658 321.276 312.592Z" fill="#EB996E"/>
<path d="M284.629 231.765C280.365 231.425 276.401 229.436 273.579 226.221C270.757 223.006 269.3 218.817 269.516 214.545C269.82 208.313 270.148 202.696 270.148 202.696C270.148 202.696 256.782 200.613 256.618 187.264C256.454 173.914 258.774 143.23 258.774 143.23C266.367 139.968 274.694 138.792 282.893 139.824C291.093 140.857 298.868 144.059 305.416 149.101L307.392 150.618L302.333 216.62C302.168 218.778 301.579 220.882 300.599 222.812C299.62 224.742 298.269 226.46 296.624 227.867C294.98 229.274 293.073 230.342 291.015 231.011C288.957 231.68 286.786 231.936 284.629 231.765Z" fill="#FFBE9D"/>
<path d="M270.125 202.54C276.287 202.665 282.347 200.952 287.533 197.62C287.533 197.62 283.433 207.231 270.092 206.025L270.125 202.54Z" fill="#EB996E"/>
<path d="M262.072 164.172C262.066 164.67 262.254 165.15 262.598 165.51C262.941 165.871 263.412 166.082 263.909 166.099C264.152 166.118 264.396 166.088 264.628 166.012C264.859 165.935 265.072 165.813 265.256 165.652C265.439 165.492 265.588 165.296 265.695 165.077C265.802 164.858 265.864 164.62 265.877 164.377C265.88 163.881 265.69 163.403 265.347 163.043C265.005 162.684 264.536 162.471 264.04 162.45C263.798 162.431 263.553 162.461 263.322 162.538C263.091 162.614 262.877 162.737 262.694 162.897C262.511 163.057 262.361 163.253 262.255 163.472C262.148 163.691 262.086 163.929 262.072 164.172Z" fill="#263238"/>
<path d="M261.301 162.032C261.539 162.278 262.941 161.212 265.032 161.212C267.123 161.212 268.591 162.245 268.813 162.032C268.919 161.917 268.681 161.466 267.993 160.991C267.103 160.377 266.047 160.05 264.967 160.056C263.901 160.054 262.862 160.39 261.998 161.015C261.4 161.466 261.187 161.917 261.301 162.032Z" fill="#263238"/>
<path d="M281.424 164.656C281.419 165.153 281.609 165.632 281.951 165.992C282.294 166.352 282.764 166.564 283.261 166.583C283.504 166.603 283.748 166.574 283.98 166.498C284.212 166.421 284.426 166.299 284.609 166.139C284.793 165.978 284.942 165.782 285.049 165.563C285.155 165.343 285.216 165.105 285.229 164.861C285.233 164.364 285.044 163.885 284.701 163.525C284.358 163.165 283.889 162.953 283.392 162.934C283.149 162.914 282.904 162.943 282.672 163.019C282.441 163.095 282.227 163.218 282.043 163.378C281.86 163.539 281.71 163.735 281.604 163.954C281.497 164.174 281.436 164.412 281.424 164.656Z" fill="#263238"/>
<path d="M281.473 162.417C281.711 162.663 283.162 161.597 285.212 161.597C287.262 161.597 288.763 162.631 288.993 162.417C289.099 162.311 288.861 161.86 288.173 161.384C287.285 160.767 286.228 160.44 285.147 160.449C284.078 160.446 283.036 160.782 282.17 161.409C281.572 161.852 281.358 162.303 281.473 162.417Z" fill="#263238"/>
<path d="M274.027 177.637C274.027 177.522 272.756 177.3 270.69 177.038C270.165 176.981 269.673 176.874 269.583 176.521C269.539 175.978 269.662 175.435 269.935 174.963L271.485 170.97C273.634 165.287 275.192 160.622 274.962 160.531C274.732 160.441 272.805 164.984 270.649 170.667C270.135 172.066 269.64 173.405 269.165 174.685C268.839 175.319 268.743 176.046 268.894 176.743C268.969 176.928 269.086 177.093 269.235 177.225C269.385 177.357 269.563 177.453 269.755 177.505C270.046 177.586 270.347 177.627 270.649 177.628C272.732 177.743 274.019 177.751 274.027 177.637Z" fill="#263238"/>
<path d="M280.071 179.055C279.735 179.055 279.727 181.261 277.824 182.844C275.922 184.426 273.544 184.18 273.527 184.484C273.527 184.623 274.052 184.918 275.061 184.943C276.365 184.963 277.634 184.521 278.644 183.696C279.617 182.904 280.241 181.762 280.383 180.515C280.44 179.58 280.219 179.039 280.071 179.055Z" fill="#263238"/>
<path d="M280.947 154.373C281.144 154.931 283.194 154.66 285.605 154.956C288.015 155.251 289.959 155.899 290.279 155.398C290.418 155.161 290.082 154.636 289.295 154.095C288.254 153.42 287.068 153.004 285.834 152.881C284.601 152.735 283.351 152.881 282.185 153.307C281.3 153.668 280.857 154.103 280.947 154.373Z" fill="#263238"/>
<path d="M262.054 156.087C262.415 156.554 263.826 156.087 265.531 156.087C267.237 156.087 268.672 156.407 269 155.915C269.147 155.677 268.918 155.21 268.286 154.775C267.444 154.242 266.461 153.974 265.464 154.004C264.467 154.035 263.502 154.363 262.694 154.947C262.095 155.382 261.89 155.866 262.054 156.087Z" fill="#263238"/>
<path d="M305.753 164.459C305.975 164.361 314.929 161.745 314.634 170.88C314.339 180.015 305.237 177.833 305.229 177.571C305.22 177.309 305.753 164.459 305.753 164.459Z" fill="#FFBE9D"/>
<path d="M308.131 174.201C308.172 174.201 308.286 174.316 308.549 174.447C308.921 174.624 309.348 174.648 309.738 174.512C310.714 174.193 311.575 172.684 311.673 171.044C311.723 170.26 311.594 169.475 311.296 168.748C311.22 168.459 311.075 168.193 310.874 167.973C310.672 167.753 310.42 167.586 310.14 167.485C309.958 167.433 309.764 167.446 309.591 167.521C309.418 167.596 309.276 167.728 309.188 167.895C309.057 168.149 309.106 168.33 309.057 168.346C309.008 168.362 308.869 168.182 308.951 167.813C309.015 167.588 309.15 167.389 309.336 167.247C309.594 167.068 309.911 166.994 310.222 167.042C310.598 167.128 310.947 167.308 311.234 167.567C311.521 167.825 311.737 168.153 311.862 168.518C312.224 169.32 312.385 170.198 312.329 171.077C312.214 172.913 311.214 174.611 309.869 174.947C309.621 175.01 309.362 175.017 309.111 174.967C308.86 174.918 308.623 174.813 308.418 174.66C308.139 174.422 308.098 174.217 308.131 174.201Z" fill="#EB996E"/>
<path d="M253.659 131.7C254.635 129.778 256.037 128.104 257.759 126.806C259.481 125.509 261.477 124.623 263.594 124.217C265.711 123.81 267.893 123.893 269.973 124.459C272.053 125.026 273.976 126.061 275.594 127.485C276.608 125.464 278.103 123.721 279.947 122.412C281.791 121.102 283.928 120.265 286.171 119.973C288.414 119.682 290.694 119.945 292.812 120.74C294.929 121.535 296.82 122.838 298.317 124.533C300.875 127.436 302.203 131.38 305.205 133.824C307.796 135.931 311.322 136.637 313.929 138.744C315.376 139.905 316.475 141.442 317.104 143.187C317.734 144.932 317.87 146.816 317.498 148.634C317.126 150.451 316.26 152.13 314.995 153.487C313.73 154.844 312.116 155.826 310.33 156.325C313.2 161.491 310.51 168.895 305 171.027L303.671 170.478C301.188 167.645 299.602 164.137 299.116 160.401C298.63 156.665 299.265 152.869 300.941 149.494C300.779 149.502 300.618 149.502 300.457 149.494C298.158 150.772 295.467 151.155 292.903 150.569C290.339 149.984 288.082 148.47 286.566 146.321C284.715 147.611 282.535 148.347 280.28 148.441C278.026 148.536 275.792 147.985 273.84 146.854C273.27 146.429 272.616 146.132 271.921 145.985C271.072 145.996 270.243 146.243 269.526 146.698C267.551 147.769 265.301 148.223 263.065 148.002C262.03 147.876 261.043 147.493 260.195 146.887C259.347 146.281 258.664 145.472 258.21 144.533C258.158 144.537 258.106 144.537 258.055 144.533C256.776 144.242 255.601 143.606 254.658 142.693C253.716 141.781 253.041 140.628 252.708 139.359C252.063 136.777 252.402 134.046 253.659 131.7Z" fill="#263238"/>
</svg>
