<svg width="46" height="36" viewBox="0 0 46 36" fill="none" xmlns="http://www.w3.org/2000/svg">
<g clip-path="url(#clip0_271_371)">
<path d="M45.0935 35.5118V35.6044H45.1793C45.1954 35.6046 45.2113 35.6006 45.2253 35.5926C45.2309 35.5886 45.2354 35.5833 45.2384 35.5771C45.2414 35.5709 45.2429 35.5641 45.2426 35.5572C45.2429 35.5504 45.2414 35.5437 45.2384 35.5377C45.2354 35.5316 45.2309 35.5265 45.2253 35.5227C45.2115 35.5143 45.1955 35.5102 45.1793 35.5109H45.0935V35.5118ZM45.1802 35.4463C45.217 35.4441 45.2534 35.4547 45.2833 35.4764C45.2952 35.4863 45.3047 35.4988 45.311 35.5131C45.3173 35.5273 45.3202 35.5428 45.3194 35.5583C45.3199 35.5717 45.3176 35.585 45.3126 35.5975C45.3076 35.6099 45.3001 35.6211 45.2904 35.6303C45.2674 35.6504 45.2385 35.6625 45.2081 35.6648L45.3231 35.7966H45.2345L45.1287 35.6657H45.0944V35.7966H45.0204V35.4466H45.1814L45.1802 35.4463ZM45.1572 35.9174C45.1961 35.9178 45.2346 35.9099 45.2702 35.8943C45.3045 35.8794 45.3357 35.8581 45.3622 35.8316C45.3887 35.805 45.4098 35.7736 45.4245 35.739C45.4547 35.6657 45.4547 35.5833 45.4245 35.51C45.4096 35.4755 45.3885 35.4441 45.3622 35.4174C45.3357 35.3909 45.3045 35.3696 45.2702 35.3547C45.2343 35.34 45.1959 35.3326 45.1572 35.333C45.1179 35.3326 45.0788 35.34 45.0422 35.3547C45.0071 35.3693 44.9752 35.3906 44.9482 35.4174C44.9075 35.4594 44.88 35.5125 44.869 35.5701C44.8581 35.6277 44.8643 35.6872 44.8868 35.7413C44.9008 35.7761 44.9217 35.8075 44.9482 35.8339C44.9752 35.8607 45.0072 35.882 45.0422 35.8966C45.0786 35.9122 45.1177 35.9201 45.1572 35.9197M45.1572 35.2488C45.2583 35.2487 45.3554 35.2885 45.4275 35.3598C45.4622 35.394 45.4899 35.4349 45.5089 35.4799C45.5286 35.5261 45.5387 35.5759 45.5387 35.6262C45.5387 35.6765 45.5286 35.7263 45.5089 35.7726C45.4895 35.8174 45.4619 35.8581 45.4275 35.8926C45.3922 35.9267 45.3512 35.9541 45.3063 35.9736C45.2592 35.9938 45.2084 36.004 45.1572 36.0037C45.1054 36.0041 45.0541 35.9938 45.0064 35.9736C44.961 35.9546 44.9195 35.9271 44.8842 35.8926C44.8499 35.8568 44.8226 35.8147 44.804 35.7686C44.7843 35.7224 44.7742 35.6726 44.7742 35.6223C44.7742 35.572 44.7843 35.5222 44.804 35.476C44.8229 35.4309 44.8506 35.3901 44.8854 35.3559C44.9202 35.3208 44.9618 35.2933 45.0075 35.2749C45.0553 35.2547 45.1066 35.2445 45.1584 35.2448M9.93964 33.8969C9.93964 33.2294 10.3743 32.6811 11.0848 32.6811C11.7638 32.6811 12.2219 33.2058 12.2219 33.8969C12.2219 34.588 11.7638 35.1127 11.0848 35.1127C10.3743 35.1127 9.93964 34.5644 9.93964 33.8969ZM12.9959 33.8969V31.9974H12.175V32.4602C11.9146 32.1182 11.5197 31.9037 10.9827 31.9037C9.92469 31.9037 9.09439 32.7385 9.09439 33.8978C9.09439 35.0572 9.92423 35.892 10.9827 35.892C11.5195 35.892 11.9146 35.6772 12.175 35.3355V35.7966H12.995V33.8969H12.9959ZM40.732 33.8969C40.732 33.2294 41.1667 32.6811 41.8774 32.6811C42.5571 32.6811 43.0146 33.2058 43.0146 33.8969C43.0146 34.588 42.5571 35.1127 41.8774 35.1127C41.167 35.1127 40.732 34.5644 40.732 33.8969ZM43.7892 33.8969V30.4727H42.9676V32.4602C42.7073 32.1182 42.3124 31.9037 41.7753 31.9037C40.7173 31.9037 39.887 32.7385 39.887 33.8978C39.887 35.0572 40.7169 35.892 41.7753 35.892C42.3124 35.892 42.7073 35.6772 42.9676 35.3355V35.7966H43.7892V33.8969ZM23.184 32.642C23.713 32.642 24.0527 32.9756 24.1394 33.5631H22.1807C22.2683 33.0147 22.5993 32.642 23.1842 32.642M23.2005 31.9016C22.0942 31.9016 21.3203 32.7114 21.3203 33.8958C21.3203 35.1032 22.1253 35.8899 23.2555 35.8899C23.824 35.8899 24.3448 35.7471 24.8029 35.3577L24.4007 34.7458C24.0842 35.0003 23.6812 35.143 23.3024 35.143C22.7734 35.143 22.2918 34.8966 22.1733 34.213H24.9763C24.9844 34.1102 24.9927 34.0066 24.9927 33.8955C24.9844 32.7116 24.2567 31.9014 23.2001 31.9014M33.1108 33.8955C33.1108 33.228 33.5455 32.6797 34.2559 32.6797C34.9349 32.6797 35.393 33.2044 35.393 33.8955C35.393 34.5866 34.9349 35.1113 34.2559 35.1113C33.5455 35.1113 33.1105 34.563 33.1105 33.8955M36.1668 33.8955V31.9974H35.3464V32.4602C35.0851 32.1182 34.6911 31.9037 34.154 31.9037C33.096 31.9037 32.2657 32.7385 32.2657 33.8978C32.2657 35.0572 33.0956 35.892 34.154 35.892C34.6911 35.892 35.0851 35.6772 35.3464 35.3355V35.7966H36.167V33.8969L36.1668 33.8955ZM28.4751 33.8955C28.4751 35.0475 29.2723 35.8896 30.489 35.8896C31.0575 35.8896 31.4364 35.7624 31.846 35.4369L31.4518 34.7694C31.1436 34.9922 30.82 35.1113 30.4628 35.1113C29.8075 35.1032 29.3256 34.6266 29.3256 33.8955C29.3256 33.1644 29.8075 32.688 30.4628 32.6797C30.819 32.6797 31.1426 32.7989 31.4518 33.0217L31.846 32.3542C31.4357 32.0287 31.0569 31.9014 30.489 31.9014C29.2723 31.9014 28.4751 32.7433 28.4751 33.8955ZM39.0574 31.9014C38.5838 31.9014 38.2754 32.1242 38.0622 32.4578V31.9974H37.2487V35.7945H38.0705V33.666C38.0705 33.0376 38.3389 32.6885 38.8755 32.6885C39.0512 32.686 39.2257 32.7184 39.3888 32.7841L39.6418 32.0058C39.4601 31.9338 39.2232 31.9021 39.0569 31.9021M17.0542 32.2994C16.6593 32.0375 16.1151 31.9021 15.5148 31.9021C14.5585 31.9021 13.9428 32.3632 13.9428 33.1177C13.9428 33.7368 14.4012 34.1188 15.2453 34.2379L15.6331 34.2935C16.0832 34.3571 16.2957 34.4762 16.2957 34.6907C16.2957 34.9843 15.9967 35.1518 15.4353 35.1518C14.8667 35.1518 14.4564 34.969 14.1797 34.7546L13.794 35.3985C14.2441 35.7321 14.8126 35.8913 15.4284 35.8913C16.5186 35.8913 17.1504 35.3749 17.1504 34.6518C17.1504 33.9844 16.6531 33.6352 15.8315 33.5161L15.4447 33.4596C15.0893 33.4134 14.8046 33.3414 14.8046 33.0869C14.8046 32.8093 15.073 32.6422 15.5233 32.6422C16.0052 32.6422 16.4716 32.825 16.7003 32.9678L17.0556 32.3003L17.0542 32.2994ZM27.646 31.9028C27.1724 31.9028 26.864 32.1256 26.6517 32.4592V31.9974H25.8382V35.7945H26.659V33.666C26.659 33.0376 26.9274 32.6885 27.464 32.6885C27.6397 32.686 27.8142 32.7184 27.9774 32.7841L28.2304 32.0058C28.0487 31.9338 27.8118 31.9021 27.6455 31.9021M20.6411 31.9974H19.2988V30.8455H18.469V31.9974H17.7033V32.7521H18.469V34.4843C18.469 35.3654 18.8089 35.8901 19.78 35.8901C20.1362 35.8901 20.5465 35.779 20.8069 35.5965L20.5698 34.8895C20.3248 35.0322 20.0564 35.1042 19.843 35.1042C19.4327 35.1042 19.2988 34.8497 19.2988 34.4686V32.7528H20.6411V31.9974ZM8.36851 35.7955V33.4124C8.36851 32.515 7.79995 31.9111 6.8834 31.903C6.40155 31.8949 5.90452 32.0458 5.55653 32.5786C5.29617 32.1575 4.88585 31.903 4.30901 31.903C3.90582 31.903 3.51183 32.0222 3.2034 32.4669V31.9974H2.38184V35.7945H3.20984V33.6891C3.20984 33.03 3.57324 32.6797 4.13444 32.6797C4.67954 32.6797 4.95531 33.0372 4.95531 33.6808V35.7941H5.78515V33.6887C5.78515 33.0295 6.16396 32.6793 6.70883 32.6793C7.26934 32.6793 7.53683 33.0367 7.53683 33.6804V35.7936L8.36851 35.7955Z" fill="#231F20"/>
<path d="M45.5614 23.1645V22.6092H45.4176L45.2513 22.9902L45.0859 22.6092H44.9417V23.1645H45.0439V22.7462L45.1993 23.1071H45.3051L45.4606 22.7452V23.1645H45.5618H45.5614ZM44.6494 23.1645V22.7043H44.8334V22.6106H44.3633V22.7043H44.5473V23.1645H44.6485H44.6494Z" fill="#F79410"/>
<path d="M29.223 25.5459H16.7832V3.05743H29.2232L29.223 25.5459Z" fill="#FF5F00"/>
<path d="M17.572 14.302C17.572 9.74019 19.6954 5.67654 23.0018 3.05775C20.499 1.07254 17.4034 -0.00490491 14.2161 -0.00016755C6.36456 -0.00016755 0 6.40302 0 14.302C0 22.2009 6.36456 28.6041 14.2161 28.6041C17.4035 28.6089 20.4992 27.5314 23.0021 25.5462C19.6958 22.9279 17.572 18.864 17.572 14.302Z" fill="#EB001B"/>
<path d="M46.0062 14.3021C46.0062 22.2011 39.6416 28.6043 31.7901 28.6043C28.6024 28.609 25.5063 27.5316 23.0029 25.5464C26.3103 22.9276 28.4337 18.8642 28.4337 14.3021C28.4337 9.74014 26.3103 5.67672 23.0029 3.05793C25.5062 1.07278 28.6022 -0.00463877 31.7899 1.5013e-05C39.6414 1.5013e-05 46.0059 6.4032 46.0059 14.3021" fill="#F79E1B"/>
</g>
<defs>
<clipPath id="clip0_271_371">
<rect width="46" height="36" fill="white"/>
</clipPath>
</defs>
</svg>
