<svg width="67" height="43" viewBox="0 0 67 43" fill="none" xmlns="http://www.w3.org/2000/svg">
<path d="M25.1852 29.9908L28.0507 13.1554H32.634L29.7664 29.9908H25.1852ZM46.3254 13.5183C45.4176 13.1772 43.9946 12.8112 42.2177 12.8112C37.6887 12.8112 34.4987 15.0946 34.4714 18.3672C34.4459 20.7863 36.749 22.1359 38.4875 22.9411C40.2716 23.7665 40.8713 24.2926 40.8627 25.0294C40.8513 26.158 39.438 26.6733 38.1205 26.6733C36.2862 26.6733 35.3116 26.4181 33.8063 25.7898L33.2155 25.5223L32.5724 29.291C33.6429 29.7611 35.6224 30.1681 37.678 30.1892C42.4959 30.1892 45.6236 27.9319 45.6592 24.4371C45.6763 22.5219 44.4553 21.0646 41.8109 19.863C40.2089 19.0841 39.2278 18.5644 39.2382 17.7758C39.2382 17.076 40.0687 16.3278 41.8632 16.3278C43.3618 16.3045 44.4477 16.6317 45.2936 16.9728L45.7043 17.167L46.3254 13.5183ZM58.12 13.1551H54.5785C53.4814 13.1551 52.6602 13.4549 52.1785 14.5513L45.3715 29.9797H50.1845C50.1845 29.9797 50.9712 27.9053 51.1492 27.4497C51.6751 27.4497 56.3507 27.4569 57.0191 27.4569C57.1561 28.0464 57.5767 29.9797 57.5767 29.9797H61.8297L58.12 13.1546V13.1551ZM52.5009 24.0264C52.88 23.0564 54.327 19.3201 54.327 19.3201C54.3001 19.3649 54.7033 18.3454 54.9347 17.7133L55.2444 19.1648C55.2444 19.1648 56.122 23.1835 56.3055 24.0261H52.5009V24.0264ZM21.2943 13.1551L16.8071 24.6361L16.3291 22.303C15.4937 19.6135 12.891 16.6995 9.98145 15.2407L14.0845 29.9639L18.9338 29.9585L26.1496 13.155L21.2943 13.1549" fill="#0E4595"/>
<path d="M12.6202 13.1545H5.22948L5.1709 13.5048C10.9208 14.8984 14.7253 18.266 16.3049 22.3129L14.6979 14.5764C14.4205 13.5103 13.6158 13.1921 12.6204 13.155" fill="#F2AE14"/>
</svg>
