<svg width="838" height="145" viewBox="0 0 838 145" fill="none" xmlns="http://www.w3.org/2000/svg">
<path d="M68.898 55.912C64.1393 64.544 57.776 71.7927 49.808 77.658C41.84 83.4127 32.876 87.7287 22.916 90.606V91.934C22.916 95.4753 23.58 98.9613 24.908 102.392C26.3467 105.712 28.56 107.87 31.548 108.866C33.6507 109.309 36.196 109.143 39.184 108.368C42.172 107.483 45.326 105.989 48.646 103.886C51.966 101.673 55.3967 98.8507 58.938 95.42C62.4793 91.8787 65.91 87.6733 69.23 82.804C71.0007 80.2587 72.6053 77.7687 74.044 75.334C75.4827 72.8993 76.8107 70.5753 78.028 68.362C78.692 67.4767 79.5773 66.9233 80.684 66.702C81.7907 66.4807 82.7867 66.536 83.672 66.868C84.668 67.0893 85.332 67.5873 85.664 68.362C86.1067 69.1367 85.996 70.0773 85.332 71.184L82.178 76.33C79.522 80.646 76.2573 85.5153 72.384 90.938C68.5107 96.25 63.8073 101.507 58.274 106.708C55.1753 109.364 52.0767 111.411 48.978 112.85C45.8793 114.289 42.8913 115.395 40.014 116.17C37.2473 116.834 34.702 117.221 32.378 117.332C30.054 117.443 28.228 117.498 26.9 117.498C18.7107 117.498 12.3473 115.506 7.81 111.522C3.27267 107.538 0.838 102.115 0.506 95.254C0.284667 88.946 1.44667 82.7487 3.992 76.662C6.53733 70.4647 10.632 63.6033 16.276 56.078C18.0467 53.754 20.426 51.2087 23.414 48.442C26.5127 45.6753 29.9433 43.1853 33.706 40.972C37.5793 38.648 41.674 36.7667 45.99 35.328C50.306 33.8893 54.622 33.2253 58.938 33.336C63.1433 33.4467 66.5187 34.5533 69.064 36.656C71.6093 38.7587 72.882 41.5253 72.882 44.956C72.882 48.1653 71.554 51.8173 68.898 55.912ZM58.938 41.802C54.622 42.6873 50.472 44.79 46.488 48.11C42.6147 51.3193 39.1287 55.082 36.03 59.398C33.042 63.714 30.4413 68.196 28.228 72.844C26.1253 77.492 24.6313 81.5867 23.746 85.128C31.714 82.3613 38.9073 78.2667 45.326 72.844C51.8553 67.3107 57.2227 60.56 61.428 52.592C62.3133 50.6 62.756 48.608 62.756 46.616C62.756 44.956 62.424 43.6833 61.76 42.798C61.2067 41.9127 60.266 41.5807 58.938 41.802ZM114.497 78.986V66.038H154.669V78.986H114.497ZM262.514 10.888C262.94 10.2907 264.007 10.2053 265.714 10.632C267.42 11.0587 269.127 11.8693 270.834 13.064C272.626 14.1733 274.119 15.5387 275.314 17.16C276.508 18.7813 276.807 20.4027 276.21 22.024C272.455 26.5467 268.743 31.5387 265.074 37C261.49 42.4613 257.948 48.136 254.45 54.024C251.036 59.912 247.751 65.9707 244.594 72.2C241.522 78.344 238.663 84.4027 236.018 90.376H236.53C236.956 90.376 237.383 90.376 237.81 90.376C238.322 90.376 238.834 90.3333 239.346 90.248C239.943 89.992 240.668 89.9493 241.522 90.12C245.874 89.608 250.396 88.4987 255.09 86.792C259.783 85.0853 264.391 82.8667 268.914 80.136C273.436 77.4053 277.703 74.2907 281.714 70.792C285.81 67.208 289.394 63.3253 292.466 59.144C295.538 54.8773 298.012 50.3973 299.89 45.704C301.852 41.0107 302.962 36.1893 303.218 31.24C303.218 28.8507 302.791 26.2053 301.938 23.304C301.084 20.4027 299.463 17.7147 297.074 15.24C294.684 12.7653 291.399 10.7173 287.218 9.09599C283.036 7.38933 277.618 6.49333 270.962 6.408C265.244 6.74933 259.442 8.49866 253.554 11.656C247.751 14.8133 242.119 18.824 236.658 23.688C231.196 28.552 226.076 33.9707 221.298 39.944C216.519 45.832 212.38 51.72 208.882 57.608C205.468 63.496 202.78 69.0853 200.818 74.376C198.94 79.5813 198.13 83.8907 198.386 87.304C198.471 88.7547 197.831 89.3947 196.466 89.224C195.1 89.0533 193.564 88.3707 191.858 87.176C190.151 85.896 188.572 84.232 187.122 82.184C185.756 80.0507 185.074 77.7893 185.074 75.4C185.074 74.9733 185.116 74.4613 185.202 73.864C185.287 73.1813 185.458 72.4987 185.714 71.816H185.586C187.975 63.1973 191.815 54.792 197.106 46.6C202.396 38.3227 208.754 30.9413 216.178 24.456C223.602 17.8853 231.922 12.552 241.138 8.45599C250.439 4.27466 260.21 1.928 270.45 1.41599H270.322C272.114 1.16 273.863 0.989329 275.57 0.903992C277.276 0.818659 278.983 0.775993 280.69 0.775993C287.687 0.775993 293.618 1.67199 298.482 3.464C303.431 5.25599 307.442 7.60266 310.514 10.504C313.586 13.32 315.804 16.5627 317.17 20.232C318.62 23.9013 319.346 27.656 319.346 31.496C319.346 37.4693 318.236 43.1013 316.018 48.392C313.799 53.6827 310.812 58.5893 307.058 63.112C303.303 67.6347 298.951 71.7307 294.002 75.4C289.052 79.0693 283.847 82.2693 278.386 85C273.01 87.6453 267.548 89.8213 262.002 91.528C256.455 93.2347 251.164 94.344 246.13 94.856C247.495 96.9893 249.116 99.4213 250.994 102.152C252.871 104.797 254.962 107.528 257.266 110.344C259.655 113.16 262.215 115.933 264.946 118.664C267.762 121.395 270.748 123.784 273.906 125.832C277.063 127.965 280.391 129.672 283.89 130.952C287.388 132.232 291.058 132.872 294.898 132.872C297.116 132.872 299.506 132.616 302.066 132.104C302.663 132.104 302.834 132.701 302.578 133.896C302.407 135.176 301.938 136.584 301.17 138.12C300.402 139.741 299.42 141.235 298.226 142.6C297.031 143.965 295.794 144.733 294.514 144.904C289.65 144.648 285.17 143.752 281.074 142.216C277.063 140.68 273.351 138.675 269.938 136.2C266.524 133.811 263.367 131.037 260.466 127.88C257.65 124.723 255.047 121.395 252.658 117.896C250.268 114.483 248.007 110.984 245.874 107.4C243.826 103.816 241.906 100.317 240.114 96.904L239.218 95.368C238.791 95.368 238.407 95.368 238.066 95.368C237.81 95.2827 237.511 95.24 237.17 95.24C236.572 95.24 236.018 95.24 235.506 95.24C234.994 95.24 234.482 95.1973 233.97 95.112C230.727 102.877 227.996 110.173 225.778 117C223.644 123.827 222.236 129.8 221.554 134.92C221.383 135.432 220.786 135.304 219.762 134.536C218.738 133.853 217.628 132.915 216.434 131.72C215.239 130.525 214.13 129.245 213.106 127.88C212.082 126.515 211.57 125.491 211.57 124.808C211.826 120.456 212.722 115.421 214.258 109.704C215.879 103.901 217.927 97.7573 220.402 91.272C216.732 89.3947 213.788 87.048 211.57 84.232C209.436 81.416 208.114 78.3867 207.602 75.144C207.687 74.4613 208.242 73.6933 209.266 72.84C210.29 71.9867 211.74 71.1333 213.618 70.28C214.727 74.376 216.007 77.704 217.458 80.264C218.994 82.824 220.658 84.8293 222.45 86.28C225.18 79.5387 228.21 72.6693 231.538 65.672C234.951 58.5893 238.45 51.72 242.034 45.064C245.618 38.408 249.159 32.136 252.658 26.248C256.156 20.36 259.442 15.24 262.514 10.888ZM358.313 69.896C354.643 76.552 349.737 82.1413 343.593 86.664C337.449 91.1013 330.537 94.4293 322.857 96.648V97.672C322.857 100.403 323.369 103.091 324.393 105.736C325.502 108.296 327.209 109.96 329.513 110.728C331.134 111.069 333.097 110.941 335.401 110.344C337.705 109.661 340.137 108.509 342.697 106.888C345.257 105.181 347.902 103.005 350.633 100.36C353.363 97.6293 356.009 94.3867 358.569 90.632C359.934 88.6693 361.171 86.7493 362.281 84.872C363.39 82.9947 364.414 81.2027 365.353 79.496C365.865 78.8133 366.547 78.3867 367.401 78.216C368.254 78.0453 369.022 78.088 369.705 78.344C370.473 78.5147 370.985 78.8987 371.241 79.496C371.582 80.0933 371.497 80.8187 370.985 81.672L368.553 85.64C366.505 88.968 363.987 92.7227 361.001 96.904C358.014 101 354.387 105.053 350.121 109.064C347.731 111.112 345.342 112.691 342.953 113.8C340.563 114.909 338.259 115.763 336.041 116.36C333.907 116.872 331.945 117.171 330.153 117.256C328.361 117.341 326.953 117.384 325.929 117.384C319.614 117.384 314.707 115.848 311.209 112.776C307.71 109.704 305.833 105.523 305.577 100.232C305.406 95.368 306.302 90.5893 308.265 85.896C310.227 81.1173 313.385 75.8267 317.737 70.024C319.102 68.232 320.937 66.2693 323.241 64.136C325.63 62.0027 328.275 60.0827 331.177 58.376C334.163 56.584 337.321 55.1333 340.649 54.024C343.977 52.9147 347.305 52.4027 350.633 52.488C353.875 52.5733 356.478 53.4267 358.441 55.048C360.403 56.6693 361.385 58.8027 361.385 61.448C361.385 63.9227 360.361 66.7387 358.313 69.896ZM350.633 59.016C347.305 59.6987 344.105 61.32 341.033 63.88C338.046 66.3547 335.358 69.256 332.969 72.584C330.665 75.912 328.659 79.368 326.953 82.952C325.331 86.536 324.179 89.6933 323.497 92.424C329.641 90.2907 335.187 87.1333 340.137 82.952C345.171 78.6853 349.31 73.48 352.553 67.336C353.235 65.8 353.577 64.264 353.577 62.728C353.577 61.448 353.321 60.4667 352.809 59.784C352.382 59.1013 351.657 58.8453 350.633 59.016ZM352.436 102.28C352.436 99.5493 353.161 96.8613 354.612 94.216C356.062 91.4853 357.897 89.2667 360.116 87.56C360.628 86.7067 361.182 85.8533 361.78 85C362.462 84.0613 363.017 83.1653 363.444 82.312C365.662 78.728 367.924 75.1867 370.228 71.688C372.617 68.104 375.177 64.52 377.908 60.936C378.42 60.2533 378.889 59.6133 379.316 59.016C379.742 58.4187 380.169 57.7787 380.596 57.096C381.961 55.1333 383.54 53.0427 385.332 50.824C387.124 48.6053 389.726 46.0027 393.14 43.016C394.164 43.4427 395.444 44.0827 396.98 44.936C398.516 45.7893 399.881 46.728 401.076 47.752C402.356 48.6907 403.294 49.672 403.892 50.696C404.489 51.6347 404.361 52.4027 403.508 53H403.636C402.441 54.1093 401.502 55.0907 400.82 55.944C400.222 56.7973 399.454 57.9067 398.516 59.272L396.98 61.576C395.188 64.392 393.95 67.4213 393.268 70.664C392.67 73.9067 392.372 77.192 392.372 80.52C392.372 82.2267 392.414 83.9333 392.5 85.64C392.585 87.3467 392.713 89.0533 392.884 90.76L393.268 97.672C393.353 100.744 392.884 103.603 391.86 106.248C390.836 108.808 389.342 110.984 387.38 112.776C385.417 114.568 383.07 115.933 380.34 116.872C377.609 117.725 374.665 118.067 371.508 117.896C364.937 117.384 360.116 115.635 357.044 112.648C353.972 109.576 352.436 106.12 352.436 102.28ZM377.268 80.648C377.268 79.112 377.353 77.576 377.524 76.04C377.694 74.4187 377.993 72.7547 378.42 71.048C377.225 72.7547 376.03 74.5467 374.836 76.424C373.641 78.3013 372.489 80.136 371.38 81.928L369.332 85.128C370.782 85.384 372.148 85.8107 373.428 86.408C373.684 86.664 374.025 87.304 374.452 88.328C374.878 89.352 375.262 90.4613 375.604 91.656C376.03 92.8507 376.286 94.0027 376.372 95.112C376.542 96.136 376.414 96.8613 375.988 97.288C373.94 95.5813 372.148 94.728 370.612 94.728C369.502 94.728 368.35 94.9413 367.156 95.368C366.046 95.7947 365.022 96.392 364.084 97.16C363.23 97.8427 362.505 98.696 361.908 99.72C361.396 100.744 361.14 101.896 361.14 103.176C361.14 103.944 361.225 104.712 361.396 105.48C361.652 106.248 361.95 106.931 362.292 107.528C363.316 109.235 364.553 110.515 366.004 111.368C367.454 112.136 368.777 112.563 369.972 112.648C371.508 112.819 372.83 112.563 373.94 111.88C375.049 111.197 375.945 110.301 376.628 109.192C377.31 107.997 377.822 106.632 378.164 105.096C378.505 103.475 378.676 101.811 378.676 100.104C378.676 98.6533 378.59 97.16 378.42 95.624C378.334 94.088 378.206 92.552 378.036 91.016C377.865 89.3947 377.694 87.688 377.524 85.896C377.353 84.104 377.268 82.3547 377.268 80.648ZM411.189 53.128C410.421 53.384 409.738 53.4267 409.141 53.256C408.543 53.0853 408.074 52.8293 407.733 52.488C407.391 52.0613 407.263 51.6347 407.349 51.208C407.434 50.696 407.775 50.2267 408.373 49.8C414.431 45.8747 420.618 42.632 426.933 40.072C431.626 30.0027 434.954 21.3413 436.917 14.088C437.941 13.576 439.349 13.5333 441.141 13.96C442.933 14.3867 444.639 15.112 446.261 16.136C447.882 17.16 449.205 18.3973 450.229 19.848C451.253 21.2987 451.509 22.7493 450.997 24.2C450.655 25.0533 450.101 26.376 449.333 28.168C448.565 29.8747 447.626 31.8373 446.517 34.056C452.917 32.776 459.359 32.136 465.845 32.136C466.698 32.136 467.722 32.1787 468.917 32.264C470.197 32.264 471.263 32.3067 472.117 32.392C472.373 33.0747 472.373 33.8427 472.117 34.696C471.861 35.5493 471.434 36.36 470.837 37.128C470.325 37.8107 469.685 38.408 468.917 38.92C468.149 39.3467 467.381 39.4747 466.613 39.304C465.589 39.2187 464.607 39.176 463.669 39.176C462.73 39.0907 461.791 39.048 460.853 39.048C457.866 39.048 454.879 39.2187 451.893 39.56C448.991 39.9013 446.047 40.4133 443.061 41.096L437.045 52.872L436.277 54.408C435.509 55.8587 434.442 57.9067 433.077 60.552C431.797 63.112 430.389 66.0133 428.853 69.256C427.317 72.4133 425.738 75.7413 424.117 79.24C422.581 82.7387 421.173 86.152 419.893 89.48C418.613 92.7227 417.546 95.752 416.693 98.568C415.925 101.384 415.541 103.688 415.541 105.48C415.541 107.357 415.754 108.509 416.181 108.936H417.205C419.509 108.083 421.727 106.76 423.861 104.968C425.994 103.091 427.999 101 429.877 98.696C431.839 96.3067 433.674 93.7893 435.381 91.144C437.173 88.4987 438.794 85.9387 440.245 83.464H440.117C440.543 82.7813 440.97 82.1413 441.397 81.544C441.823 80.8613 442.25 80.1787 442.677 79.496C442.933 79.0693 443.402 78.856 444.085 78.856C444.853 78.7707 445.578 78.856 446.261 79.112C446.943 79.368 447.498 79.7093 447.925 80.136C448.351 80.5627 448.437 81.0747 448.181 81.672L444.981 86.92C443.701 88.968 442.335 91.1013 440.885 93.32C439.519 95.5387 438.026 97.7573 436.405 99.976C434.783 102.109 433.077 104.2 431.285 106.248C429.493 108.211 427.615 110.003 425.653 111.624C425.055 112.136 424.287 112.733 423.349 113.416C422.41 114.099 421.301 114.739 420.021 115.336C418.826 115.848 417.461 116.317 415.925 116.744C414.389 117.085 412.767 117.256 411.061 117.256C407.562 117.085 405.002 115.891 403.381 113.672C401.845 111.453 401.077 108.723 401.077 105.48C401.077 104.797 401.119 103.987 401.205 103.048C401.29 102.109 401.418 101.256 401.589 100.488C402.186 96.648 403.082 92.808 404.277 88.968C405.557 85.128 406.965 81.3307 408.501 77.576C410.122 73.736 411.871 69.9387 413.749 66.184C415.626 62.4293 417.546 58.6747 419.509 54.92L423.221 47.496C421.258 48.3493 419.295 49.2453 417.333 50.184C415.37 51.0373 413.407 52.0187 411.445 53.128H411.189ZM494.844 70.024C494.844 70.6213 494.46 71.0907 493.692 71.432C493.009 71.7733 492.241 71.9867 491.388 72.072C490.534 72.072 489.766 71.9013 489.084 71.56C488.401 71.2187 488.06 70.7067 488.06 70.024C488.06 69.6827 488.017 69.384 487.932 69.128C487.846 68.7867 487.804 68.4453 487.804 68.104C487.718 67.1653 487.59 66.1413 487.42 65.032C487.249 63.8373 486.95 62.7707 486.524 61.832C486.097 60.808 485.457 59.9547 484.604 59.272C483.836 58.5893 482.812 58.2053 481.532 58.12C479.313 58.0347 477.137 58.5467 475.004 59.656C472.956 60.68 470.95 62.088 468.988 63.88C467.025 65.672 465.19 67.72 463.484 70.024C461.777 72.328 460.198 74.76 458.748 77.32C457.382 79.7947 456.188 82.312 455.164 84.872C454.14 87.3467 453.329 89.6507 452.732 91.784C452.476 92.808 452.22 94.0027 451.964 95.368C451.708 96.7333 451.58 98.0987 451.58 99.464C451.58 100.659 451.665 101.811 451.836 102.92C452.092 103.944 452.518 104.84 453.116 105.608C453.713 106.376 454.481 106.931 455.42 107.272C456.358 107.528 457.596 107.485 459.132 107.144C460.326 106.888 461.82 105.992 463.612 104.456C465.404 102.835 467.238 100.957 469.116 98.824C470.993 96.6907 472.785 94.472 474.492 92.168C476.284 89.864 477.734 87.816 478.844 86.024C479.782 83.5493 480.593 81.1173 481.276 78.728C481.958 76.3387 482.385 74.1627 482.556 72.2H483.452C484.476 71.688 485.798 71.7307 487.42 72.328C489.126 72.84 490.705 73.6507 492.156 74.76C493.692 75.8693 494.929 77.192 495.868 78.728C496.806 80.1787 497.062 81.6293 496.636 83.08C496.465 83.592 496.209 84.1893 495.868 84.872C495.612 85.4693 495.356 86.1093 495.1 86.792C494.417 88.328 493.734 89.9493 493.052 91.656C492.369 93.3627 491.729 95.0693 491.132 96.776C490.62 98.4827 490.15 100.147 489.724 101.768C489.382 103.304 489.212 104.669 489.212 105.864C489.212 107.656 489.34 108.68 489.596 108.936H490.748C493.052 108.168 495.27 106.845 497.404 104.968C499.537 103.091 501.585 100.957 503.548 98.568C505.51 96.0933 507.345 93.4907 509.052 90.76C510.844 88.0293 512.508 85.4267 514.044 82.952C514.47 82.3547 514.812 81.8 515.068 81.288C515.409 80.6907 515.75 80.0933 516.092 79.496C516.348 79.0693 516.86 78.856 517.628 78.856C518.396 78.7707 519.121 78.856 519.804 79.112C520.572 79.368 521.169 79.7093 521.596 80.136C522.022 80.5627 522.065 81.0747 521.724 81.672C521.212 82.44 520.7 83.2507 520.188 84.104C519.761 84.872 519.292 85.6827 518.78 86.536C516.134 90.888 513.233 95.2827 510.076 99.72C506.918 104.072 503.249 108.04 499.068 111.624C498.47 112.136 497.702 112.733 496.764 113.416C495.825 114.099 494.758 114.739 493.564 115.336C492.369 115.933 491.004 116.445 489.468 116.872C488.017 117.213 486.396 117.341 484.604 117.256C480.422 116.915 477.393 115.635 475.516 113.416C473.638 111.197 472.7 108.552 472.7 105.48V103.688C471.078 105.395 469.372 107.016 467.58 108.552C465.873 110.088 464.081 111.453 462.204 112.648C460.412 113.843 458.577 114.824 456.7 115.592C454.822 116.275 452.945 116.616 451.068 116.616C447.996 116.36 445.393 115.635 443.26 114.44C441.212 113.245 439.59 111.88 438.396 110.344C437.201 108.723 436.348 107.016 435.836 105.224C435.324 103.347 435.068 101.555 435.068 99.848C435.068 99.1653 435.11 98.4827 435.196 97.8C435.196 97.1173 435.238 96.52 435.324 96.008C435.665 93.2773 436.476 90.2907 437.756 87.048C439.121 83.8053 440.785 80.5627 442.748 77.32C444.796 74.0773 447.142 70.9627 449.788 67.976C452.518 64.904 455.462 62.216 458.62 59.912C461.777 57.5227 465.062 55.6453 468.476 54.28C471.974 52.8293 475.558 52.104 479.228 52.104C481.532 52.104 483.708 52.36 485.756 52.872C487.633 53.384 489.169 54.2373 490.364 55.432C491.644 56.6267 492.625 58.0347 493.308 59.656C493.99 61.192 494.417 62.856 494.588 64.648C494.844 66.44 494.929 68.232 494.844 70.024ZM560.024 52.744C561.048 52.232 562.37 52.2747 563.992 52.872C565.698 53.384 567.32 54.1947 568.856 55.304C570.392 56.328 571.629 57.608 572.568 59.144C573.506 60.5947 573.72 62.0453 573.208 63.496C572.952 64.1787 572.525 65.1173 571.928 66.312C571.416 67.5067 570.776 68.9147 570.008 70.536C568.813 73.096 567.49 76.04 566.04 79.368C564.589 82.6107 563.224 85.8533 561.944 89.096C560.664 92.3387 559.554 95.4107 558.616 98.312C557.762 101.213 557.336 103.603 557.336 105.48C557.336 107.784 557.592 108.936 558.104 108.936H559.256C561.56 108.168 563.778 106.845 565.912 104.968C568.13 103.005 570.221 100.829 572.184 98.44C574.232 95.9653 576.109 93.3627 577.816 90.632C579.608 87.9013 581.229 85.2987 582.68 82.824L584.6 79.496C585.026 78.8133 585.666 78.3867 586.52 78.216C587.373 78.0453 588.141 78.088 588.824 78.344C589.592 78.5147 590.146 78.8987 590.488 79.496C590.829 80.0933 590.744 80.8187 590.232 81.672L587.16 86.536C584.514 90.8027 581.613 95.1547 578.456 99.592C575.384 104.029 571.8 108.04 567.704 111.624C567.106 112.136 566.338 112.733 565.4 113.416C564.461 114.099 563.352 114.739 562.072 115.336C560.877 115.848 559.512 116.317 557.976 116.744C556.44 117.085 554.818 117.256 553.112 117.256C549.698 117.085 547.138 115.891 545.432 113.672C543.81 111.453 543 108.723 543 105.48C543 104.029 543.128 102.579 543.384 101.128C541.848 103.091 540.269 104.968 538.648 106.76C537.026 108.552 535.32 110.173 533.528 111.624C532.93 112.136 532.162 112.733 531.224 113.416C530.285 114.099 529.176 114.739 527.896 115.336C526.701 115.848 525.336 116.317 523.8 116.744C522.264 117.085 520.642 117.256 518.936 117.256C515.608 117.085 513.09 115.933 511.384 113.8C509.762 111.581 508.952 108.851 508.952 105.608C508.952 103.816 509.122 102.109 509.464 100.488C509.805 98.952 510.274 97.16 510.872 95.112C511.469 92.9787 512.152 90.7173 512.92 88.328C513.773 85.9387 514.626 83.464 515.48 80.904C516.418 78.344 517.357 75.8267 518.296 73.352C519.576 69.768 520.813 66.2693 522.008 62.856C523.202 59.3573 524.226 55.9867 525.08 52.744H525.976C527 52.232 528.322 52.2747 529.944 52.872C531.65 53.384 533.229 54.1947 534.68 55.304C536.216 56.328 537.453 57.608 538.392 59.144C539.33 60.5947 539.544 62.0453 539.032 63.496L535.576 71.176C534.381 73.736 533.058 76.6373 531.608 79.88C530.242 83.0373 528.92 86.2373 527.64 89.48C526.445 92.6373 525.421 95.6667 524.568 98.568C523.714 101.384 523.288 103.688 523.288 105.48C523.288 107.784 523.544 108.936 524.056 108.936H525.08C527.384 108.083 529.602 106.76 531.736 104.968C533.869 103.091 535.874 101 537.752 98.696C539.714 96.3067 541.549 93.7893 543.256 91.144C545.048 88.4987 546.669 85.9387 548.12 83.464H547.992C548.162 83.0373 548.376 82.6533 548.632 82.312C548.973 81.9707 549.272 81.5867 549.528 81.16C549.954 79.9653 550.381 78.7707 550.808 77.576C551.234 76.3813 551.661 75.1867 552.088 73.992C553.453 70.3227 554.733 66.696 555.928 63.112C557.208 59.4427 558.274 55.9867 559.128 52.744H560.024ZM631.974 95.112C630.182 97.672 628.091 100.275 625.702 102.92C623.398 105.565 620.88 107.955 618.15 110.088C615.419 112.221 612.475 113.971 609.318 115.336C606.16 116.616 602.875 117.171 599.462 117C595.707 116.829 592.934 115.635 591.142 113.416C589.35 111.197 588.496 108.637 588.582 105.736C588.667 103.603 589.094 101.512 589.862 99.464C590.63 97.416 591.526 95.4107 592.55 93.448C593.659 91.4 594.896 89.4373 596.262 87.56C597.627 85.5973 598.992 83.6773 600.358 81.8C600.699 81.3733 601.083 80.8187 601.51 80.136C601.936 79.4533 602.363 78.8987 602.79 78.472L605.734 74.504C607.27 72.3707 608.678 70.536 609.958 69C611.238 67.3787 612.091 66.44 612.518 66.184C611.494 66.3547 610.555 66.5253 609.702 66.696C608.934 66.8667 608.166 67.08 607.398 67.336C606.459 67.592 605.478 67.8053 604.454 67.976C603.515 68.1467 602.235 68.1893 600.614 68.104H599.078C597.2 70.664 595.366 73.352 593.574 76.168C591.782 78.8987 590.118 81.544 588.582 84.104C588.24 84.5307 587.686 84.744 586.918 84.744C586.235 84.744 585.552 84.6587 584.87 84.488C584.187 84.232 583.632 83.8907 583.206 83.464C582.864 83.0373 582.907 82.5253 583.334 81.928C584.016 80.8187 584.742 79.624 585.51 78.344C586.278 77.064 587.003 75.8693 587.686 74.76C588.454 73.48 589.264 72.1573 590.118 70.792C591.056 69.3413 591.995 67.8907 592.934 66.44C591.654 65.5013 591.014 64.2213 591.014 62.6C591.014 61.6613 591.227 60.5947 591.654 59.4C592.08 58.12 592.592 56.84 593.19 55.56C593.872 54.28 594.598 53 595.366 51.72C596.134 50.3547 596.902 49.0747 597.67 47.88C598.352 46.856 598.95 45.7893 599.462 44.68C600.059 43.5707 600.571 42.4187 600.998 41.224C603.302 42.1627 605.478 43.3573 607.526 44.808C609.659 46.1733 610.726 47.88 610.726 49.928C610.726 50.8667 610.427 52.0613 609.83 53.512L604.07 61.832C603.728 62.344 603.942 62.5147 604.71 62.344C605.563 62.1733 606.758 61.832 608.294 61.32C609.83 60.7227 611.536 60.04 613.414 59.272C615.376 58.4187 617.211 57.5653 618.918 56.712C620.71 55.8587 622.288 55.048 623.654 54.28C625.104 53.4267 626.043 52.744 626.47 52.232C626.982 52.232 627.622 52.4027 628.39 52.744C629.158 53.0853 629.926 53.4693 630.694 53.896C631.462 54.3227 632.144 54.7493 632.742 55.176C633.339 55.6027 633.68 55.8587 633.766 55.944C634.448 56.8827 634.576 58.12 634.15 59.656C633.723 61.192 632.912 62.9413 631.718 64.904C630.523 66.7813 629.03 68.872 627.238 71.176C625.531 73.3947 623.739 75.6987 621.862 78.088C620.752 79.5387 619.643 80.9893 618.534 82.44C617.424 83.8053 616.315 85.2133 615.206 86.664C614.352 87.688 613.414 88.9253 612.39 90.376C611.366 91.8267 610.384 93.3627 609.446 94.984C608.507 96.52 607.696 98.056 607.014 99.592C606.416 101.128 606.118 102.536 606.118 103.816C606.118 105.949 606.928 107.059 608.55 107.144C609.488 107.144 610.683 106.803 612.134 106.12C613.584 105.352 615.12 104.328 616.742 103.048C618.363 101.683 620.027 100.147 621.734 98.44C623.44 96.648 625.019 94.728 626.47 92.68C628.006 90.376 629.499 88.0293 630.95 85.64C632.486 83.1653 633.723 81.1173 634.662 79.496C635.003 79.0693 635.515 78.856 636.198 78.856C636.966 78.7707 637.691 78.856 638.374 79.112C639.056 79.368 639.611 79.7093 640.038 80.136C640.464 80.5627 640.507 81.0747 640.166 81.672C639.568 82.6107 638.971 83.592 638.374 84.616C637.862 85.5547 637.307 86.4933 636.71 87.432C635.942 88.7973 635.174 90.12 634.406 91.4C633.638 92.68 632.827 93.9173 631.974 95.112ZM686.969 70.024C686.969 70.6213 686.585 71.0907 685.817 71.432C685.134 71.7733 684.366 71.9867 683.513 72.072C682.659 72.072 681.891 71.9013 681.209 71.56C680.526 71.2187 680.185 70.7067 680.185 70.024C680.185 69.6827 680.142 69.384 680.057 69.128C679.971 68.7867 679.929 68.4453 679.929 68.104C679.843 67.1653 679.715 66.1413 679.545 65.032C679.374 63.8373 679.075 62.7707 678.649 61.832C678.222 60.808 677.582 59.9547 676.729 59.272C675.961 58.5893 674.937 58.2053 673.657 58.12C671.438 58.0347 669.262 58.5467 667.129 59.656C665.081 60.68 663.075 62.088 661.113 63.88C659.15 65.672 657.315 67.72 655.609 70.024C653.902 72.328 652.323 74.76 650.873 77.32C649.507 79.7947 648.313 82.312 647.289 84.872C646.265 87.3467 645.454 89.6507 644.857 91.784C644.601 92.808 644.345 94.0027 644.089 95.368C643.833 96.7333 643.705 98.0987 643.705 99.464C643.705 100.659 643.79 101.811 643.961 102.92C644.217 103.944 644.643 104.84 645.241 105.608C645.838 106.376 646.606 106.931 647.545 107.272C648.483 107.528 649.721 107.485 651.257 107.144C652.451 106.888 653.945 105.992 655.737 104.456C657.529 102.835 659.363 100.957 661.241 98.824C663.118 96.6907 664.91 94.472 666.617 92.168C668.409 89.864 669.859 87.816 670.969 86.024C671.907 83.5493 672.718 81.1173 673.401 78.728C674.083 76.3387 674.51 74.1627 674.681 72.2H675.577C676.601 71.688 677.923 71.7307 679.545 72.328C681.251 72.84 682.83 73.6507 684.281 74.76C685.817 75.8693 687.054 77.192 687.993 78.728C688.931 80.1787 689.187 81.6293 688.761 83.08C688.59 83.592 688.334 84.1893 687.993 84.872C687.737 85.4693 687.481 86.1093 687.225 86.792C686.542 88.328 685.859 89.9493 685.177 91.656C684.494 93.3627 683.854 95.0693 683.257 96.776C682.745 98.4827 682.275 100.147 681.849 101.768C681.507 103.304 681.337 104.669 681.337 105.864C681.337 107.656 681.465 108.68 681.721 108.936H682.873C685.177 108.168 687.395 106.845 689.529 104.968C691.662 103.091 693.71 100.957 695.673 98.568C697.635 96.0933 699.47 93.4907 701.177 90.76C702.969 88.0293 704.633 85.4267 706.169 82.952C706.595 82.3547 706.937 81.8 707.193 81.288C707.534 80.6907 707.875 80.0933 708.217 79.496C708.473 79.0693 708.985 78.856 709.753 78.856C710.521 78.7707 711.246 78.856 711.929 79.112C712.697 79.368 713.294 79.7093 713.721 80.136C714.147 80.5627 714.19 81.0747 713.849 81.672C713.337 82.44 712.825 83.2507 712.313 84.104C711.886 84.872 711.417 85.6827 710.905 86.536C708.259 90.888 705.358 95.2827 702.201 99.72C699.043 104.072 695.374 108.04 691.193 111.624C690.595 112.136 689.827 112.733 688.889 113.416C687.95 114.099 686.883 114.739 685.689 115.336C684.494 115.933 683.129 116.445 681.593 116.872C680.142 117.213 678.521 117.341 676.729 117.256C672.547 116.915 669.518 115.635 667.641 113.416C665.763 111.197 664.825 108.552 664.825 105.48V103.688C663.203 105.395 661.497 107.016 659.705 108.552C657.998 110.088 656.206 111.453 654.329 112.648C652.537 113.843 650.702 114.824 648.825 115.592C646.947 116.275 645.07 116.616 643.193 116.616C640.121 116.36 637.518 115.635 635.385 114.44C633.337 113.245 631.715 111.88 630.521 110.344C629.326 108.723 628.473 107.016 627.961 105.224C627.449 103.347 627.193 101.555 627.193 99.848C627.193 99.1653 627.235 98.4827 627.321 97.8C627.321 97.1173 627.363 96.52 627.449 96.008C627.79 93.2773 628.601 90.2907 629.881 87.048C631.246 83.8053 632.91 80.5627 634.873 77.32C636.921 74.0773 639.267 70.9627 641.913 67.976C644.643 64.904 647.587 62.216 650.745 59.912C653.902 57.5227 657.187 55.6453 660.601 54.28C664.099 52.8293 667.683 52.104 671.353 52.104C673.657 52.104 675.833 52.36 677.881 52.872C679.758 53.384 681.294 54.2373 682.489 55.432C683.769 56.6267 684.75 58.0347 685.433 59.656C686.115 61.192 686.542 62.856 686.713 64.648C686.969 66.44 687.054 68.232 686.969 70.024ZM772.373 92.808C771.178 94.6853 769.557 97.032 767.509 99.848C765.461 102.579 763.157 105.224 760.597 107.784C758.037 110.344 755.306 112.563 752.405 114.44C749.589 116.232 746.73 117.128 743.829 117.128C742.122 117.128 740.501 116.872 738.965 116.36C737.429 115.848 736.063 115.08 734.869 114.056C733.674 113.032 732.735 111.709 732.053 110.088C731.37 108.467 731.071 106.547 731.157 104.328C731.242 102.195 731.541 100.061 732.053 97.928C732.565 95.7947 733.247 93.5333 734.101 91.144C734.954 88.6693 735.935 85.9813 737.045 83.08C738.239 80.1787 739.605 76.936 741.141 73.352C741.823 71.6453 742.378 70.0667 742.805 68.616C743.317 67.08 743.573 65.7147 743.573 64.52C743.573 63.6667 743.018 63.4107 741.909 63.752C740.885 64.008 739.135 65.2453 736.661 67.464C733.674 70.1093 730.943 72.7973 728.469 75.528C725.994 78.1733 723.434 81.1173 720.789 84.36C718.57 89.3947 716.693 94.5573 715.157 99.848C713.621 105.139 712.639 110.6 712.213 116.232C712.127 117 711.445 117.299 710.165 117.128C708.885 116.957 707.519 116.573 706.069 115.976C704.618 115.293 703.253 114.483 701.973 113.544C700.693 112.605 700.01 111.709 699.925 110.856C700.266 104.456 701.461 98.1413 703.509 91.912C705.642 85.5973 707.903 79.24 710.293 72.84C711.487 69.8533 712.639 66.7813 713.749 63.624C714.943 60.4667 716.053 57.0107 717.077 53.256C718.101 52.744 719.509 52.744 721.301 53.256C723.093 53.6827 724.799 54.408 726.421 55.432C728.042 56.456 729.365 57.6933 730.389 59.144C731.413 60.5947 731.669 62.0453 731.157 63.496H731.285C731.285 63.6667 731.242 63.7947 731.157 63.88C734.314 60.8933 737.685 58.376 741.269 56.328C744.853 54.1947 748.607 53 752.533 52.744C753.557 52.744 754.666 53.128 755.861 53.896C757.055 54.5787 758.122 55.4747 759.061 56.584C760.085 57.608 760.853 58.7173 761.365 59.912C761.962 61.1067 762.133 62.1733 761.877 63.112C760.426 67.0373 758.933 70.7493 757.397 74.248C755.946 77.6613 754.666 80.6053 753.557 83.08C752.618 85.2987 751.722 87.3467 750.869 89.224C750.101 91.1013 749.375 92.9787 748.693 94.856C748.095 96.648 747.583 98.5253 747.157 100.488C746.815 102.451 746.559 104.627 746.389 107.016C746.303 107.443 746.389 107.869 746.645 108.296C746.986 108.723 747.626 108.808 748.565 108.552C750.783 107.443 753.557 105.437 756.885 102.536C760.213 99.5493 763.583 95.496 766.997 90.376C768.618 87.9867 770.154 85.5547 771.605 83.08L773.653 79.496C773.909 79.0693 774.378 78.856 775.061 78.856C775.829 78.7707 776.554 78.856 777.237 79.112C777.919 79.368 778.474 79.7093 778.901 80.136C779.327 80.5627 779.37 81.0747 779.029 81.672L772.373 92.808ZM776.564 53.128C775.796 53.384 775.113 53.4267 774.516 53.256C773.918 53.0853 773.449 52.8293 773.108 52.488C772.766 52.0613 772.638 51.6347 772.724 51.208C772.809 50.696 773.15 50.2267 773.748 49.8C779.806 45.8747 785.993 42.632 792.308 40.072C797.001 30.0027 800.329 21.3413 802.292 14.088C803.316 13.576 804.724 13.5333 806.516 13.96C808.308 14.3867 810.014 15.112 811.636 16.136C813.257 17.16 814.58 18.3973 815.604 19.848C816.628 21.2987 816.884 22.7493 816.372 24.2C816.03 25.0533 815.476 26.376 814.708 28.168C813.94 29.8747 813.001 31.8373 811.892 34.056C818.292 32.776 824.734 32.136 831.22 32.136C832.073 32.136 833.097 32.1787 834.292 32.264C835.572 32.264 836.638 32.3067 837.492 32.392C837.748 33.0747 837.748 33.8427 837.492 34.696C837.236 35.5493 836.809 36.36 836.212 37.128C835.7 37.8107 835.06 38.408 834.292 38.92C833.524 39.3467 832.756 39.4747 831.988 39.304C830.964 39.2187 829.982 39.176 829.044 39.176C828.105 39.0907 827.166 39.048 826.228 39.048C823.241 39.048 820.254 39.2187 817.268 39.56C814.366 39.9013 811.422 40.4133 808.436 41.096L802.42 52.872L801.652 54.408C800.884 55.8587 799.817 57.9067 798.452 60.552C797.172 63.112 795.764 66.0133 794.228 69.256C792.692 72.4133 791.113 75.7413 789.492 79.24C787.956 82.7387 786.548 86.152 785.268 89.48C783.988 92.7227 782.921 95.752 782.068 98.568C781.3 101.384 780.916 103.688 780.916 105.48C780.916 107.357 781.129 108.509 781.556 108.936H782.58C784.884 108.083 787.102 106.76 789.236 104.968C791.369 103.091 793.374 101 795.252 98.696C797.214 96.3067 799.049 93.7893 800.756 91.144C802.548 88.4987 804.169 85.9387 805.62 83.464H805.492C805.918 82.7813 806.345 82.1413 806.772 81.544C807.198 80.8613 807.625 80.1787 808.052 79.496C808.308 79.0693 808.777 78.856 809.46 78.856C810.228 78.7707 810.953 78.856 811.636 79.112C812.318 79.368 812.873 79.7093 813.3 80.136C813.726 80.5627 813.812 81.0747 813.556 81.672L810.356 86.92C809.076 88.968 807.71 91.1013 806.26 93.32C804.894 95.5387 803.401 97.7573 801.78 99.976C800.158 102.109 798.452 104.2 796.66 106.248C794.868 108.211 792.99 110.003 791.028 111.624C790.43 112.136 789.662 112.733 788.724 113.416C787.785 114.099 786.676 114.739 785.396 115.336C784.201 115.848 782.836 116.317 781.3 116.744C779.764 117.085 778.142 117.256 776.436 117.256C772.937 117.085 770.377 115.891 768.756 113.672C767.22 111.453 766.452 108.723 766.452 105.48C766.452 104.797 766.494 103.987 766.58 103.048C766.665 102.109 766.793 101.256 766.964 100.488C767.561 96.648 768.457 92.808 769.652 88.968C770.932 85.128 772.34 81.3307 773.876 77.576C775.497 73.736 777.246 69.9387 779.124 66.184C781.001 62.4293 782.921 58.6747 784.884 54.92L788.596 47.496C786.633 48.3493 784.67 49.2453 782.708 50.184C780.745 51.0373 778.782 52.0187 776.82 53.128H776.564Z" fill="white"/>
</svg>
